LXGWWenKaiMonoLite-Bold.ufo
<glyph name="quotedbl" format="1">
  <advance width="500" height="500"/>
  <unicode hex="0022"/>
  <outline>
    <contour>
      <point x="176" y="470" type="qcurve" smooth="yes"/>
      <point x="139" y="470"/>
      <point x="139" y="492" type="qcurve" smooth="yes"/>
      <point x="133" y="703" type="line" smooth="yes"/>
      <point x="133" y="718"/>
      <point x="162" y="731"/>
      <point x="176" y="731" type="qcurve" smooth="yes"/>
      <point x="191" y="731"/>
      <point x="219" y="718"/>
      <point x="219" y="703" type="qcurve" smooth="yes"/>
      <point x="213" y="492" type="line" smooth="yes"/>
      <point x="213" y="470"/>
    </contour>
    <contour>
      <point x="324" y="470" type="qcurve" smooth="yes"/>
      <point x="287" y="470"/>
      <point x="287" y="492" type="qcurve" smooth="yes"/>
      <point x="281" y="703" type="line" smooth="yes"/>
      <point x="281" y="718"/>
      <point x="310" y="731"/>
      <point x="324" y="731" type="qcurve" smooth="yes"/>
      <point x="339" y="731"/>
      <point x="367" y="718"/>
      <point x="367" y="703" type="qcurve" smooth="yes"/>
      <point x="361" y="492" type="line" smooth="yes"/>
      <point x="361" y="470"/>
    </contour>
  </outline>
</glyph>
<glyph name="quotesingle" format="1">
  <advance width="500" height="500"/>
  <unicode hex="0027"/>
  <outline>
    <contour>
      <point x="250" y="470" type="qcurve" smooth="yes"/>
      <point x="216" y="470"/>
      <point x="213" y="492" type="qcurve" smooth="yes"/>
      <point x="207" y="703" type="line" smooth="yes"/>
      <point x="207" y="718"/>
      <point x="236" y="731"/>
      <point x="250" y="731" type="qcurve" smooth="yes"/>
      <point x="293" y="731"/>
      <point x="293" y="703" type="qcurve" smooth="yes"/>
      <point x="287" y="492" type="line" smooth="yes"/>
      <point x="287" y="470"/>
    </contour>
  </outline>
</glyph>
<glyph name="parenright" format="1">
  <advance width="500" height="500"/>
  <unicode hex="0029"/>
  <outline>
    <contour>
      <point x="124" y="-165" type="qcurve" smooth="yes"/>
      <point x="115" y="-165"/>
      <point x="104" y="-150"/>
      <point x="104" y="-140" type="qcurve" smooth="yes"/>
      <point x="104" y="-125"/>
      <point x="115" y="-115" type="qcurve" smooth="yes"/>
      <point x="189" y="-50"/>
      <point x="272" y="188"/>
      <point x="272" y="286" type="qcurve" smooth="yes"/>
      <point x="272" y="389"/>
      <point x="229" y="531" type="qcurve" smooth="yes"/>
      <point x="185" y="668"/>
      <point x="102" y="755" type="qcurve" smooth="yes"/>
      <point x="94" y="763"/>
      <point x="94" y="774" type="qcurve" smooth="yes"/>
      <point x="94" y="797"/>
      <point x="119" y="797" type="qcurve" smooth="yes"/>
      <point x="132" y="797"/>
      <point x="161" y="772" type="qcurve" smooth="yes"/>
      <point x="221" y="718"/>
      <point x="291" y="588" type="qcurve" smooth="yes"/>
      <point x="366" y="440"/>
      <point x="366" y="286" type="qcurve" smooth="yes"/>
      <point x="366" y="137"/>
      <point x="291" y="11" type="qcurve" smooth="yes"/>
      <point x="222" y="-101"/>
      <point x="162" y="-144" type="qcurve" smooth="yes"/>
      <point x="134" y="-165"/>
    </contour>
  </outline>
</glyph>
<glyph name="bar" format="1">
  <advance width="500" height="500"/>
  <unicode hex="007C"/>
  <outline>
    <contour>
      <point x="273" y="-119" type="qcurve" smooth="yes"/>
      <point x="257" y="-119"/>
      <point x="217" y="-103"/>
      <point x="217" y="-88" type="qcurve" smooth="yes"/>
      <point x="219" y="-29" type="line"/>
      <point x="218" y="719" type="line" smooth="yes"/>
      <point x="216" y="751"/>
      <point x="216" y="771" type="qcurve" smooth="yes"/>
      <point x="216" y="786"/>
      <point x="242" y="786" type="qcurve" smooth="yes"/>
      <point x="259" y="786"/>
      <point x="297" y="772"/>
      <point x="297" y="757" type="qcurve" smooth="yes"/>
      <point x="296" y="720"/>
      <point x="295" y="-3" type="qcurve" smooth="yes"/>
      <point x="296" y="-8"/>
      <point x="296" y="-25"/>
      <point x="297" y="-33" type="qcurve" smooth="yes"/>
      <point x="298" y="-105" type="line" smooth="yes"/>
      <point x="298" y="-119"/>
    </contour>
  </outline>
</glyph>
<glyph name="dieresis" format="1">
  <advance width="1000" height="1000"/>
  <unicode hex="00A8"/>
  <outline>
    <contour>
      <point x="413" y="727" type="qcurve" smooth="yes"/>
      <point x="388" y="727"/>
      <point x="351" y="772"/>
      <point x="351" y="794" type="qcurve" smooth="yes"/>
      <point x="354" y="848"/>
      <point x="403" y="848" type="qcurve" smooth="yes"/>
      <point x="426" y="848"/>
      <point x="464" y="805"/>
      <point x="464" y="780" type="qcurve" smooth="yes"/>
      <point x="460" y="727"/>
    </contour>
    <contour>
      <point x="596" y="727" type="qcurve" smooth="yes"/>
      <point x="571" y="727"/>
      <point x="534" y="772"/>
      <point x="534" y="794" type="qcurve" smooth="yes"/>
      <point x="537" y="848"/>
      <point x="586" y="848" type="qcurve" smooth="yes"/>
      <point x="609" y="848"/>
      <point x="647" y="805"/>
      <point x="647" y="780" type="qcurve" smooth="yes"/>
      <point x="643" y="727"/>
    </contour>
  </outline>
</glyph>
<glyph name="uni00AD" format="1">
  <advance width="500" height="500"/>
  <unicode hex="00AD"/>
  <outline>
    <contour>
      <point x="495" y="344" type="qcurve" smooth="yes"/>
      <point x="5" y="344" type="line" smooth="yes"/>
      <point x="-20" y="344"/>
      <point x="-20" y="379" type="qcurve" smooth="yes"/>
      <point x="-20" y="414"/>
      <point x="5" y="414" type="qcurve" smooth="yes"/>
      <point x="495" y="414" type="line" smooth="yes"/>
      <point x="520" y="414"/>
      <point x="520" y="379" type="qcurve" smooth="yes"/>
      <point x="520" y="344"/>
    </contour>
  </outline>
</glyph>
<glyph name="plusminus" format="1">
  <advance width="1000" height="1000"/>
  <unicode hex="00B1"/>
  <outline>
    <contour>
      <point x="186" y="49" type="qcurve" smooth="yes"/>
      <point x="172" y="49"/>
      <point x="159" y="82"/>
      <point x="159" y="97" type="qcurve" smooth="yes"/>
      <point x="159" y="128"/>
      <point x="181" y="128" type="qcurve" smooth="yes"/>
      <point x="221" y="126"/>
      <point x="268" y="126" type="qcurve" smooth="yes"/>
      <point x="672" y="131"/>
      <point x="812" y="135" type="qcurve" smooth="yes"/>
      <point x="826" y="135"/>
      <point x="840" y="105"/>
      <point x="840" y="90" type="qcurve" smooth="yes"/>
      <point x="840" y="79"/>
      <point x="829" y="57"/>
      <point x="817" y="57" type="qcurve" smooth="yes"/>
      <point x="770" y="58" type="line"/>
      <point x="204" y="52"/>
    </contour>
    <contour>
      <point x="505" y="198" type="qcurve" smooth="yes"/>
      <point x="490" y="198"/>
      <point x="460" y="211"/>
      <point x="460" y="226" type="qcurve" smooth="yes"/>
      <point x="463" y="256"/>
      <point x="463" y="421" type="qcurve"/>
      <point x="201" y="418"/>
      <point x="186" y="416" type="qcurve" smooth="yes"/>
      <point x="172" y="416"/>
      <point x="159" y="449"/>
      <point x="159" y="464" type="qcurve" smooth="yes"/>
      <point x="159" y="495"/>
      <point x="181" y="495" type="qcurve" smooth="yes"/>
      <point x="221" y="493"/>
      <point x="268" y="493" type="qcurve" smooth="yes"/>
      <point x="463" y="496" type="line"/>
      <point x="463" y="648"/>
      <point x="461" y="688" type="qcurve" smooth="yes"/>
      <point x="461" y="710"/>
      <point x="493" y="710" type="qcurve" smooth="yes"/>
      <point x="508" y="710"/>
      <point x="540" y="697"/>
      <point x="540" y="684" type="qcurve" smooth="yes"/>
      <point x="537" y="634"/>
      <point x="537" y="496" type="qcurve"/>
      <point x="665" y="498"/>
      <point x="812" y="502" type="qcurve" smooth="yes"/>
      <point x="826" y="502"/>
      <point x="840" y="472"/>
      <point x="840" y="457" type="qcurve" smooth="yes"/>
      <point x="840" y="446"/>
      <point x="829" y="424"/>
      <point x="817" y="424" type="qcurve" smooth="yes"/>
      <point x="770" y="425" type="line"/>
      <point x="537" y="422" type="line"/>
      <point x="537" y="290"/>
      <point x="538" y="266" type="qcurve" smooth="yes"/>
      <point x="538" y="220" type="line" smooth="yes"/>
      <point x="538" y="198"/>
    </contour>
  </outline>
</glyph>
<glyph name="paragraph" format="1">
  <advance width="1000" height="1000"/>
  <unicode hex="00B6"/>
  <outline>
    <contour>
      <point x="438" y="-62" type="qcurve" smooth="yes"/>
      <point x="423" y="-62"/>
      <point x="391" y="-49"/>
      <point x="391" y="-34" type="qcurve" smooth="yes"/>
      <point x="394" y="-3"/>
      <point x="394" y="380" type="qcurve"/>
      <point x="380" y="377"/>
      <point x="356" y="377" type="qcurve" smooth="yes"/>
      <point x="313" y="377"/>
      <point x="236" y="414"/>
      <point x="186" y="489"/>
      <point x="186" y="546" type="qcurve" smooth="yes"/>
      <point x="186" y="612"/>
      <point x="247" y="710"/>
      <point x="347" y="769"/>
      <point x="406" y="770" type="qcurve" smooth="yes"/>
      <point x="620" y="780" type="line" smooth="yes"/>
      <point x="646" y="780"/>
      <point x="674" y="747"/>
      <point x="674" y="726" type="qcurve" smooth="yes"/>
      <point x="674" y="-5"/>
      <point x="675" y="-29" type="qcurve" smooth="yes"/>
      <point x="675" y="-51"/>
      <point x="641" y="-51" type="qcurve" smooth="yes"/>
      <point x="626" y="-51"/>
      <point x="594" y="-38"/>
      <point x="594" y="-23" type="qcurve" smooth="yes"/>
      <point x="597" y="8"/>
      <point x="597" y="708" type="qcurve"/>
      <point x="471" y="701" type="line"/>
      <point x="471" y="-17"/>
      <point x="472" y="-40" type="qcurve" smooth="yes"/>
      <point x="472" y="-62"/>
    </contour>
  </outline>
</glyph>
<glyph name="multiply" format="1">
  <advance width="1000" height="1000"/>
  <unicode hex="00D7"/>
  <outline>
    <contour>
      <point x="234" y="58" type="qcurve" smooth="yes"/>
      <point x="219" y="58"/>
      <point x="195" y="91"/>
      <point x="195" y="107" type="qcurve" smooth="yes"/>
      <point x="195" y="121"/>
      <point x="204" y="129" type="qcurve" smooth="yes"/>
      <point x="220" y="142"/>
      <point x="251" y="173"/>
      <point x="261" y="181" type="qcurve" smooth="yes"/>
      <point x="449" y="369" type="line"/>
      <point x="221" y="596"/>
      <point x="203" y="609" type="qcurve" smooth="yes"/>
      <point x="195" y="616"/>
      <point x="195" y="629" type="qcurve" smooth="yes"/>
      <point x="195" y="645"/>
      <point x="218" y="681"/>
      <point x="234" y="681" type="qcurve" smooth="yes"/>
      <point x="242" y="681"/>
      <point x="250" y="673" type="qcurve" smooth="yes"/>
      <point x="500" y="420" type="line"/>
      <point x="747" y="667" type="line" smooth="yes"/>
      <point x="755" y="675"/>
      <point x="763" y="675" type="qcurve" smooth="yes"/>
      <point x="777" y="675"/>
      <point x="801" y="639"/>
      <point x="801" y="623" type="qcurve" smooth="yes"/>
      <point x="801" y="610"/>
      <point x="793" y="603" type="qcurve" smooth="yes"/>
      <point x="779" y="593"/>
      <point x="552" y="368" type="qcurve"/>
      <point x="728" y="189" type="line"/>
      <point x="786" y="139" type="line" smooth="yes"/>
      <point x="795" y="132"/>
      <point x="795" y="118" type="qcurve" smooth="yes"/>
      <point x="795" y="101"/>
      <point x="770" y="67"/>
      <point x="756" y="67" type="qcurve" smooth="yes"/>
      <point x="746" y="67"/>
      <point x="740" y="74" type="qcurve" smooth="yes"/>
      <point x="682" y="135"/>
      <point x="501" y="317" type="qcurve"/>
      <point x="308" y="125"/>
      <point x="250" y="65" type="qcurve" smooth="yes"/>
      <point x="245" y="58"/>
    </contour>
  </outline>
</glyph>
<glyph name="ae" format="1">
  <advance width="500" height="500"/>
  <unicode hex="00E6"/>
  <outline>
    <contour>
      <point x="140" y="49" type="qcurve" smooth="yes"/>
      <point x="161" y="49"/>
      <point x="210" y="129"/>
      <point x="214" y="209" type="qcurve"/>
      <point x="169" y="205"/>
      <point x="125" y="182" type="qcurve" smooth="yes"/>
      <point x="108" y="173"/>
      <point x="95" y="151"/>
      <point x="95" y="127" type="qcurve" smooth="yes"/>
      <point x="95" y="49"/>
    </contour>
    <contour>
      <point x="290" y="258" type="qcurve"/>
      <point x="336" y="258"/>
      <point x="380" y="282" type="qcurve" smooth="yes"/>
      <point x="398" y="291"/>
      <point x="410" y="317"/>
      <point x="410" y="341" type="qcurve" smooth="yes"/>
      <point x="410" y="384"/>
      <point x="385" y="420"/>
      <point x="374" y="420" type="qcurve" smooth="yes"/>
      <point x="348" y="420"/>
      <point x="324" y="371" type="qcurve" smooth="yes"/>
      <point x="297" y="316"/>
    </contour>
    <contour>
      <point x="242" y="34" type="line"/>
      <point x="242" y="32" type="line"/>
      <point x="243" y="34" type="line"/>
    </contour>
    <contour>
      <point x="269" y="407" type="qcurve"/>
      <point x="310" y="492"/>
      <point x="372" y="492" type="qcurve" smooth="yes"/>
      <point x="416" y="492"/>
      <point x="441" y="464" type="qcurve" smooth="yes"/>
      <point x="478" y="424"/>
      <point x="478" y="340" type="qcurve" smooth="yes"/>
      <point x="478" y="311"/>
      <point x="474" y="290" type="qcurve" smooth="yes"/>
      <point x="462" y="223"/>
      <point x="363" y="199" type="qcurve" smooth="yes"/>
      <point x="331" y="192"/>
      <point x="286" y="192" type="qcurve"/>
      <point x="286" y="145"/>
      <point x="306" y="75"/>
      <point x="329" y="50"/>
      <point x="333" y="50" type="qcurve" smooth="yes"/>
      <point x="393" y="50"/>
      <point x="430" y="123" type="qcurve" smooth="yes"/>
      <point x="439" y="146"/>
      <point x="458" y="146" type="qcurve" smooth="yes"/>
      <point x="479" y="146"/>
      <point x="479" y="130" type="qcurve" smooth="yes"/>
      <point x="479" y="119"/>
      <point x="471" y="97" type="qcurve" smooth="yes"/>
      <point x="429" y="-24"/>
      <point x="333" y="-24" type="qcurve" smooth="yes"/>
      <point x="290" y="-24"/>
      <point x="259" y="18" type="qcurve" smooth="yes"/>
      <point x="245" y="36"/>
      <point x="242" y="36" type="qcurve" smooth="yes"/>
      <point x="242" y="34" type="line" smooth="yes"/>
      <point x="240" y="34"/>
      <point x="223" y="13" type="qcurve" smooth="yes"/>
      <point x="191" y="-24"/>
      <point x="143" y="-24" type="qcurve" smooth="yes"/>
      <point x="96" y="-24"/>
      <point x="46" y="26"/>
      <point x="27" y="92"/>
      <point x="27" y="130" type="qcurve" smooth="yes"/>
      <point x="27" y="168"/>
      <point x="49" y="225"/>
      <point x="84" y="241" type="qcurve" smooth="yes"/>
      <point x="153" y="275"/>
      <point x="217" y="275" type="qcurve"/>
      <point x="216" y="420"/>
      <point x="163" y="420" type="qcurve" smooth="yes"/>
      <point x="150" y="420"/>
      <point x="140" y="411" type="qcurve" smooth="yes"/>
      <point x="115" y="392"/>
      <point x="102" y="346" type="qcurve" smooth="yes"/>
      <point x="97" y="332"/>
      <point x="78" y="332" type="qcurve" smooth="yes"/>
      <point x="59" y="332"/>
      <point x="39" y="374"/>
      <point x="39" y="384" type="qcurve" smooth="yes"/>
      <point x="39" y="410"/>
      <point x="107" y="492"/>
      <point x="164" y="492" type="qcurve" smooth="yes"/>
      <point x="236" y="492"/>
      <point x="265" y="417" type="qcurve" smooth="yes"/>
      <point x="267" y="411"/>
    </contour>
  </outline>
</glyph>
<glyph name="divide" format="1">
  <advance width="1000" height="1000"/>
  <unicode hex="00F7"/>
  <outline>
    <contour>
      <point x="186" y="318" type="qcurve" smooth="yes"/>
      <point x="172" y="318"/>
      <point x="159" y="351"/>
      <point x="159" y="366" type="qcurve" smooth="yes"/>
      <point x="159" y="397"/>
      <point x="181" y="397" type="qcurve" smooth="yes"/>
      <point x="221" y="395"/>
      <point x="268" y="395" type="qcurve" smooth="yes"/>
      <point x="672" y="400"/>
      <point x="812" y="404" type="qcurve" smooth="yes"/>
      <point x="826" y="404"/>
      <point x="840" y="374"/>
      <point x="840" y="359" type="qcurve" smooth="yes"/>
      <point x="840" y="348"/>
      <point x="829" y="326"/>
      <point x="817" y="326" type="qcurve" smooth="yes"/>
      <point x="770" y="327" type="line"/>
      <point x="204" y="321"/>
    </contour>
    <contour>
      <point x="500" y="527" type="qcurve" smooth="yes"/>
      <point x="476" y="527"/>
      <point x="441" y="572"/>
      <point x="441" y="593" type="qcurve" smooth="yes"/>
      <point x="441" y="620"/>
      <point x="475" y="647"/>
      <point x="500" y="647" type="qcurve" smooth="yes"/>
      <point x="522" y="647"/>
      <point x="558" y="602"/>
      <point x="558" y="579" type="qcurve" smooth="yes"/>
      <point x="558" y="527"/>
    </contour>
    <contour>
      <point x="500" y="59" type="qcurve" smooth="yes"/>
      <point x="476" y="59"/>
      <point x="441" y="104"/>
      <point x="441" y="125" type="qcurve" smooth="yes"/>
      <point x="441" y="152"/>
      <point x="475" y="179"/>
      <point x="500" y="179" type="qcurve" smooth="yes"/>
      <point x="522" y="179"/>
      <point x="558" y="134"/>
      <point x="558" y="111" type="qcurve" smooth="yes"/>
      <point x="558" y="59"/>
    </contour>
  </outline>
</glyph>
<glyph name="IJ" format="1">
  <advance width="500" height="500"/>
  <unicode hex="0132"/>
  <outline>
    <contour>
      <point x="249" y="-23" type="qcurve" smooth="yes"/>
      <point x="202" y="-23"/>
      <point x="132" y="15"/>
      <point x="89" y="67"/>
      <point x="70" y="114"/>
      <point x="70" y="124" type="qcurve" smooth="yes"/>
      <point x="70" y="136"/>
      <point x="88" y="161"/>
      <point x="114" y="179"/>
      <point x="127" y="179" type="qcurve" smooth="yes"/>
      <point x="143" y="179"/>
      <point x="146" y="162" type="qcurve" smooth="yes"/>
      <point x="168" y="55"/>
      <point x="248" y="55" type="qcurve" smooth="yes"/>
      <point x="337" y="55"/>
      <point x="337" y="180" type="qcurve" smooth="yes"/>
      <point x="337" y="589"/>
      <point x="334" y="695" type="qcurve" smooth="yes"/>
      <point x="334" y="711"/>
      <point x="359" y="711" type="qcurve" smooth="yes"/>
      <point x="380" y="711"/>
      <point x="421" y="693"/>
      <point x="421" y="677" type="qcurve" smooth="yes"/>
      <point x="419" y="588"/>
      <point x="419" y="177" type="qcurve" smooth="yes"/>
      <point x="419" y="-23"/>
    </contour>
    <contour>
      <point x="183" y="236" type="qcurve" smooth="yes"/>
      <point x="165" y="236"/>
      <point x="123" y="253"/>
      <point x="123" y="267" type="qcurve" smooth="yes"/>
      <point x="124" y="350" type="line" smooth="yes"/>
      <point x="124" y="596"/>
      <point x="122" y="697" type="qcurve" smooth="yes"/>
      <point x="122" y="711"/>
      <point x="146" y="711" type="qcurve" smooth="yes"/>
      <point x="165" y="711"/>
      <point x="206" y="694"/>
      <point x="206" y="680" type="qcurve" smooth="yes"/>
      <point x="205" y="596" type="line" smooth="yes"/>
      <point x="205" y="350"/>
      <point x="207" y="250" type="qcurve" smooth="yes"/>
      <point x="207" y="236"/>
    </contour>
  </outline>
</glyph>
<glyph name="aeacute" format="1">
  <advance width="500" height="500"/>
  <unicode hex="01FD"/>
  <outline>
    <contour>
      <point x="228" y="593"/>
      <point x="190" y="568"/>
      <point x="171" y="568"/>
      <point x="158" y="583"/>
      <point x="158" y="591" type="qcurve" smooth="yes"/>
      <point x="158" y="606"/>
      <point x="293" y="719"/>
      <point x="320" y="719"/>
      <point x="334" y="708" type="qcurve" smooth="yes"/>
      <point x="369" y="680"/>
      <point x="369" y="659" type="qcurve" smooth="yes"/>
      <point x="369" y="650"/>
      <point x="359" y="644" type="qcurve" smooth="yes"/>
      <point x="315" y="626"/>
    </contour>
    <contour>
      <point x="333" y="-24" type="qcurve" smooth="yes"/>
      <point x="290" y="-24"/>
      <point x="259" y="18" type="qcurve" smooth="yes"/>
      <point x="245" y="36"/>
      <point x="242" y="36" type="qcurve" smooth="yes"/>
      <point x="242" y="34" type="line" smooth="yes"/>
      <point x="240" y="34"/>
      <point x="191" y="-24"/>
      <point x="96" y="-24"/>
      <point x="71" y="1" type="qcurve" smooth="yes"/>
      <point x="27" y="45"/>
      <point x="27" y="130" type="qcurve" smooth="yes"/>
      <point x="27" y="168"/>
      <point x="49" y="225"/>
      <point x="84" y="241" type="qcurve" smooth="yes"/>
      <point x="153" y="275"/>
      <point x="217" y="275" type="qcurve"/>
      <point x="216" y="420"/>
      <point x="163" y="420" type="qcurve" smooth="yes"/>
      <point x="150" y="420"/>
      <point x="140" y="411" type="qcurve" smooth="yes"/>
      <point x="115" y="392"/>
      <point x="102" y="346" type="qcurve" smooth="yes"/>
      <point x="97" y="332"/>
      <point x="78" y="332" type="qcurve" smooth="yes"/>
      <point x="59" y="332"/>
      <point x="39" y="374"/>
      <point x="39" y="384" type="qcurve" smooth="yes"/>
      <point x="39" y="410"/>
      <point x="107" y="492"/>
      <point x="164" y="492" type="qcurve" smooth="yes"/>
      <point x="236" y="492"/>
      <point x="265" y="417" type="qcurve" smooth="yes"/>
      <point x="268" y="406"/>
      <point x="268" y="402" type="qcurve" smooth="yes"/>
      <point x="268" y="400" type="line"/>
      <point x="266" y="401" type="line"/>
      <point x="305" y="492"/>
      <point x="372" y="492" type="qcurve" smooth="yes"/>
      <point x="416" y="492"/>
      <point x="441" y="464" type="qcurve" smooth="yes"/>
      <point x="478" y="424"/>
      <point x="478" y="340" type="qcurve" smooth="yes"/>
      <point x="478" y="311"/>
      <point x="474" y="290" type="qcurve" smooth="yes"/>
      <point x="462" y="223"/>
      <point x="363" y="199" type="qcurve" smooth="yes"/>
      <point x="331" y="192"/>
      <point x="286" y="192" type="qcurve"/>
      <point x="286" y="145"/>
      <point x="306" y="75"/>
      <point x="329" y="50"/>
      <point x="333" y="50" type="qcurve" smooth="yes"/>
      <point x="393" y="50"/>
      <point x="430" y="123" type="qcurve" smooth="yes"/>
      <point x="439" y="146"/>
      <point x="479" y="146"/>
      <point x="479" y="130" type="qcurve" smooth="yes"/>
      <point x="479" y="119"/>
      <point x="472" y="97" type="qcurve" smooth="yes"/>
      <point x="429" y="-24"/>
    </contour>
    <contour>
      <point x="140" y="49" type="qcurve" smooth="yes"/>
      <point x="162" y="49"/>
      <point x="209" y="129"/>
      <point x="215" y="209" type="qcurve"/>
      <point x="169" y="205"/>
      <point x="125" y="183" type="qcurve" smooth="yes"/>
      <point x="108" y="174"/>
      <point x="95" y="151"/>
      <point x="95" y="127" type="qcurve" smooth="yes"/>
      <point x="95" y="49"/>
    </contour>
    <contour>
      <point x="291" y="258" type="qcurve"/>
      <point x="336" y="258"/>
      <point x="379" y="281" type="qcurve" smooth="yes"/>
      <point x="398" y="291"/>
      <point x="410" y="316"/>
      <point x="410" y="384"/>
      <point x="385" y="420"/>
      <point x="374" y="420" type="qcurve" smooth="yes"/>
      <point x="348" y="420"/>
      <point x="297" y="316"/>
    </contour>
  </outline>
</glyph>
<glyph name="uni0250" format="1">
  <advance width="500" height="500"/>
  <unicode hex="0250"/>
  <outline>
    <contour>
      <point x="154" y="257" type="qcurve"/>
      <point x="256" y="263"/>
      <point x="334" y="288" type="qcurve" smooth="yes"/>
      <point x="368" y="297"/>
      <point x="388" y="319"/>
      <point x="388" y="341" type="qcurve" smooth="yes"/>
      <point x="388" y="419"/>
      <point x="296" y="419" type="qcurve" smooth="yes"/>
      <point x="246" y="419"/>
      <point x="163" y="337"/>
    </contour>
    <contour>
      <point x="256" y="-18" type="qcurve" smooth="yes"/>
      <point x="146" y="-18"/>
      <point x="104" y="48" type="qcurve" smooth="yes"/>
      <point x="67" y="104"/>
      <point x="67" y="196" type="qcurve" smooth="yes"/>
      <point x="67" y="273" type="line" smooth="yes"/>
      <point x="67" y="377"/>
      <point x="35" y="433" type="qcurve" smooth="yes"/>
      <point x="34" y="437"/>
      <point x="34" y="451"/>
      <point x="62" y="487"/>
      <point x="84" y="487" type="qcurve" smooth="yes"/>
      <point x="122" y="487"/>
      <point x="130" y="422" type="qcurve"/>
      <point x="133" y="430"/>
      <point x="175" y="459" type="qcurve" smooth="yes"/>
      <point x="223" y="492"/>
      <point x="292" y="492" type="qcurve" smooth="yes"/>
      <point x="360" y="492"/>
      <point x="437" y="445"/>
      <point x="470" y="376"/>
      <point x="470" y="337" type="qcurve" smooth="yes"/>
      <point x="470" y="297"/>
      <point x="431" y="240"/>
      <point x="377" y="224" type="qcurve" smooth="yes"/>
      <point x="267" y="193"/>
      <point x="150" y="193" type="qcurve"/>
      <point x="152" y="90"/>
      <point x="203" y="60" type="qcurve" smooth="yes"/>
      <point x="226" y="48"/>
      <point x="262" y="48" type="qcurve" smooth="yes"/>
      <point x="357" y="53"/>
      <point x="418" y="127" type="qcurve" smooth="yes"/>
      <point x="433" y="146"/>
      <point x="450" y="146" type="qcurve" smooth="yes"/>
      <point x="469" y="146"/>
      <point x="469" y="130" type="qcurve" smooth="yes"/>
      <point x="469" y="118"/>
      <point x="442" y="71"/>
      <point x="414" y="44" type="qcurve" smooth="yes"/>
      <point x="350" y="-18"/>
    </contour>
  </outline>
</glyph>
<glyph name="uni025A" format="1">
  <advance width="500" height="500"/>
  <unicode hex="025A"/>
  <outline>
    <contour>
      <point x="199" y="49" type="qcurve" smooth="yes"/>
      <point x="241" y="49"/>
      <point x="307" y="133"/>
      <point x="315" y="207" type="qcurve"/>
      <point x="136" y="190"/>
      <point x="120" y="153" type="qcurve" smooth="yes"/>
      <point x="113" y="142"/>
      <point x="113" y="127" type="qcurve" smooth="yes"/>
      <point x="113" y="49"/>
    </contour>
    <contour>
      <point x="196" y="-24" type="qcurve" smooth="yes"/>
      <point x="135" y="-24"/>
      <point x="67" y="22"/>
      <point x="37" y="93"/>
      <point x="37" y="131" type="qcurve" smooth="yes"/>
      <point x="37" y="170"/>
      <point x="72" y="227"/>
      <point x="120" y="244" type="qcurve" smooth="yes"/>
      <point x="217" y="275"/>
      <point x="319" y="275" type="qcurve"/>
      <point x="317" y="380"/>
      <point x="273" y="409" type="qcurve" smooth="yes"/>
      <point x="255" y="420"/>
      <point x="227" y="420" type="qcurve" smooth="yes"/>
      <point x="157" y="420"/>
      <point x="121" y="343" type="qcurve" smooth="yes"/>
      <point x="116" y="332"/>
      <point x="99" y="332" type="qcurve" smooth="yes"/>
      <point x="84" y="332"/>
      <point x="56" y="371"/>
      <point x="56" y="384" type="qcurve" smooth="yes"/>
      <point x="56" y="413"/>
      <point x="154" y="492"/>
      <point x="225" y="492" type="qcurve" smooth="yes"/>
      <point x="395" y="492"/>
      <point x="395" y="276" type="qcurve"/>
      <point x="448" y="276" type="line" smooth="yes"/>
      <point x="454" y="276"/>
      <point x="485" y="262"/>
      <point x="485" y="244" type="qcurve" smooth="yes"/>
      <point x="485" y="229"/>
      <point x="475" y="183"/>
      <point x="465" y="109"/>
      <point x="465" y="86" type="qcurve" smooth="yes"/>
      <point x="465" y="64"/>
      <point x="476" y="44"/>
      <point x="480" y="44" type="qcurve" smooth="yes"/>
      <point x="483" y="44"/>
      <point x="492" y="60" type="qcurve" smooth="yes"/>
      <point x="506" y="78"/>
      <point x="520" y="78" type="qcurve" smooth="yes"/>
      <point x="542" y="78"/>
      <point x="542" y="56" type="qcurve" smooth="yes"/>
      <point x="542" y="52"/>
      <point x="527" y="15"/>
      <point x="491" y="-20"/>
      <point x="462" y="-20" type="qcurve" smooth="yes"/>
      <point x="431" y="-20"/>
      <point x="391" y="34"/>
      <point x="391" y="82" type="qcurve" smooth="yes"/>
      <point x="391" y="128"/>
      <point x="405" y="208" type="qcurve"/>
      <point x="393" y="208" type="line"/>
      <point x="381" y="71"/>
      <point x="302" y="9" type="qcurve" smooth="yes"/>
      <point x="258" y="-24"/>
    </contour>
  </outline>
</glyph>
<glyph name="uni026A" format="1">
  <advance width="500" height="500"/>
  <unicode hex="026A"/>
  <outline>
    <contour>
      <point x="103" y="-12" type="qcurve" smooth="yes"/>
      <point x="91" y="-12"/>
      <point x="65" y="12"/>
      <point x="64" y="27" type="qcurve" smooth="yes"/>
      <point x="64" y="57"/>
      <point x="86" y="57" type="qcurve" smooth="yes"/>
      <point x="211" y="58" type="line"/>
      <point x="212" y="90"/>
      <point x="212" y="232" type="qcurve" smooth="yes"/>
      <point x="212" y="377"/>
      <point x="211" y="417" type="qcurve"/>
      <point x="132" y="415" type="line" smooth="yes"/>
      <point x="118" y="415"/>
      <point x="94" y="440"/>
      <point x="93" y="454" type="qcurve" smooth="yes"/>
      <point x="93" y="484"/>
      <point x="115" y="484" type="qcurve" smooth="yes"/>
      <point x="244" y="486"/>
      <point x="374" y="491" type="qcurve" smooth="yes"/>
      <point x="388" y="491"/>
      <point x="409" y="466"/>
      <point x="410" y="452" type="qcurve" smooth="yes"/>
      <point x="410" y="422"/>
      <point x="387" y="422" type="qcurve" smooth="yes"/>
      <point x="290" y="420" type="line"/>
      <point x="289" y="366" type="line"/>
      <point x="289" y="212" type="line" smooth="yes"/>
      <point x="289" y="83"/>
      <point x="290" y="61" type="qcurve"/>
      <point x="403" y="64" type="line" smooth="yes"/>
      <point x="417" y="64"/>
      <point x="437" y="39"/>
      <point x="437" y="23" type="qcurve" smooth="yes"/>
      <point x="437" y="-5"/>
      <point x="417" y="-5" type="qcurve" smooth="yes"/>
      <point x="342" y="-5"/>
      <point x="263" y="-9" type="qcurve" smooth="yes"/>
      <point x="192" y="-12"/>
    </contour>
  </outline>
</glyph>
<glyph name="uni026F" format="1">
  <advance width="500" height="500"/>
  <unicode hex="026F"/>
  <outline>
    <contour>
      <point x="321" y="-23" type="qcurve" smooth="yes"/>
      <point x="282" y="-23"/>
      <point x="235" y="32"/>
      <point x="235" y="35" type="qcurve"/>
      <point x="234" y="35"/>
      <point x="188" y="-23"/>
      <point x="148" y="-23" type="qcurve" smooth="yes"/>
      <point x="33" y="-23"/>
      <point x="33" y="368"/>
      <point x="32" y="389" type="qcurve" smooth="yes"/>
      <point x="30" y="447"/>
      <point x="30" y="470" type="qcurve" smooth="yes"/>
      <point x="30" y="487"/>
      <point x="57" y="487" type="qcurve" smooth="yes"/>
      <point x="74" y="487"/>
      <point x="112" y="468"/>
      <point x="112" y="452" type="qcurve" smooth="yes"/>
      <point x="110" y="388"/>
      <point x="110" y="177" type="qcurve" smooth="yes"/>
      <point x="110" y="120"/>
      <point x="127" y="55"/>
      <point x="152" y="55" type="qcurve" smooth="yes"/>
      <point x="171" y="55"/>
      <point x="207" y="139"/>
      <point x="212" y="208" type="qcurve" smooth="yes"/>
      <point x="213" y="242"/>
      <point x="213" y="328" type="qcurve" smooth="yes"/>
      <point x="210" y="470" type="line" smooth="yes"/>
      <point x="210" y="487"/>
      <point x="237" y="487" type="qcurve" smooth="yes"/>
      <point x="254" y="487"/>
      <point x="291" y="468"/>
      <point x="291" y="452" type="qcurve" smooth="yes"/>
      <point x="289" y="388"/>
      <point x="289" y="177" type="qcurve" smooth="yes"/>
      <point x="289" y="55"/>
      <point x="328" y="55" type="qcurve" smooth="yes"/>
      <point x="352" y="55"/>
      <point x="371" y="116" type="qcurve" smooth="yes"/>
      <point x="391" y="171"/>
      <point x="391" y="255" type="qcurve" smooth="yes"/>
      <point x="391" y="329"/>
      <point x="388" y="470" type="qcurve" smooth="yes"/>
      <point x="388" y="487"/>
      <point x="415" y="487" type="qcurve" smooth="yes"/>
      <point x="432" y="487"/>
      <point x="470" y="468"/>
      <point x="470" y="452" type="qcurve" smooth="yes"/>
      <point x="468" y="387" type="line"/>
      <point x="468" y="101"/>
      <point x="469" y="58"/>
      <point x="471" y="9"/>
      <point x="471" y="-1" type="qcurve" smooth="yes"/>
      <point x="471" y="-18"/>
      <point x="445" y="-18" type="qcurve" smooth="yes"/>
      <point x="429" y="-18"/>
      <point x="410" y="-8" type="qcurve" smooth="yes"/>
      <point x="398" y="-2"/>
      <point x="394" y="8" type="qcurve"/>
      <point x="394" y="9" type="line" smooth="yes"/>
      <point x="394" y="12"/>
      <point x="392" y="12" type="qcurve"/>
      <point x="392" y="14"/>
      <point x="392" y="17" type="qcurve" smooth="yes"/>
      <point x="392" y="12" type="line"/>
      <point x="388" y="11"/>
      <point x="373" y="-6" type="qcurve" smooth="yes"/>
      <point x="357" y="-23"/>
    </contour>
    <contour>
      <point x="392" y="12" type="qcurve"/>
      <point x="391" y="-1" type="line"/>
      <point x="394" y="8" type="line" smooth="yes"/>
      <point x="393" y="10"/>
      <point x="392" y="12" type="qcurve"/>
      <point x="392" y="12"/>
      <point x="392" y="12" type="qcurve"/>
      <point x="392" y="12"/>
    </contour>
  </outline>
</glyph>
<glyph name="uni0283" format="1">
  <advance width="500" height="500"/>
  <unicode hex="0283"/>
  <outline>
    <contour>
      <point x="96" y="-201"/>
      <point x="64" y="-162" type="qcurve" smooth="yes"/>
      <point x="50" y="-145"/>
      <point x="50" y="-130" type="qcurve" smooth="yes"/>
      <point x="50" y="-116"/>
      <point x="73" y="-81"/>
      <point x="86" y="-81" type="qcurve" smooth="yes"/>
      <point x="98" y="-81"/>
      <point x="107" y="-95" type="qcurve" smooth="yes"/>
      <point x="125" y="-128"/>
      <point x="167" y="-128" type="qcurve" smooth="yes"/>
      <point x="184" y="-128"/>
      <point x="210" y="-101"/>
      <point x="210" y="-72" type="qcurve" smooth="yes"/>
      <point x="210" y="589" type="line" smooth="yes"/>
      <point x="210" y="668"/>
      <point x="274" y="699" type="qcurve" smooth="yes"/>
      <point x="304" y="714"/>
      <point x="372" y="714"/>
      <point x="423" y="691"/>
      <point x="450" y="659"/>
      <point x="450" y="629"/>
      <point x="427" y="594"/>
      <point x="415" y="594" type="qcurve" smooth="yes"/>
      <point x="402" y="594"/>
      <point x="393" y="608" type="qcurve" smooth="yes"/>
      <point x="375" y="641"/>
      <point x="333" y="641" type="qcurve" smooth="yes"/>
      <point x="316" y="641"/>
      <point x="290" y="615"/>
      <point x="290" y="585" type="qcurve" smooth="yes"/>
      <point x="290" y="-76" type="line" smooth="yes"/>
      <point x="290" y="-116"/>
      <point x="272" y="-144" type="qcurve" smooth="yes"/>
      <point x="236" y="-201"/>
    </contour>
  </outline>
</glyph>
<glyph name="uni0298" format="1">
  <advance width="500" height="500"/>
  <unicode hex="0298"/>
  <outline>
    <contour>
      <point x="236" y="49" type="qcurve" smooth="yes"/>
      <point x="318" y="49"/>
      <point x="362" y="143" type="qcurve" smooth="yes"/>
      <point x="382" y="188"/>
      <point x="382" y="245" type="qcurve" smooth="yes"/>
      <point x="382" y="327"/>
      <point x="327" y="420"/>
      <point x="271" y="420" type="qcurve" smooth="yes"/>
      <point x="206" y="420"/>
      <point x="116" y="285"/>
      <point x="116" y="208" type="qcurve" smooth="yes"/>
      <point x="116" y="49"/>
    </contour>
    <contour>
      <point x="236" y="-24" type="qcurve" smooth="yes"/>
      <point x="141" y="-24"/>
      <point x="37" y="102"/>
      <point x="37" y="207" type="qcurve" smooth="yes"/>
      <point x="37" y="252"/>
      <point x="63" y="339"/>
      <point x="101" y="412"/>
      <point x="141" y="460"/>
      <point x="155" y="460" type="qcurve" smooth="yes"/>
      <point x="172" y="460"/>
      <point x="173" y="458" type="qcurve"/>
      <point x="213" y="492"/>
      <point x="277" y="492" type="qcurve" smooth="yes"/>
      <point x="386" y="492"/>
      <point x="439" y="376" type="qcurve" smooth="yes"/>
      <point x="460" y="322"/>
      <point x="460" y="245" type="qcurve" smooth="yes"/>
      <point x="460" y="148"/>
      <point x="405" y="64" type="qcurve"/>
      <point x="342" y="-24"/>
    </contour>
    <contour>
      <point x="228" y="178"/>
      <point x="193" y="223"/>
      <point x="193" y="271"/>
      <point x="227" y="298"/>
      <point x="250" y="298" type="qcurve" smooth="yes"/>
      <point x="274" y="298"/>
      <point x="310" y="253"/>
      <point x="310" y="231" type="qcurve" smooth="yes"/>
      <point x="310" y="208"/>
      <point x="282" y="178"/>
    </contour>
  </outline>
</glyph>
<glyph name="uni02B9" format="1">
  <advance width="500" height="500"/>
  <unicode hex="02B9"/>
  <outline>
    <contour>
      <point x="227" y="571" type="qcurve" smooth="yes"/>
      <point x="211" y="571"/>
      <point x="178" y="589"/>
      <point x="178" y="600" type="qcurve" smooth="yes"/>
      <point x="178" y="608"/>
      <point x="180" y="610" type="qcurve" smooth="yes"/>
      <point x="245" y="809" type="line" smooth="yes"/>
      <point x="249" y="825"/>
      <point x="272" y="825" type="qcurve" smooth="yes"/>
      <point x="291" y="825"/>
      <point x="328" y="803"/>
      <point x="328" y="787" type="qcurve" smooth="yes"/>
      <point x="328" y="783"/>
      <point x="249" y="584" type="qcurve" smooth="yes"/>
      <point x="244" y="571"/>
    </contour>
  </outline>
</glyph>
<glyph name="uni02BB" format="1">
  <advance width="500" height="500"/>
  <unicode hex="02BB"/>
  <outline>
    <contour>
      <point x="261" y="720" type="qcurve"/>
      <point x="276" y="720"/>
      <point x="281" y="713" type="qcurve" smooth="yes"/>
      <point x="307" y="692"/>
      <point x="307" y="662" type="qcurve" smooth="yes"/>
      <point x="307" y="637"/>
      <point x="271" y="610"/>
      <point x="248" y="610" type="qcurve" smooth="yes"/>
      <point x="225" y="610"/>
      <point x="191" y="653"/>
      <point x="191" y="679" type="qcurve" smooth="yes"/>
      <point x="190" y="680"/>
      <point x="190" y="685" type="qcurve" smooth="yes"/>
      <point x="190" y="722"/>
      <point x="249" y="797"/>
      <point x="294" y="817" type="qcurve" smooth="yes"/>
      <point x="296" y="818" type="line" smooth="yes"/>
      <point x="297" y="819"/>
      <point x="303" y="819" type="qcurve" smooth="yes"/>
      <point x="323" y="819"/>
      <point x="323" y="799" type="qcurve" smooth="yes"/>
      <point x="323" y="789"/>
      <point x="315" y="782" type="qcurve" smooth="yes"/>
      <point x="273" y="753"/>
    </contour>
  </outline>
</glyph>
<glyph name="uni02BC" format="1">
  <advance width="500" height="500"/>
  <unicode hex="02BC"/>
  <outline>
    <contour>
      <point x="241" y="711" type="qcurve"/>
      <point x="240" y="711" type="line" smooth="yes"/>
      <point x="227" y="711"/>
      <point x="222" y="716" type="qcurve" smooth="yes"/>
      <point x="195" y="738"/>
      <point x="195" y="768" type="qcurve" smooth="yes"/>
      <point x="195" y="793"/>
      <point x="231" y="820"/>
      <point x="254" y="820" type="qcurve" smooth="yes"/>
      <point x="277" y="820"/>
      <point x="307" y="782"/>
      <point x="312" y="748" type="qcurve"/>
      <point x="312" y="709"/>
      <point x="253" y="633"/>
      <point x="208" y="613" type="qcurve"/>
      <point x="207" y="612" type="line" smooth="yes"/>
      <point x="205" y="611"/>
      <point x="199" y="611" type="qcurve" smooth="yes"/>
      <point x="179" y="611"/>
      <point x="179" y="631" type="qcurve" smooth="yes"/>
      <point x="179" y="642"/>
      <point x="188" y="648" type="qcurve" smooth="yes"/>
      <point x="233" y="678"/>
    </contour>
  </outline>
</glyph>
<glyph name="uni02BD" format="1">
  <advance width="500" height="500"/>
  <unicode hex="02BD"/>
  <outline>
    <contour>
      <point x="291" y="618" type="qcurve" smooth="yes"/>
      <point x="286" y="618"/>
      <point x="280" y="621" type="qcurve" smooth="yes"/>
      <point x="238" y="639"/>
      <point x="178" y="716"/>
      <point x="178" y="752" type="qcurve" smooth="yes"/>
      <point x="181" y="786"/>
      <point x="213" y="827"/>
      <point x="259" y="827"/>
      <point x="295" y="800"/>
      <point x="295" y="775" type="qcurve" smooth="yes"/>
      <point x="295" y="748"/>
      <point x="268" y="724" type="qcurve" smooth="yes"/>
      <point x="261" y="717"/>
      <point x="249" y="717" type="qcurve"/>
      <point x="253" y="705"/>
      <point x="268" y="686" type="qcurve" smooth="yes"/>
      <point x="284" y="667"/>
      <point x="302" y="655" type="qcurve" smooth="yes"/>
      <point x="311" y="649"/>
      <point x="311" y="638" type="qcurve" smooth="yes"/>
      <point x="311" y="618"/>
    </contour>
  </outline>
</glyph>
<glyph name="caron" format="1">
  <advance width="500" height="500"/>
  <unicode hex="02C7"/>
  <outline>
    <contour>
      <point x="251" y="563" type="qcurve" smooth="yes"/>
      <point x="219" y="563"/>
      <point x="206" y="573" type="qcurve" smooth="yes"/>
      <point x="85" y="688"/>
      <point x="85" y="713" type="qcurve" smooth="yes"/>
      <point x="85" y="735"/>
      <point x="109" y="735" type="qcurve" smooth="yes"/>
      <point x="119" y="735"/>
      <point x="151" y="708"/>
      <point x="219" y="665"/>
      <point x="251" y="644" type="qcurve"/>
      <point x="283" y="665"/>
      <point x="350" y="708"/>
      <point x="382" y="735"/>
      <point x="392" y="735" type="qcurve" smooth="yes"/>
      <point x="416" y="735"/>
      <point x="416" y="713" type="qcurve" smooth="yes"/>
      <point x="416" y="693"/>
      <point x="328" y="608" type="qcurve" smooth="yes"/>
      <point x="308" y="589"/>
      <point x="282" y="563"/>
    </contour>
  </outline>
</glyph>
<glyph name="uni02C8" format="1">
  <advance width="500" height="500"/>
  <unicode hex="02C8"/>
  <outline>
    <contour>
      <point x="250" y="522" type="qcurve" smooth="yes"/>
      <point x="226" y="522"/>
      <point x="223" y="543" type="qcurve" smooth="yes"/>
      <point x="207" y="796" type="line" smooth="yes"/>
      <point x="207" y="809"/>
      <point x="234" y="823"/>
      <point x="250" y="823" type="qcurve" smooth="yes"/>
      <point x="266" y="823"/>
      <point x="293" y="810"/>
      <point x="293" y="796" type="qcurve" smooth="yes"/>
      <point x="277" y="543" type="line" smooth="yes"/>
      <point x="274" y="522"/>
    </contour>
  </outline>
</glyph>
<glyph name="acute" format="1">
  <advance width="1000" height="1000"/>
  <unicode hex="02CA"/>
  <unicode hex="00B4"/>
  <outline>
    <contour>
      <point x="415" y="694" type="qcurve" smooth="yes"/>
      <point x="406" y="694"/>
      <point x="392" y="708"/>
      <point x="392" y="717" type="qcurve" smooth="yes"/>
      <point x="392" y="742"/>
      <point x="545" y="843" type="qcurve" smooth="yes"/>
      <point x="549" y="845"/>
      <point x="554" y="845" type="qcurve" smooth="yes"/>
      <point x="566" y="845"/>
      <point x="594" y="825"/>
      <point x="619" y="798"/>
      <point x="619" y="785" type="qcurve" smooth="yes"/>
      <point x="619" y="774"/>
      <point x="608" y="769" type="qcurve" smooth="yes"/>
      <point x="559" y="751"/>
      <point x="463" y="718"/>
      <point x="429" y="698" type="qcurve" smooth="yes"/>
      <point x="421" y="694"/>
    </contour>
  </outline>
</glyph>
<glyph name="uni02CD" format="1">
  <advance width="500" height="500"/>
  <unicode hex="02CD"/>
  <outline>
    <contour>
      <point x="365" y="-191" type="qcurve" smooth="yes"/>
      <point x="137" y="-191" type="line" smooth="yes"/>
      <point x="123" y="-191"/>
      <point x="108" y="-168"/>
      <point x="108" y="-154" type="qcurve" smooth="yes"/>
      <point x="108" y="-141"/>
      <point x="123" y="-117"/>
      <point x="138" y="-117" type="qcurve" smooth="yes"/>
      <point x="366" y="-117" type="line" smooth="yes"/>
      <point x="380" y="-117"/>
      <point x="394" y="-140"/>
      <point x="394" y="-153" type="qcurve" smooth="yes"/>
      <point x="394" y="-167"/>
      <point x="379" y="-191"/>
    </contour>
  </outline>
</glyph>
<glyph name="uni02D0" format="1">
  <advance width="500" height="500"/>
  <unicode hex="02D0"/>
  <outline>
    <contour>
      <point x="251" y="368" type="line"/>
      <point x="170" y="515" type="line"/>
      <point x="330" y="515" type="line"/>
    </contour>
    <contour>
      <point x="330" y="-9" type="line"/>
      <point x="170" y="-9" type="line"/>
      <point x="251" y="139" type="line"/>
    </contour>
  </outline>
</glyph>
<glyph name="dotaccent" format="1">
  <advance width="500" height="500"/>
  <unicode hex="02D9"/>
  <outline>
    <contour>
      <point x="252" y="584" type="qcurve" smooth="yes"/>
      <point x="228" y="584"/>
      <point x="194" y="627"/>
      <point x="194" y="650" type="qcurve" smooth="yes"/>
      <point x="194" y="672"/>
      <point x="222" y="704"/>
      <point x="247" y="704" type="qcurve" smooth="yes"/>
      <point x="271" y="704"/>
      <point x="305" y="660"/>
      <point x="305" y="638" type="qcurve" smooth="yes"/>
      <point x="305" y="615"/>
      <point x="276" y="584"/>
    </contour>
  </outline>
</glyph>
<glyph name="grave" format="1">
  <advance width="500" height="500"/>
  <unicode hex="0300"/>
  <unicode hex="02CB"/>
  <unicode hex="0060"/>
  <outline>
    <contour>
      <point x="300" y="558" type="qcurve" smooth="yes"/>
      <point x="288" y="558"/>
      <point x="279" y="567" type="qcurve" smooth="yes"/>
      <point x="159" y="670" type="line" smooth="yes"/>
      <point x="149" y="679"/>
      <point x="149" y="692" type="qcurve" smooth="yes"/>
      <point x="149" y="709"/>
      <point x="183" y="738"/>
      <point x="201" y="738" type="qcurve" smooth="yes"/>
      <point x="218" y="738"/>
      <point x="227" y="727" type="qcurve" smooth="yes"/>
      <point x="330" y="621" type="line" smooth="yes"/>
      <point x="339" y="614"/>
      <point x="339" y="600" type="qcurve" smooth="yes"/>
      <point x="339" y="585"/>
      <point x="316" y="558"/>
    </contour>
  </outline>
</glyph>
<glyph name="acutecomb" format="1">
  <advance width="0" height="0"/>
  <unicode hex="0301"/>
  <outline>
    <contour>
      <point x="169" y="568" type="qcurve" smooth="yes"/>
      <point x="161" y="568"/>
      <point x="147" y="582"/>
      <point x="147" y="591" type="qcurve" smooth="yes"/>
      <point x="147" y="599"/>
      <point x="187" y="642"/>
      <point x="300" y="717" type="qcurve" smooth="yes"/>
      <point x="304" y="719"/>
      <point x="312" y="719" type="qcurve" smooth="yes"/>
      <point x="321" y="719"/>
      <point x="335" y="709" type="qcurve" smooth="yes"/>
      <point x="374" y="682"/>
      <point x="374" y="659" type="qcurve" smooth="yes"/>
      <point x="374" y="648"/>
      <point x="363" y="643" type="qcurve" smooth="yes"/>
      <point x="314" y="625"/>
      <point x="218" y="592"/>
      <point x="177" y="568"/>
    </contour>
  </outline>
</glyph>
<glyph name="macron" format="1">
  <advance width="500" height="500"/>
  <unicode hex="0304"/>
  <unicode hex="02C9"/>
  <unicode hex="00AF"/>
  <outline>
    <contour>
      <point x="471" y="773" type="qcurve" smooth="yes"/>
      <point x="30" y="773" type="line" smooth="yes"/>
      <point x="4" y="773"/>
      <point x="4" y="810" type="qcurve" smooth="yes"/>
      <point x="4" y="846"/>
      <point x="30" y="846" type="qcurve" smooth="yes"/>
      <point x="471" y="846" type="line" smooth="yes"/>
      <point x="497" y="846"/>
      <point x="497" y="810" type="qcurve" smooth="yes"/>
      <point x="497" y="773"/>
    </contour>
  </outline>
</glyph>
<glyph name="uni0306" format="1">
  <advance width="0" height="0"/>
  <unicode hex="0306"/>
  <outline>
    <contour>
      <point x="250" y="572" type="qcurve" smooth="yes"/>
      <point x="180" y="572"/>
      <point x="131" y="618" type="qcurve" smooth="yes"/>
      <point x="91" y="653"/>
      <point x="91" y="676" type="qcurve" smooth="yes"/>
      <point x="91" y="687"/>
      <point x="122" y="713"/>
      <point x="138" y="713" type="qcurve" smooth="yes"/>
      <point x="155" y="713"/>
      <point x="161" y="699" type="qcurve" smooth="yes"/>
      <point x="192" y="644"/>
      <point x="253" y="644" type="qcurve" smooth="yes"/>
      <point x="313" y="644"/>
      <point x="343" y="699" type="qcurve" smooth="yes"/>
      <point x="350" y="714"/>
      <point x="368" y="714" type="qcurve" smooth="yes"/>
      <point x="383" y="714"/>
      <point x="412" y="688"/>
      <point x="412" y="675" type="qcurve" smooth="yes"/>
      <point x="412" y="652"/>
      <point x="370" y="614" type="qcurve" smooth="yes"/>
      <point x="320" y="572"/>
    </contour>
  </outline>
</glyph>
<glyph name="uni0307" format="1">
  <advance width="0" height="0"/>
  <unicode hex="0307"/>
  <outline>
    <contour>
      <point x="254" y="586" type="qcurve" smooth="yes"/>
      <point x="230" y="586"/>
      <point x="193" y="631"/>
      <point x="193" y="654" type="qcurve" smooth="yes"/>
      <point x="193" y="677"/>
      <point x="220" y="707"/>
      <point x="244" y="707" type="qcurve" smooth="yes"/>
      <point x="268" y="707"/>
      <point x="306" y="664"/>
      <point x="306" y="640" type="qcurve" smooth="yes"/>
      <point x="306" y="616"/>
      <point x="278" y="586"/>
    </contour>
  </outline>
</glyph>
<glyph name="uni0308" format="1">
  <advance width="0" height="0"/>
  <unicode hex="0308"/>
  <outline>
    <contour>
      <point x="347" y="586" type="qcurve" smooth="yes"/>
      <point x="323" y="586"/>
      <point x="286" y="631"/>
      <point x="286" y="654" type="qcurve" smooth="yes"/>
      <point x="286" y="677"/>
      <point x="313" y="707"/>
      <point x="337" y="707" type="qcurve" smooth="yes"/>
      <point x="361" y="707"/>
      <point x="399" y="664"/>
      <point x="399" y="640" type="qcurve" smooth="yes"/>
      <point x="399" y="616"/>
      <point x="371" y="586"/>
    </contour>
    <contour>
      <point x="164" y="586" type="qcurve" smooth="yes"/>
      <point x="140" y="586"/>
      <point x="103" y="631"/>
      <point x="103" y="654" type="qcurve" smooth="yes"/>
      <point x="103" y="677"/>
      <point x="130" y="707"/>
      <point x="154" y="707" type="qcurve" smooth="yes"/>
      <point x="178" y="707"/>
      <point x="216" y="664"/>
      <point x="216" y="640" type="qcurve" smooth="yes"/>
      <point x="216" y="616"/>
      <point x="188" y="586"/>
    </contour>
  </outline>
</glyph>
<glyph name="uni030B" format="1">
  <advance width="0" height="0"/>
  <unicode hex="030B"/>
  <outline>
    <contour>
      <point x="102" y="562" type="qcurve" smooth="yes"/>
      <point x="80" y="562"/>
      <point x="80" y="583" type="qcurve" smooth="yes"/>
      <point x="80" y="601"/>
      <point x="206" y="715"/>
      <point x="215" y="721"/>
      <point x="226" y="721" type="qcurve" smooth="yes"/>
      <point x="236" y="721"/>
      <point x="265" y="705"/>
      <point x="288" y="681"/>
      <point x="288" y="671" type="qcurve" smooth="yes"/>
      <point x="288" y="659"/>
      <point x="277" y="655" type="qcurve" smooth="yes"/>
      <point x="172" y="605"/>
      <point x="118" y="567" type="qcurve" smooth="yes"/>
      <point x="111" y="562"/>
    </contour>
    <contour>
      <point x="252" y="561" type="qcurve" smooth="yes"/>
      <point x="230" y="561"/>
      <point x="230" y="584" type="qcurve" smooth="yes"/>
      <point x="230" y="603"/>
      <point x="360" y="716" type="qcurve" smooth="yes"/>
      <point x="365" y="721"/>
      <point x="375" y="721" type="qcurve" smooth="yes"/>
      <point x="385" y="721"/>
      <point x="415" y="704"/>
      <point x="438" y="679"/>
      <point x="438" y="669" type="qcurve" smooth="yes"/>
      <point x="438" y="657"/>
      <point x="428" y="653" type="qcurve" smooth="yes"/>
      <point x="306" y="592"/>
      <point x="261" y="561"/>
    </contour>
  </outline>
</glyph>
<glyph name="cedilla" format="1">
  <advance width="500" height="500"/>
  <unicode hex="0327"/>
  <unicode hex="00B8"/>
  <outline>
    <contour>
      <point x="254" y="-186" type="qcurve" smooth="yes"/>
      <point x="208" y="-186"/>
      <point x="162" y="-163" type="qcurve" smooth="yes"/>
      <point x="149" y="-155"/>
      <point x="149" y="-134" type="qcurve" smooth="yes"/>
      <point x="149" y="-120"/>
      <point x="161" y="-91"/>
      <point x="172" y="-91" type="qcurve" smooth="yes"/>
      <point x="181" y="-91"/>
      <point x="183" y="-95" type="qcurve" smooth="yes"/>
      <point x="201" y="-108"/>
      <point x="230" y="-119"/>
      <point x="254" y="-119" type="qcurve" smooth="yes"/>
      <point x="274" y="-119"/>
      <point x="291" y="-110"/>
      <point x="291" y="-97" type="qcurve" smooth="yes"/>
      <point x="291" y="-78"/>
      <point x="260" y="-78" type="qcurve" smooth="yes"/>
      <point x="248" y="-78"/>
      <point x="224" y="-82" type="qcurve" smooth="yes"/>
      <point x="206" y="-82"/>
      <point x="183" y="-61"/>
      <point x="183" y="-45" type="qcurve" smooth="yes"/>
      <point x="183" y="-40"/>
      <point x="185" y="-35"/>
      <point x="185" y="-34" type="qcurve" smooth="yes"/>
      <point x="197" y="-3"/>
      <point x="207" y="29" type="qcurve"/>
      <point x="285" y="23" type="line"/>
      <point x="272" y="-15" type="line" smooth="yes"/>
      <point x="269" y="-17"/>
      <point x="269" y="-18" type="qcurve" smooth="yes"/>
      <point x="269" y="-20"/>
      <point x="282" y="-20" type="qcurve" smooth="yes"/>
      <point x="366" y="-20"/>
      <point x="366" y="-97" type="qcurve"/>
      <point x="361" y="-186"/>
    </contour>
  </outline>
</glyph>
<glyph name="underscore" format="1">
  <advance width="500" height="500"/>
  <unicode hex="0332"/>
  <unicode hex="005F"/>
  <outline>
    <contour>
      <point x="471" y="-168" type="qcurve" smooth="yes"/>
      <point x="30" y="-168" type="line" smooth="yes"/>
      <point x="4" y="-168"/>
      <point x="4" y="-132" type="qcurve" smooth="yes"/>
      <point x="4" y="-95"/>
      <point x="30" y="-95" type="qcurve" smooth="yes"/>
      <point x="471" y="-95" type="line" smooth="yes"/>
      <point x="497" y="-95"/>
      <point x="497" y="-132" type="qcurve" smooth="yes"/>
      <point x="497" y="-168"/>
    </contour>
  </outline>
</glyph>
<glyph name="tonos" format="1">
  <advance width="500" height="500"/>
  <unicode hex="0384"/>
  <outline>
    <contour>
      <point x="237" y="561" type="qcurve" smooth="yes"/>
      <point x="221" y="561"/>
      <point x="188" y="579"/>
      <point x="188" y="590" type="qcurve" smooth="yes"/>
      <point x="188" y="598"/>
      <point x="190" y="600" type="qcurve" smooth="yes"/>
      <point x="239" y="754" type="line" smooth="yes"/>
      <point x="243" y="770"/>
      <point x="266" y="770" type="qcurve" smooth="yes"/>
      <point x="285" y="770"/>
      <point x="322" y="748"/>
      <point x="322" y="732" type="qcurve" smooth="yes"/>
      <point x="322" y="728"/>
      <point x="259" y="574" type="qcurve" smooth="yes"/>
      <point x="254" y="561"/>
    </contour>
  </outline>
</glyph>
<glyph name="anoteleia" format="1">
  <advance width="500" height="500"/>
  <unicode hex="0387"/>
  <outline>
    <contour>
      <point x="261" y="394" type="qcurve" smooth="yes"/>
      <point x="233" y="394"/>
      <point x="192" y="447"/>
      <point x="192" y="472" type="qcurve" smooth="yes"/>
      <point x="192" y="504"/>
      <point x="232" y="536"/>
      <point x="261" y="536" type="qcurve" smooth="yes"/>
      <point x="287" y="536"/>
      <point x="330" y="483"/>
      <point x="330" y="455" type="qcurve" smooth="yes"/>
      <point x="330" y="394"/>
    </contour>
  </outline>
</glyph>
<glyph name="uni03DB" format="1">
  <advance width="500" height="500"/>
  <unicode hex="03DB"/>
  <outline>
    <contour>
      <point x="230" y="-8" type="qcurve" smooth="yes"/>
      <point x="156" y="-8"/>
      <point x="144" y="22" type="qcurve" smooth="yes"/>
      <point x="140" y="35"/>
      <point x="140" y="56" type="qcurve" smooth="yes"/>
      <point x="140" y="82"/>
      <point x="160" y="82" type="qcurve"/>
      <point x="178" y="78"/>
      <point x="206" y="66"/>
      <point x="230" y="66" type="qcurve" smooth="yes"/>
      <point x="253" y="66"/>
      <point x="263" y="73"/>
      <point x="263" y="79" type="qcurve" smooth="yes"/>
      <point x="263" y="86"/>
      <point x="246" y="109"/>
      <point x="197" y="134"/>
      <point x="170" y="147" type="qcurve" smooth="yes"/>
      <point x="98" y="183"/>
      <point x="67" y="233" type="qcurve" smooth="yes"/>
      <point x="49" y="262"/>
      <point x="49" y="307" type="qcurve" smooth="yes"/>
      <point x="49" y="351"/>
      <point x="92" y="419"/>
      <point x="155" y="463"/>
      <point x="229" y="485"/>
      <point x="303" y="485" type="qcurve" smooth="yes"/>
      <point x="376" y="485"/>
      <point x="435" y="476"/>
      <point x="442" y="450"/>
      <point x="442" y="434" type="qcurve" smooth="yes"/>
      <point x="442" y="417"/>
      <point x="420" y="391"/>
      <point x="401" y="390" type="qcurve" smooth="yes"/>
      <point x="284" y="395" type="line"/>
      <point x="121" y="395"/>
      <point x="121" y="296" type="qcurve" smooth="yes"/>
      <point x="121" y="262"/>
      <point x="161" y="223"/>
      <point x="223" y="192"/>
      <point x="286" y="160"/>
      <point x="330" y="113"/>
      <point x="330" y="84" type="qcurve" smooth="yes"/>
      <point x="330" y="56"/>
      <point x="322" y="37" type="qcurve" smooth="yes"/>
      <point x="303" y="-8"/>
    </contour>
  </outline>
</glyph>
<glyph name="uni0408" format="1">
  <advance width="500" height="500"/>
  <unicode hex="0408"/>
  <outline>
    <contour>
      <point x="239" y="-23" type="qcurve" smooth="yes"/>
      <point x="189" y="-23"/>
      <point x="118" y="15"/>
      <point x="77" y="68"/>
      <point x="56" y="115"/>
      <point x="56" y="122" type="qcurve" smooth="yes"/>
      <point x="56" y="136"/>
      <point x="74" y="161"/>
      <point x="100" y="179"/>
      <point x="112" y="179" type="qcurve" smooth="yes"/>
      <point x="130" y="179"/>
      <point x="133" y="162" type="qcurve" smooth="yes"/>
      <point x="151" y="86"/>
      <point x="187" y="69" type="qcurve" smooth="yes"/>
      <point x="213" y="55"/>
      <point x="235" y="55" type="qcurve" smooth="yes"/>
      <point x="323" y="55"/>
      <point x="323" y="180" type="qcurve" smooth="yes"/>
      <point x="323" y="623"/>
      <point x="321" y="695" type="qcurve" smooth="yes"/>
      <point x="321" y="711"/>
      <point x="349" y="711" type="qcurve" smooth="yes"/>
      <point x="366" y="711"/>
      <point x="407" y="693"/>
      <point x="407" y="677" type="qcurve" smooth="yes"/>
      <point x="407" y="665"/>
      <point x="405" y="614"/>
      <point x="405" y="177" type="qcurve" smooth="yes"/>
      <point x="405" y="-23"/>
    </contour>
  </outline>
</glyph>
<glyph name="uni1F70" format="1">
  <advance width="500" height="500"/>
  <unicode hex="1F70"/>
  <outline>
    <contour>
      <point x="226" y="52" type="qcurve" smooth="yes"/>
      <point x="275" y="52"/>
      <point x="339" y="136"/>
      <point x="343" y="221" type="qcurve" smooth="yes"/>
      <point x="347" y="366" type="line" smooth="yes"/>
      <point x="350" y="369"/>
      <point x="350" y="371" type="qcurve" smooth="yes"/>
      <point x="350" y="374"/>
      <point x="343" y="374" type="qcurve" smooth="yes"/>
      <point x="332" y="374"/>
      <point x="324" y="381" type="qcurve" smooth="yes"/>
      <point x="304" y="409"/>
      <point x="270" y="419"/>
      <point x="240" y="419" type="qcurve" smooth="yes"/>
      <point x="212" y="419"/>
      <point x="152" y="379"/>
      <point x="108" y="295"/>
      <point x="108" y="236" type="qcurve" smooth="yes"/>
      <point x="108" y="52"/>
    </contour>
    <contour>
      <point x="329" y="568" type="qcurve" smooth="yes"/>
      <point x="321" y="568"/>
      <point x="284" y="593"/>
      <point x="198" y="625"/>
      <point x="152" y="644" type="qcurve" smooth="yes"/>
      <point x="142" y="650"/>
      <point x="142" y="660" type="qcurve" smooth="yes"/>
      <point x="142" y="670"/>
      <point x="164" y="697"/>
      <point x="192" y="719"/>
      <point x="202" y="719" type="qcurve" smooth="yes"/>
      <point x="210" y="719"/>
      <point x="216" y="716" type="qcurve" smooth="yes"/>
      <point x="354" y="615"/>
      <point x="354" y="591" type="qcurve" smooth="yes"/>
      <point x="354" y="568"/>
    </contour>
    <contour>
      <point x="227" y="-24" type="qcurve" smooth="yes"/>
      <point x="154" y="-24"/>
      <point x="109" y="12" type="qcurve" smooth="yes"/>
      <point x="28" y="79"/>
      <point x="28" y="224" type="qcurve" smooth="yes"/>
      <point x="28" y="305"/>
      <point x="85" y="426"/>
      <point x="181" y="492"/>
      <point x="237" y="492" type="qcurve" smooth="yes"/>
      <point x="323" y="492"/>
      <point x="349" y="451" type="qcurve"/>
      <point x="349" y="477" type="line" smooth="yes"/>
      <point x="349" y="491"/>
      <point x="374" y="491" type="qcurve" smooth="yes"/>
      <point x="395" y="491"/>
      <point x="436" y="474"/>
      <point x="436" y="458" type="qcurve" smooth="yes"/>
      <point x="436" y="454"/>
      <point x="425" y="336"/>
      <point x="425" y="122" type="qcurve" smooth="yes"/>
      <point x="425" y="52"/>
      <point x="444" y="52" type="qcurve" smooth="yes"/>
      <point x="451" y="52"/>
      <point x="472" y="87"/>
      <point x="487" y="87" type="qcurve" smooth="yes"/>
      <point x="509" y="87"/>
      <point x="509" y="66" type="qcurve" smooth="yes"/>
      <point x="509" y="51"/>
      <point x="489" y="11"/>
      <point x="450" y="-20"/>
      <point x="425" y="-20" type="qcurve" smooth="yes"/>
      <point x="398" y="-20"/>
      <point x="359" y="26"/>
      <point x="359" y="33" type="qcurve" smooth="yes"/>
      <point x="361" y="39"/>
      <point x="361" y="42" type="qcurve" smooth="yes"/>
      <point x="361" y="45"/>
      <point x="360" y="45" type="qcurve" smooth="yes"/>
      <point x="357" y="45"/>
      <point x="348" y="33" type="qcurve" smooth="yes"/>
      <point x="301" y="-24"/>
    </contour>
  </outline>
</glyph>
<glyph name="uni1F71" format="1">
  <advance width="500" height="500"/>
  <unicode hex="1F71"/>
  <outline>
    <contour>
      <point x="226" y="52" type="qcurve" smooth="yes"/>
      <point x="275" y="52"/>
      <point x="339" y="136"/>
      <point x="343" y="221" type="qcurve" smooth="yes"/>
      <point x="347" y="366" type="line" smooth="yes"/>
      <point x="350" y="369"/>
      <point x="350" y="371" type="qcurve" smooth="yes"/>
      <point x="350" y="374"/>
      <point x="343" y="374" type="qcurve" smooth="yes"/>
      <point x="332" y="374"/>
      <point x="324" y="381" type="qcurve" smooth="yes"/>
      <point x="304" y="409"/>
      <point x="270" y="419"/>
      <point x="240" y="419" type="qcurve" smooth="yes"/>
      <point x="212" y="419"/>
      <point x="152" y="379"/>
      <point x="108" y="295"/>
      <point x="108" y="236" type="qcurve" smooth="yes"/>
      <point x="108" y="52"/>
    </contour>
    <contour>
      <point x="181" y="568" type="qcurve" smooth="yes"/>
      <point x="170" y="568"/>
      <point x="158" y="583"/>
      <point x="158" y="591" type="qcurve" smooth="yes"/>
      <point x="158" y="614"/>
      <point x="296" y="716" type="qcurve" smooth="yes"/>
      <point x="300" y="719"/>
      <point x="310" y="719" type="qcurve" smooth="yes"/>
      <point x="320" y="719"/>
      <point x="336" y="708" type="qcurve" smooth="yes"/>
      <point x="369" y="681"/>
      <point x="369" y="659" type="qcurve" smooth="yes"/>
      <point x="369" y="650"/>
      <point x="359" y="644" type="qcurve" smooth="yes"/>
      <point x="314" y="625"/>
      <point x="228" y="593"/>
      <point x="190" y="568"/>
    </contour>
    <contour>
      <point x="227" y="-24" type="qcurve" smooth="yes"/>
      <point x="154" y="-24"/>
      <point x="109" y="12" type="qcurve" smooth="yes"/>
      <point x="28" y="79"/>
      <point x="28" y="224" type="qcurve" smooth="yes"/>
      <point x="28" y="305"/>
      <point x="85" y="426"/>
      <point x="181" y="492"/>
      <point x="237" y="492" type="qcurve" smooth="yes"/>
      <point x="323" y="492"/>
      <point x="349" y="451" type="qcurve"/>
      <point x="349" y="477" type="line" smooth="yes"/>
      <point x="349" y="491"/>
      <point x="374" y="491" type="qcurve" smooth="yes"/>
      <point x="395" y="491"/>
      <point x="436" y="474"/>
      <point x="436" y="458" type="qcurve" smooth="yes"/>
      <point x="436" y="454"/>
      <point x="425" y="336"/>
      <point x="425" y="122" type="qcurve" smooth="yes"/>
      <point x="425" y="52"/>
      <point x="444" y="52" type="qcurve" smooth="yes"/>
      <point x="451" y="52"/>
      <point x="472" y="87"/>
      <point x="487" y="87" type="qcurve" smooth="yes"/>
      <point x="509" y="87"/>
      <point x="509" y="66" type="qcurve" smooth="yes"/>
      <point x="509" y="51"/>
      <point x="489" y="11"/>
      <point x="450" y="-20"/>
      <point x="425" y="-20" type="qcurve" smooth="yes"/>
      <point x="398" y="-20"/>
      <point x="359" y="26"/>
      <point x="359" y="33" type="qcurve" smooth="yes"/>
      <point x="361" y="39"/>
      <point x="361" y="42" type="qcurve" smooth="yes"/>
      <point x="361" y="45"/>
      <point x="360" y="45" type="qcurve" smooth="yes"/>
      <point x="357" y="45"/>
      <point x="348" y="33" type="qcurve" smooth="yes"/>
      <point x="301" y="-24"/>
    </contour>
  </outline>
</glyph>
<glyph name="uni2015" format="1">
  <advance width="1000" height="1000"/>
  <unicode hex="2015"/>
  <outline>
    <contour>
      <point x="995" y="343" type="qcurve" smooth="yes"/>
      <point x="5" y="343" type="line" smooth="yes"/>
      <point x="-9" y="343"/>
      <point x="-24" y="366"/>
      <point x="-24" y="380" type="qcurve" smooth="yes"/>
      <point x="-24" y="393"/>
      <point x="-9" y="416"/>
      <point x="5" y="416" type="qcurve" smooth="yes"/>
      <point x="995" y="416" type="line" smooth="yes"/>
      <point x="1009" y="416"/>
      <point x="1024" y="393"/>
      <point x="1024" y="380" type="qcurve" smooth="yes"/>
      <point x="1024" y="366"/>
      <point x="1009" y="343"/>
    </contour>
  </outline>
</glyph>
<glyph name="uni2016" format="1">
  <advance width="1000" height="1000"/>
  <unicode hex="2016"/>
  <outline>
    <contour>
      <point x="411" y="-140" type="qcurve" smooth="yes"/>
      <point x="376" y="-140"/>
      <point x="376" y="-115" type="qcurve" smooth="yes"/>
      <point x="376" y="875" type="line" smooth="yes"/>
      <point x="376" y="900"/>
      <point x="411" y="900" type="qcurve" smooth="yes"/>
      <point x="445" y="900"/>
      <point x="445" y="875" type="qcurve" smooth="yes"/>
      <point x="445" y="-115" type="line" smooth="yes"/>
      <point x="445" y="-140"/>
    </contour>
    <contour>
      <point x="590" y="-140" type="qcurve" smooth="yes"/>
      <point x="555" y="-140"/>
      <point x="555" y="-115" type="qcurve" smooth="yes"/>
      <point x="555" y="875" type="line" smooth="yes"/>
      <point x="555" y="900"/>
      <point x="590" y="900" type="qcurve" smooth="yes"/>
      <point x="624" y="900"/>
      <point x="624" y="875" type="qcurve" smooth="yes"/>
      <point x="624" y="-115" type="line" smooth="yes"/>
      <point x="624" y="-140"/>
    </contour>
  </outline>
</glyph>
<glyph name="bullet" format="1">
  <advance width="500" height="500"/>
  <unicode hex="2022"/>
  <outline>
    <contour>
      <point x="367" y="339"/>
      <point x="367" y="274"/>
      <point x="351" y="247" type="qcurve" smooth="yes"/>
      <point x="316" y="189"/>
      <point x="250" y="189" type="qcurve" smooth="yes"/>
      <point x="218" y="189"/>
      <point x="165" y="221"/>
      <point x="133" y="274"/>
      <point x="133" y="339"/>
      <point x="165" y="391"/>
      <point x="218" y="423"/>
      <point x="283" y="423"/>
      <point x="335" y="391"/>
    </contour>
  </outline>
</glyph>
<glyph name="uni2027" format="1">
  <advance width="1000" height="1000"/>
  <unicode hex="2027"/>
  <outline>
    <contour>
      <point x="519" y="312"/>
      <point x="471" y="312"/>
      <point x="433" y="359"/>
      <point x="433" y="413"/>
      <point x="470" y="448"/>
      <point x="520" y="448"/>
      <point x="560" y="401"/>
      <point x="560" y="349"/>
    </contour>
  </outline>
</glyph>
<glyph name="perthousand" format="1">
  <advance width="1000" height="1000"/>
  <unicode hex="2030"/>
  <outline>
    <contour>
      <point x="494" y="43" type="qcurve" smooth="yes"/>
      <point x="556" y="43"/>
      <point x="556" y="148" type="qcurve" smooth="yes"/>
      <point x="556" y="191"/>
      <point x="550" y="217" type="qcurve" smooth="yes"/>
      <point x="539" y="273"/>
      <point x="489" y="273" type="qcurve" smooth="yes"/>
      <point x="463" y="273"/>
      <point x="417" y="218"/>
      <point x="417" y="152" type="qcurve" smooth="yes"/>
      <point x="417" y="85"/>
      <point x="441" y="58" type="qcurve" smooth="yes"/>
      <point x="456" y="43"/>
    </contour>
    <contour>
      <point x="814" y="43" type="qcurve" smooth="yes"/>
      <point x="876" y="43"/>
      <point x="876" y="148" type="qcurve" smooth="yes"/>
      <point x="876" y="191"/>
      <point x="870" y="217" type="qcurve" smooth="yes"/>
      <point x="859" y="273"/>
      <point x="809" y="273" type="qcurve" smooth="yes"/>
      <point x="783" y="273"/>
      <point x="737" y="218"/>
      <point x="737" y="152" type="qcurve" smooth="yes"/>
      <point x="737" y="85"/>
      <point x="761" y="58" type="qcurve" smooth="yes"/>
      <point x="776" y="43"/>
    </contour>
    <contour>
      <point x="489" y="-23" type="qcurve" smooth="yes"/>
      <point x="414" y="-23"/>
      <point x="344" y="77"/>
      <point x="344" y="241"/>
      <point x="382" y="291" type="qcurve" smooth="yes"/>
      <point x="398" y="311"/>
      <point x="408" y="311" type="qcurve" smooth="yes"/>
      <point x="416" y="311"/>
      <point x="420" y="308" type="qcurve"/>
      <point x="449" y="339"/>
      <point x="494" y="339" type="qcurve" smooth="yes"/>
      <point x="537" y="339"/>
      <point x="568" y="315" type="qcurve" smooth="yes"/>
      <point x="629" y="265"/>
      <point x="629" y="158" type="qcurve" smooth="yes"/>
      <point x="629" y="50"/>
      <point x="568" y="1" type="qcurve" smooth="yes"/>
      <point x="537" y="-23"/>
    </contour>
    <contour>
      <point x="809" y="-23" type="qcurve" smooth="yes"/>
      <point x="734" y="-23"/>
      <point x="664" y="77"/>
      <point x="664" y="241"/>
      <point x="702" y="291" type="qcurve" smooth="yes"/>
      <point x="718" y="311"/>
      <point x="728" y="311" type="qcurve" smooth="yes"/>
      <point x="736" y="311"/>
      <point x="740" y="308" type="qcurve"/>
      <point x="769" y="339"/>
      <point x="814" y="339" type="qcurve" smooth="yes"/>
      <point x="857" y="339"/>
      <point x="888" y="315" type="qcurve" smooth="yes"/>
      <point x="949" y="265"/>
      <point x="949" y="158" type="qcurve" smooth="yes"/>
      <point x="949" y="50"/>
      <point x="888" y="1" type="qcurve" smooth="yes"/>
      <point x="857" y="-23"/>
    </contour>
    <contour>
      <point x="209" y="436" type="qcurve" smooth="yes"/>
      <point x="271" y="436"/>
      <point x="271" y="541" type="qcurve" smooth="yes"/>
      <point x="271" y="584"/>
      <point x="266" y="611" type="qcurve" smooth="yes"/>
      <point x="254" y="666"/>
      <point x="204" y="666" type="qcurve" smooth="yes"/>
      <point x="178" y="666"/>
      <point x="132" y="611"/>
      <point x="132" y="545" type="qcurve" smooth="yes"/>
      <point x="132" y="478"/>
      <point x="156" y="452" type="qcurve" smooth="yes"/>
      <point x="171" y="436"/>
    </contour>
    <contour>
      <point x="204" y="370" type="qcurve" smooth="yes"/>
      <point x="129" y="370"/>
      <point x="59" y="470"/>
      <point x="59" y="634"/>
      <point x="97" y="684" type="qcurve" smooth="yes"/>
      <point x="113" y="704"/>
      <point x="123" y="704" type="qcurve" smooth="yes"/>
      <point x="131" y="704"/>
      <point x="135" y="701" type="qcurve"/>
      <point x="164" y="732"/>
      <point x="209" y="732" type="qcurve" smooth="yes"/>
      <point x="252" y="732"/>
      <point x="283" y="707" type="qcurve" smooth="yes"/>
      <point x="344" y="658"/>
      <point x="344" y="551" type="qcurve" smooth="yes"/>
      <point x="344" y="443"/>
      <point x="284" y="395" type="qcurve" smooth="yes"/>
      <point x="252" y="370"/>
    </contour>
    <contour>
      <point x="119" y="-27" type="qcurve" smooth="yes"/>
      <point x="105" y="-27"/>
      <point x="64" y="-3"/>
      <point x="64" y="10" type="qcurve" smooth="yes"/>
      <point x="64" y="14"/>
      <point x="103" y="62"/>
      <point x="121" y="86" type="qcurve" smooth="yes"/>
      <point x="499" y="661" type="line" smooth="yes"/>
      <point x="529" y="709"/>
      <point x="536" y="725" type="qcurve" smooth="yes"/>
      <point x="540" y="734"/>
      <point x="556" y="734" type="qcurve" smooth="yes"/>
      <point x="569" y="734"/>
      <point x="606" y="709"/>
      <point x="606" y="694" type="qcurve" smooth="yes"/>
      <point x="606" y="689"/>
      <point x="594" y="673"/>
      <point x="571" y="638"/>
      <point x="565" y="629" type="qcurve" smooth="yes"/>
      <point x="170" y="32"/>
      <point x="143" y="-13" type="qcurve" smooth="yes"/>
      <point x="134" y="-27"/>
    </contour>
  </outline>
</glyph>
<glyph name="exclamdbl" format="1">
  <advance width="1000" height="1000"/>
  <unicode hex="203C"/>
  <outline>
    <contour>
      <point x="344" y="-15" type="qcurve" smooth="yes"/>
      <point x="317" y="-15"/>
      <point x="282" y="27"/>
      <point x="282" y="51" type="qcurve" smooth="yes"/>
      <point x="282" y="74"/>
      <point x="311" y="107"/>
      <point x="363" y="107"/>
      <point x="399" y="62"/>
      <point x="399" y="39" type="qcurve" smooth="yes"/>
      <point x="399" y="-15"/>
    </contour>
    <contour>
      <point x="675" y="-15" type="qcurve" smooth="yes"/>
      <point x="648" y="-15"/>
      <point x="613" y="27"/>
      <point x="613" y="51" type="qcurve" smooth="yes"/>
      <point x="613" y="74"/>
      <point x="642" y="107"/>
      <point x="694" y="107"/>
      <point x="730" y="62"/>
      <point x="730" y="39" type="qcurve" smooth="yes"/>
      <point x="730" y="-15"/>
    </contour>
    <contour>
      <point x="355" y="159" type="qcurve" smooth="yes"/>
      <point x="339" y="159"/>
      <point x="305" y="173"/>
      <point x="305" y="188" type="qcurve" smooth="yes"/>
      <point x="307" y="204"/>
      <point x="307" y="227" type="qcurve" smooth="yes"/>
      <point x="300" y="668"/>
      <point x="296" y="694" type="qcurve" smooth="yes"/>
      <point x="296" y="718"/>
      <point x="324" y="718" type="qcurve" smooth="yes"/>
      <point x="347" y="718"/>
      <point x="393" y="698"/>
      <point x="393" y="680" type="qcurve" smooth="yes"/>
      <point x="392" y="663"/>
      <point x="388" y="631"/>
      <point x="387" y="609" type="qcurve" smooth="yes"/>
      <point x="375" y="223"/>
      <point x="375" y="173" type="qcurve" smooth="yes"/>
      <point x="375" y="159"/>
    </contour>
    <contour>
      <point x="686" y="159" type="qcurve" smooth="yes"/>
      <point x="670" y="159"/>
      <point x="636" y="173"/>
      <point x="636" y="188" type="qcurve" smooth="yes"/>
      <point x="638" y="204"/>
      <point x="638" y="227" type="qcurve" smooth="yes"/>
      <point x="631" y="668"/>
      <point x="627" y="694" type="qcurve" smooth="yes"/>
      <point x="627" y="718"/>
      <point x="655" y="718" type="qcurve" smooth="yes"/>
      <point x="678" y="718"/>
      <point x="724" y="698"/>
      <point x="724" y="680" type="qcurve" smooth="yes"/>
      <point x="723" y="663"/>
      <point x="719" y="631"/>
      <point x="718" y="609" type="qcurve" smooth="yes"/>
      <point x="706" y="223"/>
      <point x="706" y="173" type="qcurve" smooth="yes"/>
      <point x="706" y="159"/>
    </contour>
  </outline>
</glyph>
<glyph name="uni203D" format="1">
  <advance width="1000" height="1000"/>
  <unicode hex="203D"/>
  <outline>
    <contour>
      <point x="526" y="378" type="line"/>
      <point x="583" y="427" type="line" smooth="yes"/>
      <point x="643" y="480"/>
      <point x="643" y="552"/>
      <point x="600" y="598"/>
      <point x="553" y="598" type="qcurve" smooth="yes"/>
      <point x="540" y="598"/>
      <point x="534" y="597" type="qcurve"/>
    </contour>
    <contour>
      <point x="499" y="-15" type="qcurve" smooth="yes"/>
      <point x="472" y="-15"/>
      <point x="437" y="27"/>
      <point x="437" y="74"/>
      <point x="466" y="107"/>
      <point x="518" y="107"/>
      <point x="554" y="62"/>
      <point x="554" y="39" type="qcurve" smooth="yes"/>
      <point x="554" y="-15"/>
    </contour>
    <contour>
      <point x="536" y="185" type="qcurve"/>
      <point x="536" y="162"/>
      <point x="461" y="162"/>
      <point x="447" y="200"/>
      <point x="447" y="254"/>
      <point x="455" y="278" type="qcurve"/>
      <point x="450" y="573" type="line"/>
      <point x="382" y="540"/>
      <point x="361" y="467" type="qcurve" smooth="yes"/>
      <point x="355" y="450"/>
      <point x="320" y="450"/>
      <point x="284" y="480"/>
      <point x="284" y="506"/>
      <point x="287" y="510" type="qcurve" smooth="yes"/>
      <point x="349" y="620"/>
      <point x="449" y="653" type="qcurve"/>
      <point x="449" y="694"/>
      <point x="444" y="723" type="qcurve"/>
      <point x="444" y="748"/>
      <point x="495" y="748"/>
      <point x="541" y="728"/>
      <point x="541" y="710" type="qcurve" smooth="yes"/>
      <point x="537" y="668" type="line"/>
      <point x="550" y="669" type="line"/>
      <point x="634" y="669"/>
      <point x="728" y="592"/>
      <point x="728" y="490"/>
      <point x="708" y="458" type="qcurve" smooth="yes"/>
      <point x="677" y="408"/>
      <point x="526" y="290"/>
      <point x="526" y="244" type="qcurve" smooth="yes"/>
      <point x="526" y="225"/>
    </contour>
  </outline>
</glyph>
<glyph name="uni0305" format="1">
  <advance width="0" height="0"/>
  <unicode hex="203E"/>
  <unicode hex="0305"/>
  <outline>
    <contour>
      <point x="495" y="772" type="qcurve" smooth="yes"/>
      <point x="5" y="772" type="line" smooth="yes"/>
      <point x="-20" y="772"/>
      <point x="-20" y="810" type="qcurve" smooth="yes"/>
      <point x="-20" y="847"/>
      <point x="5" y="847" type="qcurve" smooth="yes"/>
      <point x="495" y="847" type="line" smooth="yes"/>
      <point x="520" y="847"/>
      <point x="520" y="810" type="qcurve" smooth="yes"/>
      <point x="520" y="772"/>
    </contour>
  </outline>
</glyph>
<glyph name="uni2048" format="1">
  <advance width="1000" height="1000"/>
  <unicode hex="2048"/>
  <outline>
    <contour>
      <point x="357" y="-15" type="qcurve" smooth="yes"/>
      <point x="330" y="-15"/>
      <point x="295" y="27"/>
      <point x="295" y="74"/>
      <point x="324" y="107"/>
      <point x="376" y="107"/>
      <point x="412" y="62"/>
      <point x="412" y="39" type="qcurve" smooth="yes"/>
      <point x="412" y="-15"/>
    </contour>
    <contour>
      <point x="704" y="-15" type="qcurve" smooth="yes"/>
      <point x="677" y="-15"/>
      <point x="642" y="27"/>
      <point x="642" y="74"/>
      <point x="671" y="107"/>
      <point x="723" y="107"/>
      <point x="759" y="62"/>
      <point x="759" y="39" type="qcurve" smooth="yes"/>
      <point x="759" y="-15"/>
    </contour>
    <contour>
      <point x="735" y="173" type="qcurve" smooth="yes"/>
      <point x="735" y="159"/>
      <point x="699" y="159"/>
      <point x="665" y="173"/>
      <point x="667" y="204"/>
      <point x="660" y="668"/>
      <point x="656" y="694" type="qcurve" smooth="yes"/>
      <point x="656" y="718"/>
      <point x="707" y="718"/>
      <point x="753" y="698"/>
      <point x="752" y="663"/>
      <point x="748" y="631"/>
      <point x="735" y="223"/>
    </contour>
    <contour>
      <point x="394" y="185" type="qcurve"/>
      <point x="394" y="162"/>
      <point x="319" y="162"/>
      <point x="305" y="200"/>
      <point x="305" y="247"/>
      <point x="315" y="316"/>
      <point x="359" y="375"/>
      <point x="414" y="423"/>
      <point x="441" y="446" type="qcurve" smooth="yes"/>
      <point x="501" y="500"/>
      <point x="501" y="568" type="qcurve" smooth="yes"/>
      <point x="501" y="602"/>
      <point x="458" y="648"/>
      <point x="362" y="648"/>
      <point x="281" y="611"/>
      <point x="231" y="560"/>
      <point x="219" y="517" type="qcurve" smooth="yes"/>
      <point x="213" y="500"/>
      <point x="178" y="500"/>
      <point x="142" y="530"/>
      <point x="142" y="556"/>
      <point x="145" y="560" type="qcurve" smooth="yes"/>
      <point x="235" y="719"/>
      <point x="408" y="719" type="qcurve" smooth="yes"/>
      <point x="492" y="719"/>
      <point x="586" y="642"/>
      <point x="586" y="521"/>
      <point x="538" y="430"/>
      <point x="460" y="369" type="qcurve" smooth="yes"/>
      <point x="430" y="346"/>
      <point x="384" y="291"/>
      <point x="384" y="225"/>
    </contour>
  </outline>
</glyph>
<glyph name="uni207A" format="1">
  <advance width="600" height="600"/>
  <unicode hex="207A"/>
  <outline>
    <contour>
      <point x="273" y="446" type="qcurve" smooth="yes"/>
      <point x="257" y="446"/>
      <point x="232" y="463"/>
      <point x="232" y="478" type="qcurve" smooth="yes"/>
      <point x="232" y="495"/>
      <point x="235" y="545"/>
      <point x="235" y="621" type="qcurve"/>
      <point x="186" y="621"/>
      <point x="96" y="618" type="qcurve" smooth="yes"/>
      <point x="82" y="618"/>
      <point x="65" y="646"/>
      <point x="65" y="662" type="qcurve" smooth="yes"/>
      <point x="65" y="693"/>
      <point x="91" y="693" type="qcurve" smooth="yes"/>
      <point x="129" y="691"/>
      <point x="235" y="691" type="qcurve"/>
      <point x="235" y="792"/>
      <point x="233" y="830" type="qcurve" smooth="yes"/>
      <point x="233" y="856"/>
      <point x="264" y="856" type="qcurve" smooth="yes"/>
      <point x="280" y="856"/>
      <point x="308" y="839"/>
      <point x="308" y="827" type="qcurve" smooth="yes"/>
      <point x="305" y="731"/>
      <point x="305" y="691" type="qcurve"/>
      <point x="375" y="691"/>
      <point x="424" y="694"/>
      <point x="443" y="694" type="qcurve" smooth="yes"/>
      <point x="457" y="694"/>
      <point x="474" y="668"/>
      <point x="474" y="652" type="qcurve" smooth="yes"/>
      <point x="474" y="620"/>
      <point x="448" y="620" type="qcurve" smooth="yes"/>
      <point x="305" y="621" type="line"/>
      <point x="306" y="472" type="line" smooth="yes"/>
      <point x="306" y="446"/>
    </contour>
  </outline>
</glyph>
<glyph name="uni207F" format="1">
  <advance width="408" height="408"/>
  <unicode hex="207F"/>
  <outline>
    <contour>
      <point x="330" y="306" type="qcurve" smooth="yes"/>
      <point x="313" y="306"/>
      <point x="279" y="322"/>
      <point x="279" y="337" type="qcurve" smooth="yes"/>
      <point x="281" y="433"/>
      <point x="281" y="529" type="qcurve" smooth="yes"/>
      <point x="281" y="580"/>
      <point x="256" y="626"/>
      <point x="223" y="626" type="qcurve" smooth="yes"/>
      <point x="188" y="626"/>
      <point x="158" y="601" type="qcurve" smooth="yes"/>
      <point x="99" y="553"/>
      <point x="99" y="410" type="qcurve" smooth="yes"/>
      <point x="100" y="323" type="line" smooth="yes"/>
      <point x="100" y="306"/>
      <point x="76" y="306" type="qcurve" smooth="yes"/>
      <point x="60" y="306"/>
      <point x="25" y="323"/>
      <point x="25" y="338" type="qcurve" smooth="yes"/>
      <point x="26" y="417" type="line" smooth="yes"/>
      <point x="26" y="587"/>
      <point x="24" y="674" type="qcurve" smooth="yes"/>
      <point x="24" y="691"/>
      <point x="48" y="691" type="qcurve" smooth="yes"/>
      <point x="64" y="691"/>
      <point x="100" y="674"/>
      <point x="100" y="659" type="qcurve" smooth="yes"/>
      <point x="98" y="626" type="line"/>
      <point x="115" y="650"/>
      <point x="186" y="694"/>
      <point x="223" y="694" type="qcurve" smooth="yes"/>
      <point x="352" y="694"/>
      <point x="352" y="533" type="qcurve" smooth="yes"/>
      <point x="352" y="409"/>
      <point x="354" y="323" type="qcurve" smooth="yes"/>
      <point x="354" y="306"/>
    </contour>
  </outline>
</glyph>
<glyph name="uni20A2" format="1">
  <advance width="1000" height="1000"/>
  <unicode hex="20A2"/>
  <outline>
    <contour>
      <point x="814" y="147" type="qcurve" smooth="yes"/>
      <point x="780" y="87"/>
      <point x="708" y="39" type="qcurve" smooth="yes"/>
      <point x="618" y="-24"/>
      <point x="506" y="-24" type="qcurve" smooth="yes"/>
      <point x="418" y="-24"/>
      <point x="276" y="41"/>
      <point x="194" y="181"/>
      <point x="194" y="382"/>
      <point x="249" y="537"/>
      <point x="347" y="654"/>
      <point x="480" y="719"/>
      <point x="557" y="719" type="qcurve" smooth="yes"/>
      <point x="709" y="719"/>
      <point x="782" y="632" type="qcurve" smooth="yes"/>
      <point x="786" y="626"/>
      <point x="786" y="601"/>
      <point x="757" y="563"/>
      <point x="728" y="563"/>
      <point x="720" y="575" type="qcurve" smooth="yes"/>
      <point x="676" y="643"/>
      <point x="441" y="643"/>
      <point x="362" y="546" type="qcurve" smooth="yes"/>
      <point x="278" y="447"/>
      <point x="278" y="132"/>
      <point x="390" y="77" type="qcurve" smooth="yes"/>
      <point x="435" y="55"/>
      <point x="476" y="52" type="qcurve"/>
      <point x="477" y="106" type="line"/>
      <point x="477" y="317" type="line"/>
      <point x="474" y="424" type="line" smooth="yes"/>
      <point x="474" y="440"/>
      <point x="517" y="440"/>
      <point x="559" y="423"/>
      <point x="559" y="396"/>
      <point x="556" y="372"/>
      <point x="556" y="376" type="qcurve" smooth="yes"/>
      <point x="566" y="392"/>
      <point x="642" y="442"/>
      <point x="727" y="442"/>
      <point x="781" y="421"/>
      <point x="817" y="391"/>
      <point x="817" y="358"/>
      <point x="791" y="318"/>
      <point x="764" y="318"/>
      <point x="756" y="331" type="qcurve" smooth="yes"/>
      <point x="747" y="348"/>
      <point x="707" y="365"/>
      <point x="693" y="365" type="qcurve" smooth="yes"/>
      <point x="653" y="365"/>
      <point x="619" y="340" type="qcurve" smooth="yes"/>
      <point x="569" y="304"/>
      <point x="559" y="215" type="qcurve" smooth="yes"/>
      <point x="555" y="180"/>
      <point x="555" y="106" type="qcurve"/>
      <point x="558" y="56" type="line"/>
      <point x="580" y="59"/>
      <point x="607" y="68" type="qcurve" smooth="yes"/>
      <point x="657" y="85"/>
      <point x="750" y="148"/>
      <point x="781" y="190" type="qcurve"/>
      <point x="796" y="196"/>
      <point x="829" y="196"/>
      <point x="829" y="172"/>
    </contour>
  </outline>
</glyph>
<glyph name="franc" format="1">
  <advance width="1000" height="1000"/>
  <unicode hex="20A3"/>
  <outline>
    <contour>
      <point x="309" y="239" type="qcurve"/>
      <point x="309" y="360" type="line"/>
      <point x="299" y="366"/>
      <point x="282" y="401"/>
      <point x="282" y="430"/>
      <point x="296" y="430" type="qcurve" smooth="yes"/>
      <point x="299" y="430" type="line" smooth="yes"/>
      <point x="307" y="428"/>
      <point x="309" y="428" type="qcurve" smooth="yes"/>
      <point x="309" y="634" type="line"/>
      <point x="305" y="685" type="line" smooth="yes"/>
      <point x="305" y="705"/>
      <point x="340" y="705"/>
      <point x="380" y="692"/>
      <point x="380" y="692" type="qcurve"/>
      <point x="649" y="710" type="line" smooth="yes"/>
      <point x="671" y="712"/>
      <point x="723" y="718"/>
      <point x="749" y="718"/>
      <point x="772" y="679"/>
      <point x="772" y="639"/>
      <point x="753" y="639" type="qcurve" smooth="yes"/>
      <point x="691" y="639" type="line" smooth="yes"/>
      <point x="664" y="639"/>
      <point x="650" y="638" type="qcurve" smooth="yes"/>
      <point x="391" y="620" type="line"/>
      <point x="391" y="429" type="line"/>
      <point x="594" y="442" type="line" smooth="yes"/>
      <point x="616" y="444"/>
      <point x="668" y="450"/>
      <point x="694" y="450"/>
      <point x="717" y="411"/>
      <point x="717" y="371"/>
      <point x="698" y="371" type="qcurve" smooth="yes"/>
      <point x="635" y="371" type="line" smooth="yes"/>
      <point x="609" y="371"/>
      <point x="595" y="370" type="qcurve" smooth="yes"/>
      <point x="391" y="358" type="line"/>
      <point x="391" y="239" type="line"/>
      <point x="489" y="239" type="line" smooth="yes"/>
      <point x="518" y="239"/>
      <point x="560" y="242" type="qcurve" smooth="yes"/>
      <point x="561" y="242" type="line" smooth="yes"/>
      <point x="576" y="242"/>
      <point x="590" y="211"/>
      <point x="590" y="167"/>
      <point x="569" y="167" type="qcurve" smooth="yes"/>
      <point x="488" y="169" type="line"/>
      <point x="391" y="169" type="line"/>
      <point x="391" y="107" type="line"/>
      <point x="394" y="1" type="line" smooth="yes"/>
      <point x="394" y="-15"/>
      <point x="350" y="-15"/>
      <point x="307" y="2"/>
      <point x="307" y="19" type="qcurve" smooth="yes"/>
      <point x="309" y="108" type="line"/>
      <point x="309" y="169" type="line"/>
      <point x="271" y="169"/>
      <point x="256" y="166" type="qcurve" smooth="yes"/>
      <point x="254" y="166" type="line" smooth="yes"/>
      <point x="241" y="166"/>
      <point x="228" y="197"/>
      <point x="228" y="211" type="qcurve" smooth="yes"/>
      <point x="228" y="241"/>
      <point x="250" y="241" type="qcurve" smooth="yes"/>
      <point x="275" y="239"/>
    </contour>
  </outline>
</glyph>
<glyph name="lira" format="1">
  <advance width="1000" height="1000"/>
  <unicode hex="20A4"/>
  <outline>
    <contour>
      <point x="546" y="483" type="line" smooth="yes"/>
      <point x="559" y="483"/>
      <point x="621" y="486" type="qcurve" smooth="yes"/>
      <point x="622" y="486" type="line" smooth="yes"/>
      <point x="635" y="486"/>
      <point x="649" y="457"/>
      <point x="649" y="444" type="qcurve" smooth="yes"/>
      <point x="649" y="410"/>
      <point x="626" y="410" type="qcurve" smooth="yes"/>
      <point x="546" y="411" type="line"/>
      <point x="393" y="407" type="line"/>
      <point x="394" y="395"/>
      <point x="396" y="375" type="qcurve" smooth="yes"/>
      <point x="401" y="318" type="line" smooth="yes"/>
      <point x="402" y="309"/>
      <point x="402" y="306" type="qcurve" smooth="yes"/>
      <point x="546" y="310" type="line" smooth="yes"/>
      <point x="559" y="310"/>
      <point x="621" y="312" type="qcurve" smooth="yes"/>
      <point x="622" y="312" type="line" smooth="yes"/>
      <point x="635" y="312"/>
      <point x="649" y="283"/>
      <point x="649" y="270" type="qcurve" smooth="yes"/>
      <point x="649" y="236"/>
      <point x="626" y="236" type="qcurve" smooth="yes"/>
      <point x="546" y="237" type="line"/>
      <point x="403" y="233" type="line"/>
      <point x="399" y="140"/>
      <point x="370" y="81" type="qcurve"/>
      <point x="370" y="81" type="line"/>
      <point x="401" y="81"/>
      <point x="649" y="46"/>
      <point x="671" y="46" type="qcurve" smooth="yes"/>
      <point x="735" y="46"/>
      <point x="774" y="67" type="qcurve" smooth="yes"/>
      <point x="788" y="75"/>
      <point x="822" y="75"/>
      <point x="822" y="44"/>
      <point x="783" y="7"/>
      <point x="719" y="-23"/>
      <point x="636" y="-23"/>
      <point x="534" y="-7"/>
      <point x="424" y="9"/>
      <point x="335" y="9"/>
      <point x="284" y="-7"/>
      <point x="237" y="-23"/>
      <point x="195" y="-23"/>
      <point x="175" y="-18"/>
      <point x="175" y="1"/>
      <point x="178" y="13" type="qcurve" smooth="yes"/>
      <point x="186" y="54"/>
      <point x="211" y="54" type="qcurve" smooth="yes"/>
      <point x="220" y="54" type="line" smooth="yes"/>
      <point x="273" y="54"/>
      <point x="292" y="93" type="qcurve" smooth="yes"/>
      <point x="321" y="150"/>
      <point x="325" y="232" type="qcurve"/>
      <point x="298" y="231" type="line" smooth="yes"/>
      <point x="237" y="231"/>
      <point x="219" y="228" type="qcurve" smooth="yes"/>
      <point x="218" y="228" type="line" smooth="yes"/>
      <point x="206" y="228"/>
      <point x="193" y="261"/>
      <point x="193" y="306"/>
      <point x="215" y="306" type="qcurve" smooth="yes"/>
      <point x="244" y="304"/>
      <point x="299" y="304" type="qcurve" smooth="yes"/>
      <point x="321" y="305" type="line" smooth="yes"/>
      <point x="321" y="306"/>
      <point x="320" y="315" type="qcurve" smooth="yes"/>
      <point x="315" y="371" type="line" smooth="yes"/>
      <point x="313" y="394"/>
      <point x="312" y="405" type="qcurve"/>
      <point x="298" y="405" type="line" smooth="yes"/>
      <point x="237" y="405"/>
      <point x="219" y="402" type="qcurve" smooth="yes"/>
      <point x="218" y="402" type="line" smooth="yes"/>
      <point x="206" y="402"/>
      <point x="193" y="434"/>
      <point x="193" y="479"/>
      <point x="215" y="479" type="qcurve" smooth="yes"/>
      <point x="244" y="477"/>
      <point x="299" y="477" type="qcurve" smooth="yes"/>
      <point x="308" y="477" type="line" smooth="yes"/>
      <point x="308" y="476"/>
      <point x="308" y="478" type="qcurve" smooth="yes"/>
      <point x="308" y="550"/>
      <point x="360" y="659"/>
      <point x="453" y="720"/>
      <point x="575" y="720"/>
      <point x="622" y="706" type="qcurve" smooth="yes"/>
      <point x="702" y="682"/>
      <point x="744" y="644" type="qcurve" smooth="yes"/>
      <point x="752" y="638"/>
      <point x="752" y="610"/>
      <point x="718" y="578"/>
      <point x="692" y="578"/>
      <point x="685" y="585" type="qcurve" smooth="yes"/>
      <point x="619" y="647"/>
      <point x="428" y="647"/>
      <point x="402" y="556" type="qcurve" smooth="yes"/>
      <point x="390" y="517"/>
      <point x="390" y="486" type="qcurve" smooth="yes"/>
      <point x="390" y="481"/>
      <point x="390" y="479" type="qcurve" smooth="yes"/>
    </contour>
  </outline>
</glyph>
<glyph name="uni20A5" format="1">
  <advance width="1000" height="1000"/>
  <unicode hex="20A5"/>
  <outline>
    <contour>
      <point x="577" y="562" type="line" smooth="yes"/>
      <point x="592" y="604"/>
      <point x="601" y="639" type="qcurve" smooth="yes"/>
      <point x="605" y="657"/>
      <point x="631" y="657"/>
      <point x="643" y="649" type="qcurve" smooth="yes"/>
      <point x="671" y="628"/>
      <point x="671" y="609" type="qcurve" smooth="yes"/>
      <point x="671" y="605"/>
      <point x="655" y="574"/>
      <point x="642" y="538" type="qcurve" smooth="yes"/>
      <point x="622" y="485" type="line"/>
      <point x="641" y="492"/>
      <point x="674" y="492" type="qcurve" smooth="yes"/>
      <point x="724" y="492"/>
      <point x="792" y="435"/>
      <point x="823" y="345"/>
      <point x="823" y="297" type="qcurve" smooth="yes"/>
      <point x="823" y="105" type="line"/>
      <point x="826" y="-1" type="line" smooth="yes"/>
      <point x="826" y="-17"/>
      <point x="783" y="-17"/>
      <point x="741" y="0"/>
      <point x="741" y="17" type="qcurve" smooth="yes"/>
      <point x="745" y="105" type="line"/>
      <point x="745" y="293" type="line" smooth="yes"/>
      <point x="745" y="351"/>
      <point x="707" y="420"/>
      <point x="667" y="420" type="qcurve" smooth="yes"/>
      <point x="639" y="420"/>
      <point x="609" y="399" type="qcurve" smooth="yes"/>
      <point x="594" y="388"/>
      <point x="583" y="377" type="qcurve"/>
      <point x="537" y="250" type="line"/>
      <point x="536" y="161" type="line"/>
      <point x="536" y="134" type="line" smooth="yes"/>
      <point x="536" y="121"/>
      <point x="537" y="105" type="qcurve" smooth="yes"/>
      <point x="542" y="-1" type="line" smooth="yes"/>
      <point x="542" y="-17"/>
      <point x="499" y="-17"/>
      <point x="458" y="0"/>
      <point x="458" y="17" type="qcurve" smooth="yes"/>
      <point x="459" y="36" type="line"/>
      <point x="426" y="-55" type="line" smooth="yes"/>
      <point x="409" y="-102"/>
      <point x="400" y="-131" type="qcurve" smooth="yes"/>
      <point x="394" y="-148"/>
      <point x="362" y="-148"/>
      <point x="332" y="-122"/>
      <point x="332" y="-96"/>
      <point x="336" y="-88" type="qcurve" smooth="yes"/>
      <point x="354" y="-56"/>
      <point x="363" y="-28" type="qcurve" smooth="yes"/>
      <point x="462" y="244" type="line"/>
      <point x="462" y="293" type="line" smooth="yes"/>
      <point x="462" y="420"/>
      <point x="394" y="420" type="qcurve" smooth="yes"/>
      <point x="345" y="420"/>
      <point x="308" y="376" type="qcurve" smooth="yes"/>
      <point x="262" y="320"/>
      <point x="258" y="210" type="qcurve" smooth="yes"/>
      <point x="257" y="156"/>
      <point x="256" y="105" type="qcurve" smooth="yes"/>
      <point x="261" y="-1" type="line" smooth="yes"/>
      <point x="261" y="-17"/>
      <point x="218" y="-17"/>
      <point x="176" y="0"/>
      <point x="176" y="17" type="qcurve" smooth="yes"/>
      <point x="178" y="105" type="line"/>
      <point x="178" y="356" type="line"/>
      <point x="175" y="472" type="line" smooth="yes"/>
      <point x="175" y="488"/>
      <point x="218" y="488"/>
      <point x="260" y="471"/>
      <point x="260" y="444"/>
      <point x="259" y="417"/>
      <point x="259" y="423" type="qcurve" smooth="yes"/>
      <point x="268" y="442"/>
      <point x="348" y="492"/>
      <point x="452" y="492"/>
      <point x="513" y="433"/>
      <point x="519" y="409" type="qcurve" smooth="yes"/>
      <point x="518" y="406"/>
      <point x="525" y="416" type="qcurve" smooth="yes"/>
    </contour>
  </outline>
</glyph>
<glyph name="uni20A6" format="1">
  <advance width="1000" height="1000"/>
  <unicode hex="20A6"/>
  <outline>
    <contour>
      <point x="860" y="307" type="line" smooth="yes"/>
      <point x="885" y="307"/>
      <point x="885" y="272" type="qcurve" smooth="yes"/>
      <point x="885" y="261"/>
      <point x="874" y="237"/>
      <point x="860" y="237" type="qcurve" smooth="yes"/>
      <point x="772" y="237" type="line"/>
      <point x="772" y="87" type="line"/>
      <point x="776" y="32" type="line" smooth="yes"/>
      <point x="776" y="20"/>
      <point x="765" y="8" type="qcurve" smooth="yes"/>
      <point x="741" y="-19"/>
      <point x="692" y="-19"/>
      <point x="671" y="12"/>
      <point x="646" y="48" type="qcurve" smooth="yes"/>
      <point x="577" y="145"/>
      <point x="515" y="237" type="qcurve"/>
      <point x="312" y="237" type="line"/>
      <point x="312" y="105" type="line"/>
      <point x="315" y="-1" type="line" smooth="yes"/>
      <point x="315" y="-17"/>
      <point x="272" y="-17"/>
      <point x="229" y="0"/>
      <point x="229" y="17" type="qcurve" smooth="yes"/>
      <point x="231" y="106" type="line"/>
      <point x="231" y="237" type="line"/>
      <point x="150" y="237" type="line" smooth="yes"/>
      <point x="136" y="237"/>
      <point x="125" y="261"/>
      <point x="125" y="272" type="qcurve" smooth="yes"/>
      <point x="125" y="307"/>
      <point x="150" y="307" type="qcurve" smooth="yes"/>
      <point x="231" y="307" type="line"/>
      <point x="231" y="407" type="line"/>
      <point x="150" y="407" type="line" smooth="yes"/>
      <point x="136" y="407"/>
      <point x="125" y="431"/>
      <point x="125" y="442" type="qcurve" smooth="yes"/>
      <point x="125" y="477"/>
      <point x="150" y="477" type="qcurve" smooth="yes"/>
      <point x="231" y="477" type="line"/>
      <point x="231" y="640" type="line"/>
      <point x="224" y="677" type="line" smooth="yes"/>
      <point x="224" y="696"/>
      <point x="274" y="714"/>
      <point x="296" y="714"/>
      <point x="312" y="711"/>
      <point x="318" y="701" type="qcurve" smooth="yes"/>
      <point x="343" y="656"/>
      <point x="454" y="477" type="qcurve"/>
      <point x="691" y="477" type="line"/>
      <point x="691" y="589" type="line"/>
      <point x="687" y="695" type="line" smooth="yes"/>
      <point x="687" y="711"/>
      <point x="732" y="711"/>
      <point x="774" y="694"/>
      <point x="774" y="677" type="qcurve" smooth="yes"/>
      <point x="772" y="588" type="line"/>
      <point x="772" y="477" type="line"/>
      <point x="860" y="477" type="line" smooth="yes"/>
      <point x="885" y="477"/>
      <point x="885" y="442" type="qcurve" smooth="yes"/>
      <point x="885" y="431"/>
      <point x="874" y="407"/>
      <point x="860" y="407" type="qcurve" smooth="yes"/>
      <point x="772" y="407" type="line"/>
      <point x="772" y="307" type="line"/>
    </contour>
    <contour>
      <point x="312" y="407" type="line"/>
      <point x="312" y="307" type="line"/>
      <point x="469" y="307" type="line"/>
      <point x="438" y="354"/>
      <point x="405" y="407" type="qcurve"/>
    </contour>
    <contour>
      <point x="312" y="477" type="line"/>
      <point x="360" y="477" type="line"/>
      <point x="333" y="522"/>
      <point x="312" y="557" type="qcurve"/>
    </contour>
    <contour>
      <point x="691" y="407" type="line"/>
      <point x="499" y="407" type="line"/>
      <point x="529" y="359"/>
      <point x="564" y="307" type="qcurve"/>
      <point x="691" y="307" type="line"/>
    </contour>
    <contour>
      <point x="691" y="237" type="line"/>
      <point x="611" y="237" type="line"/>
      <point x="653" y="175"/>
      <point x="691" y="123" type="qcurve"/>
    </contour>
  </outline>
</glyph>
<glyph name="uni20A8" format="1">
  <advance width="1000" height="1000"/>
  <unicode hex="20A8"/>
  <outline>
    <contour>
      <point x="725" y="236" type="line" smooth="yes"/>
      <point x="608" y="263"/>
      <point x="608" y="356" type="qcurve" smooth="yes"/>
      <point x="608" y="397"/>
      <point x="634" y="428" type="qcurve" smooth="yes"/>
      <point x="689" y="492"/>
      <point x="901" y="492"/>
      <point x="961" y="427" type="qcurve" smooth="yes"/>
      <point x="965" y="423"/>
      <point x="965" y="399"/>
      <point x="941" y="363"/>
      <point x="918" y="363"/>
      <point x="906" y="379" type="qcurve" smooth="yes"/>
      <point x="876" y="425"/>
      <point x="797" y="425" type="qcurve" smooth="yes"/>
      <point x="741" y="425"/>
      <point x="685" y="383"/>
      <point x="685" y="336"/>
      <point x="709" y="311"/>
      <point x="748" y="302" type="qcurve" smooth="yes"/>
      <point x="844" y="279" type="line" smooth="yes"/>
      <point x="911" y="263"/>
      <point x="989" y="193"/>
      <point x="989" y="128" type="qcurve" smooth="yes"/>
      <point x="989" y="86"/>
      <point x="940" y="17"/>
      <point x="851" y="-24"/>
      <point x="732" y="-24"/>
      <point x="653" y="5"/>
      <point x="605" y="44"/>
      <point x="584" y="78"/>
      <point x="584" y="102"/>
      <point x="616" y="139"/>
      <point x="641" y="139"/>
      <point x="646" y="128" type="qcurve" smooth="yes"/>
      <point x="653" y="109"/>
      <point x="668" y="90" type="qcurve" smooth="yes"/>
      <point x="699" y="46"/>
      <point x="791" y="46" type="qcurve" smooth="yes"/>
      <point x="850" y="46"/>
      <point x="911" y="95"/>
      <point x="911" y="159"/>
      <point x="878" y="200"/>
      <point x="825" y="212" type="qcurve" smooth="yes"/>
    </contour>
    <contour>
      <point x="49" y="17" type="qcurve" smooth="yes"/>
      <point x="51" y="116" type="line"/>
      <point x="51" y="610" type="line"/>
      <point x="56" y="610" type="line" smooth="yes"/>
      <point x="33" y="610"/>
      <point x="12" y="645" type="qcurve" smooth="yes"/>
      <point x="4" y="658"/>
      <point x="4" y="682"/>
      <point x="17" y="684" type="qcurve" smooth="yes"/>
      <point x="37" y="688"/>
      <point x="89" y="694"/>
      <point x="184" y="715"/>
      <point x="363" y="715"/>
      <point x="464" y="664"/>
      <point x="511" y="584"/>
      <point x="511" y="485"/>
      <point x="452" y="402"/>
      <point x="347" y="343"/>
      <point x="230" y="333"/>
      <point x="237" y="333" type="qcurve"/>
      <point x="258" y="312"/>
      <point x="301" y="264" type="qcurve" smooth="yes"/>
      <point x="491" y="51"/>
      <point x="550" y="31" type="qcurve" smooth="yes"/>
      <point x="597" y="11"/>
      <point x="597" y="-4" type="qcurve" smooth="yes"/>
      <point x="597" y="-19"/>
      <point x="563" y="-19" type="qcurve" smooth="yes"/>
      <point x="487" y="-19"/>
      <point x="381" y="66"/>
      <point x="294" y="164" type="qcurve" smooth="yes"/>
      <point x="226" y="241" type="line" smooth="yes"/>
      <point x="172" y="300"/>
      <point x="132" y="326"/>
      <point x="131" y="326" type="qcurve" smooth="yes"/>
      <point x="131" y="115" type="line"/>
      <point x="134" y="-1" type="line" smooth="yes"/>
      <point x="134" y="-17"/>
      <point x="91" y="-17"/>
      <point x="49" y="0"/>
    </contour>
    <contour>
      <point x="131" y="387" type="line"/>
      <point x="136" y="394"/>
      <point x="152" y="394" type="qcurve" smooth="yes"/>
      <point x="172" y="394" type="line" smooth="yes"/>
      <point x="292" y="394"/>
      <point x="354" y="431" type="qcurve" smooth="yes"/>
      <point x="388" y="452"/>
      <point x="429" y="509"/>
      <point x="429" y="537" type="qcurve" smooth="yes"/>
      <point x="429" y="584"/>
      <point x="349" y="643"/>
      <point x="181" y="643"/>
      <point x="131" y="626" type="qcurve"/>
    </contour>
  </outline>
</glyph>
<glyph name="Euro" format="1">
  <advance width="1000" height="1000"/>
  <unicode hex="20AC"/>
  <outline>
    <contour>
      <point x="509" y="279" type="line" smooth="yes"/>
      <point x="532" y="279"/>
      <point x="580" y="282" type="qcurve" smooth="yes"/>
      <point x="581" y="282" type="line" smooth="yes"/>
      <point x="596" y="282"/>
      <point x="610" y="252"/>
      <point x="610" y="207"/>
      <point x="588" y="207" type="qcurve" smooth="yes"/>
      <point x="508" y="209" type="line"/>
      <point x="308" y="209" type="line"/>
      <point x="325" y="131"/>
      <point x="446" y="51"/>
      <point x="627" y="51"/>
      <point x="724" y="117" type="qcurve" smooth="yes"/>
      <point x="770" y="148"/>
      <point x="800" y="189" type="qcurve" smooth="yes"/>
      <point x="814" y="206"/>
      <point x="849" y="206"/>
      <point x="849" y="172"/>
      <point x="834" y="147" type="qcurve" smooth="yes"/>
      <point x="800" y="87"/>
      <point x="728" y="39" type="qcurve" smooth="yes"/>
      <point x="638" y="-24"/>
      <point x="526" y="-24" type="qcurve" smooth="yes"/>
      <point x="360" y="-24"/>
      <point x="277" y="78" type="qcurve" smooth="yes"/>
      <point x="234" y="130"/>
      <point x="221" y="209" type="qcurve"/>
      <point x="157" y="206" type="line" smooth="yes"/>
      <point x="143" y="206"/>
      <point x="128" y="238"/>
      <point x="128" y="281"/>
      <point x="150" y="281" type="qcurve" smooth="yes"/>
      <point x="214" y="279" type="line"/>
      <point x="214" y="333"/>
      <point x="219" y="363" type="qcurve"/>
      <point x="157" y="360" type="line" smooth="yes"/>
      <point x="143" y="360"/>
      <point x="128" y="392"/>
      <point x="128" y="435"/>
      <point x="150" y="435" type="qcurve" smooth="yes"/>
      <point x="224" y="433" type="line"/>
      <point x="233" y="433" type="line"/>
      <point x="256" y="514"/>
      <point x="355" y="645"/>
      <point x="495" y="719"/>
      <point x="577" y="719" type="qcurve" smooth="yes"/>
      <point x="729" y="719"/>
      <point x="802" y="632" type="qcurve" smooth="yes"/>
      <point x="806" y="626"/>
      <point x="806" y="601"/>
      <point x="777" y="563"/>
      <point x="748" y="563"/>
      <point x="740" y="575" type="qcurve" smooth="yes"/>
      <point x="696" y="643"/>
      <point x="573" y="643" type="qcurve" smooth="yes"/>
      <point x="517" y="643"/>
      <point x="416" y="590"/>
      <point x="337" y="492"/>
      <point x="319" y="433" type="qcurve"/>
      <point x="595" y="433" type="line" smooth="yes"/>
      <point x="609" y="433"/>
      <point x="666" y="436" type="qcurve" smooth="yes"/>
      <point x="667" y="436" type="line" smooth="yes"/>
      <point x="682" y="436"/>
      <point x="696" y="406"/>
      <point x="696" y="361"/>
      <point x="674" y="361" type="qcurve" smooth="yes"/>
      <point x="594" y="363" type="line"/>
      <point x="303" y="363" type="line"/>
      <point x="297" y="331"/>
      <point x="297" y="287"/>
      <point x="298" y="279" type="qcurve"/>
    </contour>
  </outline>
</glyph>
<glyph name="uni20AE" format="1">
  <advance width="1000" height="1000"/>
  <unicode hex="20AE"/>
  <outline>
    <contour>
      <point x="279" y="393" type="qcurve" smooth="yes"/>
      <point x="308" y="400"/>
      <point x="358" y="415" type="qcurve" smooth="yes"/>
      <point x="458" y="445" type="line"/>
      <point x="458" y="626" type="line"/>
      <point x="338" y="619" type="line" smooth="yes"/>
      <point x="314" y="618"/>
      <point x="267" y="611"/>
      <point x="255" y="610" type="qcurve" smooth="yes"/>
      <point x="254" y="610" type="line" smooth="yes"/>
      <point x="237" y="610"/>
      <point x="215" y="650"/>
      <point x="215" y="691"/>
      <point x="234" y="691" type="qcurve" smooth="yes"/>
      <point x="305" y="689" type="line"/>
      <point x="659" y="708" type="line" smooth="yes"/>
      <point x="681" y="710"/>
      <point x="729" y="714"/>
      <point x="742" y="716" type="qcurve" smooth="yes"/>
      <point x="745" y="716" type="line" smooth="yes"/>
      <point x="761" y="716"/>
      <point x="781" y="675"/>
      <point x="781" y="635"/>
      <point x="763" y="635" type="qcurve" smooth="yes"/>
      <point x="683" y="638" type="line"/>
      <point x="540" y="630" type="line"/>
      <point x="540" y="471" type="line"/>
      <point x="635" y="501" type="line" smooth="yes"/>
      <point x="662" y="510"/>
      <point x="703" y="525" type="qcurve"/>
      <point x="704" y="525" type="line"/>
      <point x="718" y="530"/>
      <point x="738" y="503"/>
      <point x="745" y="460"/>
      <point x="726" y="454" type="qcurve" smooth="yes"/>
      <point x="648" y="432" type="line"/>
      <point x="540" y="399" type="line"/>
      <point x="541" y="296" type="line"/>
      <point x="635" y="325" type="line" smooth="yes"/>
      <point x="662" y="334"/>
      <point x="701" y="348" type="qcurve"/>
      <point x="702" y="349" type="line"/>
      <point x="718" y="354"/>
      <point x="738" y="327"/>
      <point x="745" y="285"/>
      <point x="726" y="278" type="qcurve" smooth="yes"/>
      <point x="648" y="256" type="line"/>
      <point x="541" y="223" type="line"/>
      <point x="541" y="106" type="line"/>
      <point x="544" y="0" type="line" smooth="yes"/>
      <point x="544" y="-17"/>
      <point x="498" y="-17"/>
      <point x="455" y="1"/>
      <point x="455" y="18" type="qcurve" smooth="yes"/>
      <point x="457" y="107" type="line"/>
      <point x="457" y="197" type="line"/>
      <point x="371" y="170" type="line" smooth="yes"/>
      <point x="315" y="153"/>
      <point x="301" y="146" type="qcurve" smooth="yes"/>
      <point x="299" y="145" type="line" smooth="yes"/>
      <point x="284" y="141"/>
      <point x="266" y="168"/>
      <point x="264" y="182" type="qcurve" smooth="yes"/>
      <point x="258" y="211"/>
      <point x="280" y="217" type="qcurve" smooth="yes"/>
      <point x="308" y="224"/>
      <point x="358" y="240" type="qcurve" smooth="yes"/>
      <point x="457" y="270" type="line"/>
      <point x="458" y="373" type="line"/>
      <point x="371" y="346" type="line" smooth="yes"/>
      <point x="315" y="329"/>
      <point x="299" y="320" type="qcurve"/>
      <point x="297" y="320" type="line"/>
      <point x="285" y="316"/>
      <point x="266" y="344"/>
      <point x="264" y="358" type="qcurve" smooth="yes"/>
      <point x="258" y="386"/>
    </contour>
  </outline>
</glyph>
<glyph name="uni2100" format="1">
  <advance width="1000" height="1000"/>
  <unicode hex="2100"/>
  <outline>
    <contour>
      <point x="727" y="-52" type="qcurve" smooth="yes"/>
      <point x="679" y="-52"/>
      <point x="599" y="-7"/>
      <point x="550" y="79"/>
      <point x="550" y="137" type="qcurve" smooth="yes"/>
      <point x="550" y="245"/>
      <point x="691" y="391"/>
      <point x="780" y="391" type="qcurve" smooth="yes"/>
      <point x="825" y="391"/>
      <point x="883" y="360"/>
      <point x="914" y="320"/>
      <point x="914" y="290"/>
      <point x="886" y="260"/>
      <point x="873" y="260" type="qcurve" smooth="yes"/>
      <point x="858" y="260"/>
      <point x="853" y="271" type="qcurve" smooth="yes"/>
      <point x="840" y="294"/>
      <point x="812" y="321"/>
      <point x="746" y="321"/>
      <point x="672" y="275"/>
      <point x="625" y="195"/>
      <point x="625" y="149" type="qcurve" smooth="yes"/>
      <point x="625" y="102"/>
      <point x="641" y="73" type="qcurve" smooth="yes"/>
      <point x="672" y="19"/>
      <point x="808" y="19"/>
      <point x="890" y="102" type="qcurve" smooth="yes"/>
      <point x="909" y="123"/>
      <point x="924" y="123" type="qcurve" smooth="yes"/>
      <point x="941" y="123"/>
      <point x="941" y="106" type="qcurve" smooth="yes"/>
      <point x="941" y="92"/>
      <point x="914" y="42"/>
      <point x="887" y="15" type="qcurve" smooth="yes"/>
      <point x="823" y="-52"/>
    </contour>
    <contour>
      <point x="207" y="411" type="qcurve" smooth="yes"/>
      <point x="242" y="411"/>
      <point x="312" y="457"/>
      <point x="364" y="552"/>
      <point x="364" y="634" type="qcurve" smooth="yes"/>
      <point x="365" y="663" type="line"/>
      <point x="364" y="663" type="line" smooth="yes"/>
      <point x="348" y="663"/>
      <point x="344" y="674" type="qcurve" smooth="yes"/>
      <point x="317" y="715"/>
      <point x="281" y="715" type="qcurve" smooth="yes"/>
      <point x="243" y="715"/>
      <point x="176" y="666"/>
      <point x="131" y="579"/>
      <point x="131" y="521" type="qcurve" smooth="yes"/>
      <point x="131" y="411"/>
    </contour>
    <contour>
      <point x="82" y="-97" type="qcurve" smooth="yes"/>
      <point x="69" y="-97"/>
      <point x="47" y="-61"/>
      <point x="47" y="-31"/>
      <point x="55" y="-23" type="qcurve" smooth="yes"/>
      <point x="90" y="5"/>
      <point x="137" y="52" type="qcurve" smooth="yes"/>
      <point x="433" y="350" type="line" smooth="yes"/>
      <point x="428" y="348"/>
      <point x="422" y="348" type="qcurve" smooth="yes"/>
      <point x="406" y="348"/>
      <point x="386" y="377"/>
      <point x="373" y="412"/>
      <point x="370" y="428" type="qcurve" smooth="yes"/>
      <point x="369" y="433" type="line"/>
      <point x="312" y="341"/>
      <point x="203" y="341" type="qcurve" smooth="yes"/>
      <point x="136" y="341"/>
      <point x="54" y="432"/>
      <point x="54" y="513" type="qcurve" smooth="yes"/>
      <point x="54" y="593"/>
      <point x="117" y="714"/>
      <point x="219" y="784"/>
      <point x="341" y="784"/>
      <point x="366" y="751" type="qcurve"/>
      <point x="366" y="762" type="line" smooth="yes"/>
      <point x="366" y="778"/>
      <point x="390" y="778" type="qcurve" smooth="yes"/>
      <point x="409" y="778"/>
      <point x="447" y="763"/>
      <point x="447" y="746" type="qcurve" smooth="yes"/>
      <point x="436" y="686"/>
      <point x="436" y="531" type="qcurve" smooth="yes"/>
      <point x="436" y="456"/>
      <point x="464" y="404" type="qcurve" smooth="yes"/>
      <point x="467" y="398"/>
      <point x="467" y="389" type="qcurve" smooth="yes"/>
      <point x="467" y="386"/>
      <point x="466" y="383" type="qcurve" smooth="yes"/>
      <point x="828" y="747" type="line" smooth="yes"/>
      <point x="887" y="810"/>
      <point x="909" y="838" type="qcurve" smooth="yes"/>
      <point x="918" y="848"/>
      <point x="931" y="848" type="qcurve" smooth="yes"/>
      <point x="943" y="848"/>
      <point x="966" y="812"/>
      <point x="966" y="782"/>
      <point x="958" y="774" type="qcurve" smooth="yes"/>
      <point x="918" y="737" type="line" smooth="yes"/>
      <point x="902" y="724"/>
      <point x="185" y="3" type="qcurve" smooth="yes"/>
      <point x="146" y="-36"/>
      <point x="103" y="-88" type="qcurve" smooth="yes"/>
      <point x="94" y="-97"/>
    </contour>
  </outline>
</glyph>
<glyph name="uni2105" format="1">
  <advance width="1000" height="1000"/>
  <unicode hex="2105"/>
  <outline>
    <contour>
      <point x="734" y="15" type="qcurve" smooth="yes"/>
      <point x="772" y="15"/>
      <point x="836" y="59"/>
      <point x="875" y="133"/>
      <point x="875" y="189" type="qcurve" smooth="yes"/>
      <point x="875" y="244"/>
      <point x="821" y="325"/>
      <point x="773" y="325" type="qcurve" smooth="yes"/>
      <point x="724" y="325"/>
      <point x="657" y="270"/>
      <point x="618" y="189"/>
      <point x="618" y="147" type="qcurve" smooth="yes"/>
      <point x="618" y="82"/>
      <point x="679" y="15"/>
    </contour>
    <contour>
      <point x="726" y="-57" type="qcurve" smooth="yes"/>
      <point x="644" y="-57"/>
      <point x="543" y="53"/>
      <point x="543" y="219"/>
      <point x="587" y="296" type="qcurve" smooth="yes"/>
      <point x="608" y="334"/>
      <point x="638" y="361" type="qcurve" smooth="yes"/>
      <point x="648" y="368"/>
      <point x="658" y="368" type="qcurve" smooth="yes"/>
      <point x="667" y="368"/>
      <point x="672" y="364" type="qcurve"/>
      <point x="715" y="395"/>
      <point x="773" y="395" type="qcurve" smooth="yes"/>
      <point x="851" y="395"/>
      <point x="950" y="280"/>
      <point x="950" y="178" type="qcurve" smooth="yes"/>
      <point x="950" y="121"/>
      <point x="902" y="13"/>
      <point x="806" y="-57"/>
    </contour>
    <contour>
      <point x="234" y="336" type="qcurve" smooth="yes"/>
      <point x="186" y="336"/>
      <point x="106" y="381"/>
      <point x="57" y="467"/>
      <point x="57" y="525" type="qcurve" smooth="yes"/>
      <point x="57" y="633"/>
      <point x="199" y="789"/>
      <point x="287" y="789" type="qcurve" smooth="yes"/>
      <point x="332" y="789"/>
      <point x="390" y="758"/>
      <point x="421" y="718"/>
      <point x="421" y="688"/>
      <point x="393" y="658"/>
      <point x="380" y="658" type="qcurve" smooth="yes"/>
      <point x="365" y="658"/>
      <point x="360" y="669" type="qcurve" smooth="yes"/>
      <point x="347" y="692"/>
      <point x="319" y="719"/>
      <point x="286" y="719" type="qcurve" smooth="yes"/>
      <point x="252" y="719"/>
      <point x="180" y="668"/>
      <point x="132" y="583"/>
      <point x="132" y="537" type="qcurve" smooth="yes"/>
      <point x="132" y="490"/>
      <point x="147" y="461" type="qcurve" smooth="yes"/>
      <point x="178" y="407"/>
      <point x="247" y="407" type="qcurve" smooth="yes"/>
      <point x="315" y="407"/>
      <point x="397" y="490" type="qcurve" smooth="yes"/>
      <point x="416" y="511"/>
      <point x="431" y="511" type="qcurve" smooth="yes"/>
      <point x="448" y="511"/>
      <point x="448" y="494" type="qcurve" smooth="yes"/>
      <point x="448" y="480"/>
      <point x="421" y="430"/>
      <point x="394" y="403" type="qcurve" smooth="yes"/>
      <point x="330" y="336"/>
    </contour>
    <contour>
      <point x="82" y="-97" type="qcurve" smooth="yes"/>
      <point x="69" y="-97"/>
      <point x="47" y="-61"/>
      <point x="47" y="-31"/>
      <point x="55" y="-23" type="qcurve" smooth="yes"/>
      <point x="90" y="5"/>
      <point x="137" y="52" type="qcurve" smooth="yes"/>
      <point x="828" y="747" type="line" smooth="yes"/>
      <point x="887" y="810"/>
      <point x="909" y="838" type="qcurve" smooth="yes"/>
      <point x="918" y="848"/>
      <point x="931" y="848" type="qcurve" smooth="yes"/>
      <point x="943" y="848"/>
      <point x="966" y="812"/>
      <point x="966" y="782"/>
      <point x="958" y="774" type="qcurve" smooth="yes"/>
      <point x="918" y="737" type="line" smooth="yes"/>
      <point x="902" y="724"/>
      <point x="185" y="3" type="qcurve" smooth="yes"/>
      <point x="146" y="-36"/>
      <point x="103" y="-88" type="qcurve" smooth="yes"/>
      <point x="94" y="-97"/>
    </contour>
  </outline>
</glyph>
<glyph name="uni210F" format="1">
  <advance width="1000" height="1000"/>
  <unicode hex="210F"/>
  <outline>
    <contour>
      <point x="653" y="-17" type="qcurve" smooth="yes"/>
      <point x="634" y="-17"/>
      <point x="597" y="-2"/>
      <point x="597" y="14" type="qcurve" smooth="yes"/>
      <point x="606" y="52"/>
      <point x="658" y="294" type="qcurve" smooth="yes"/>
      <point x="666" y="330"/>
      <point x="666" y="359" type="qcurve" smooth="yes"/>
      <point x="666" y="386"/>
      <point x="642" y="417"/>
      <point x="602" y="417" type="qcurve" smooth="yes"/>
      <point x="560" y="417"/>
      <point x="505" y="387" type="qcurve" smooth="yes"/>
      <point x="434" y="349"/>
      <point x="393" y="236" type="qcurve" smooth="yes"/>
      <point x="366" y="163"/>
      <point x="339" y="-2" type="qcurve" smooth="yes"/>
      <point x="337" y="-17"/>
      <point x="315" y="-17" type="qcurve" smooth="yes"/>
      <point x="296" y="-17"/>
      <point x="260" y="-1"/>
      <point x="260" y="16" type="qcurve" smooth="yes"/>
      <point x="349" y="432" type="line"/>
      <point x="337" y="426" type="line" smooth="yes"/>
      <point x="325" y="419"/>
      <point x="268" y="385"/>
      <point x="257" y="385" type="qcurve" smooth="yes"/>
      <point x="245" y="385"/>
      <point x="219" y="416"/>
      <point x="219" y="430" type="qcurve" smooth="yes"/>
      <point x="219" y="446"/>
      <point x="235" y="453" type="qcurve" smooth="yes"/>
      <point x="281" y="472"/>
      <point x="338" y="507"/>
      <point x="369" y="525" type="qcurve"/>
      <point x="386" y="607"/>
      <point x="403" y="698" type="qcurve" smooth="yes"/>
      <point x="405" y="713"/>
      <point x="428" y="713" type="qcurve" smooth="yes"/>
      <point x="446" y="713"/>
      <point x="482" y="697"/>
      <point x="482" y="680" type="qcurve" smooth="yes"/>
      <point x="481" y="670"/>
      <point x="471" y="632"/>
      <point x="462" y="591"/>
      <point x="458" y="577" type="qcurve"/>
      <point x="555" y="634" type="line" smooth="yes"/>
      <point x="569" y="643"/>
      <point x="591" y="643"/>
      <point x="616" y="612"/>
      <point x="616" y="599" type="qcurve" smooth="yes"/>
      <point x="616" y="583"/>
      <point x="604" y="577" type="qcurve" smooth="yes"/>
      <point x="575" y="562"/>
      <point x="439" y="483" type="qcurve"/>
      <point x="421" y="399" type="line"/>
      <point x="450" y="434"/>
      <point x="567" y="491"/>
      <point x="619" y="491" type="qcurve" smooth="yes"/>
      <point x="746" y="491"/>
      <point x="746" y="370" type="qcurve" smooth="yes"/>
      <point x="746" y="334"/>
      <point x="737" y="296" type="qcurve" smooth="yes"/>
      <point x="696" y="104" type="line"/>
      <point x="685" y="30"/>
      <point x="677" y="-2" type="qcurve" smooth="yes"/>
      <point x="675" y="-17"/>
    </contour>
  </outline>
</glyph>
<glyph name="uni2116" format="1">
  <advance width="1000" height="1000"/>
  <unicode hex="2116"/>
  <outline>
    <contour>
      <point x="946" y="-15" type="qcurve" smooth="yes"/>
      <point x="921" y="-15"/>
      <point x="884" y="30"/>
      <point x="884" y="54" type="qcurve" smooth="yes"/>
      <point x="884" y="77"/>
      <point x="911" y="107"/>
      <point x="959" y="107"/>
      <point x="997" y="62"/>
      <point x="997" y="14"/>
      <point x="970" y="-15"/>
    </contour>
    <contour>
      <point x="687" y="49" type="qcurve" smooth="yes"/>
      <point x="731" y="49"/>
      <point x="798" y="100"/>
      <point x="838" y="189"/>
      <point x="838" y="258" type="qcurve" smooth="yes"/>
      <point x="838" y="326"/>
      <point x="785" y="420"/>
      <point x="732" y="420" type="qcurve" smooth="yes"/>
      <point x="677" y="420"/>
      <point x="605" y="356"/>
      <point x="564" y="259"/>
      <point x="564" y="208" type="qcurve" smooth="yes"/>
      <point x="564" y="49"/>
    </contour>
    <contour>
      <point x="693" y="-24" type="qcurve" smooth="yes"/>
      <point x="485" y="-24"/>
      <point x="485" y="207" type="qcurve" smooth="yes"/>
      <point x="485" y="289"/>
      <point x="535" y="377" type="qcurve" smooth="yes"/>
      <point x="583" y="460"/>
      <point x="612" y="460" type="qcurve" smooth="yes"/>
      <point x="625" y="460"/>
      <point x="630" y="453" type="qcurve"/>
      <point x="646" y="465"/>
      <point x="688" y="492"/>
      <point x="732" y="492" type="qcurve" smooth="yes"/>
      <point x="821" y="492"/>
      <point x="917" y="360"/>
      <point x="917" y="138"/>
      <point x="863" y="63" type="qcurve" smooth="yes"/>
      <point x="801" y="-24"/>
    </contour>
    <contour>
      <point x="88" y="-18" type="qcurve" smooth="yes"/>
      <point x="69" y="-18"/>
      <point x="30" y="0"/>
      <point x="30" y="17" type="qcurve" smooth="yes"/>
      <point x="32" y="106"/>
      <point x="32" y="640" type="qcurve"/>
      <point x="26" y="675" type="line" smooth="yes"/>
      <point x="26" y="694"/>
      <point x="53" y="706" type="qcurve" smooth="yes"/>
      <point x="73" y="713"/>
      <point x="89" y="713" type="qcurve" smooth="yes"/>
      <point x="112" y="713"/>
      <point x="123" y="693"/>
      <point x="151" y="630" type="qcurve" smooth="yes"/>
      <point x="264" y="372"/>
      <point x="388" y="138" type="qcurve"/>
      <point x="388" y="589"/>
      <point x="385" y="695" type="qcurve" smooth="yes"/>
      <point x="385" y="712"/>
      <point x="409" y="712" type="qcurve" smooth="yes"/>
      <point x="427" y="712"/>
      <point x="466" y="694"/>
      <point x="466" y="677" type="qcurve" smooth="yes"/>
      <point x="464" y="588"/>
      <point x="464" y="88" type="qcurve"/>
      <point x="469" y="33" type="line" smooth="yes"/>
      <point x="469" y="15"/>
      <point x="422" y="-17"/>
      <point x="405" y="-17" type="qcurve" smooth="yes"/>
      <point x="386" y="-17"/>
      <point x="361" y="22"/>
      <point x="236" y="255"/>
      <point x="108" y="538" type="qcurve"/>
      <point x="108" y="105"/>
      <point x="111" y="-1" type="qcurve" smooth="yes"/>
      <point x="111" y="-18"/>
    </contour>
  </outline>
</glyph>
<glyph name="uni2151" format="1">
  <advance width="1000" height="1000"/>
  <unicode hex="2151"/>
  <outline>
    <contour>
      <point x="714" y="159" type="qcurve" smooth="yes"/>
      <point x="750" y="159"/>
      <point x="774" y="177" type="qcurve" smooth="yes"/>
      <point x="824" y="213"/>
      <point x="842" y="284" type="qcurve"/>
      <point x="836" y="286"/>
      <point x="829" y="298" type="qcurve" smooth="yes"/>
      <point x="825" y="308"/>
      <point x="794" y="328"/>
      <point x="766" y="328" type="qcurve" smooth="yes"/>
      <point x="737" y="328"/>
      <point x="691" y="292"/>
      <point x="665" y="241"/>
      <point x="665" y="216" type="qcurve" smooth="yes"/>
      <point x="665" y="159"/>
    </contour>
    <contour>
      <point x="809" y="-71" type="qcurve" smooth="yes"/>
      <point x="778" y="-71"/>
      <point x="778" y="-45" type="qcurve" smooth="yes"/>
      <point x="778" y="-34"/>
      <point x="805" y="95"/>
      <point x="810" y="126" type="qcurve"/>
      <point x="800" y="117"/>
      <point x="739" y="92"/>
      <point x="712" y="92" type="qcurve" smooth="yes"/>
      <point x="664" y="92"/>
      <point x="594" y="156"/>
      <point x="594" y="208" type="qcurve" smooth="yes"/>
      <point x="594" y="259"/>
      <point x="640" y="341"/>
      <point x="719" y="394"/>
      <point x="761" y="394" type="qcurve" smooth="yes"/>
      <point x="830" y="394"/>
      <point x="859" y="360" type="qcurve"/>
      <point x="862" y="376"/>
      <point x="878" y="376" type="qcurve" smooth="yes"/>
      <point x="893" y="376"/>
      <point x="925" y="352"/>
      <point x="925" y="337" type="qcurve"/>
      <point x="895" y="229"/>
      <point x="851" y="-44" type="qcurve" smooth="yes"/>
      <point x="848" y="-69"/>
    </contour>
    <contour>
      <point x="259" y="336" type="qcurve" smooth="yes"/>
      <point x="246" y="336"/>
      <point x="213" y="356"/>
      <point x="213" y="373" type="qcurve" smooth="yes"/>
      <point x="215" y="443"/>
      <point x="215" y="683" type="qcurve"/>
      <point x="183" y="664"/>
      <point x="164" y="664" type="qcurve" smooth="yes"/>
      <point x="144" y="664"/>
      <point x="116" y="684"/>
      <point x="116" y="706"/>
      <point x="130" y="712" type="qcurve" smooth="yes"/>
      <point x="156" y="721"/>
      <point x="212" y="762"/>
      <point x="235" y="790"/>
      <point x="249" y="790" type="qcurve" smooth="yes"/>
      <point x="261" y="790"/>
      <point x="291" y="766"/>
      <point x="291" y="750" type="qcurve" smooth="yes"/>
      <point x="287" y="693" type="line"/>
      <point x="287" y="402"/>
      <point x="289" y="358" type="qcurve" smooth="yes"/>
      <point x="289" y="336"/>
    </contour>
    <contour>
      <point x="83" y="-93" type="qcurve" smooth="yes"/>
      <point x="71" y="-93"/>
      <point x="48" y="-55"/>
      <point x="48" y="-41" type="qcurve" smooth="yes"/>
      <point x="48" y="-26"/>
      <point x="55" y="-20" type="qcurve" smooth="yes"/>
      <point x="90" y="7"/>
      <point x="137" y="54" type="qcurve" smooth="yes"/>
      <point x="828" y="749" type="line" smooth="yes"/>
      <point x="887" y="812"/>
      <point x="909" y="840" type="qcurve" smooth="yes"/>
      <point x="917" y="849"/>
      <point x="941" y="849"/>
      <point x="964" y="811"/>
      <point x="964" y="797" type="qcurve" smooth="yes"/>
      <point x="964" y="782"/>
      <point x="957" y="776" type="qcurve" smooth="yes"/>
      <point x="939" y="760"/>
      <point x="894" y="720"/>
      <point x="184" y="6" type="qcurve" smooth="yes"/>
      <point x="145" y="-33"/>
      <point x="102" y="-85" type="qcurve" smooth="yes"/>
      <point x="94" y="-93"/>
    </contour>
  </outline>
</glyph>
<glyph name="uni2157" format="1">
  <advance width="1000" height="1000"/>
  <unicode hex="2157"/>
  <outline>
    <contour>
      <point x="751" y="-71" type="qcurve" smooth="yes"/>
      <point x="710" y="-71"/>
      <point x="640" y="-44"/>
      <point x="597" y="-8"/>
      <point x="597" y="8" type="qcurve" smooth="yes"/>
      <point x="597" y="23"/>
      <point x="622" y="55"/>
      <point x="646" y="55"/>
      <point x="652" y="46" type="qcurve" smooth="yes"/>
      <point x="665" y="28"/>
      <point x="718" y="-1"/>
      <point x="748" y="-1" type="qcurve" smooth="yes"/>
      <point x="803" y="-1"/>
      <point x="855" y="51"/>
      <point x="855" y="86" type="qcurve" smooth="yes"/>
      <point x="855" y="163"/>
      <point x="768" y="163" type="qcurve" smooth="yes"/>
      <point x="746" y="163"/>
      <point x="688" y="150"/>
      <point x="668" y="124"/>
      <point x="656" y="124" type="qcurve" smooth="yes"/>
      <point x="645" y="124"/>
      <point x="613" y="146"/>
      <point x="613" y="159" type="qcurve" smooth="yes"/>
      <point x="613" y="170"/>
      <point x="614" y="174" type="qcurve" smooth="yes"/>
      <point x="619" y="193"/>
      <point x="641" y="336" type="qcurve" smooth="yes"/>
      <point x="643" y="346"/>
      <point x="643" y="368" type="qcurve" smooth="yes"/>
      <point x="643" y="385"/>
      <point x="667" y="385" type="qcurve" smooth="yes"/>
      <point x="685" y="385"/>
      <point x="708" y="375" type="qcurve"/>
      <point x="825" y="382"/>
      <point x="873" y="388" type="qcurve" smooth="yes"/>
      <point x="889" y="388"/>
      <point x="906" y="356"/>
      <point x="906" y="339" type="qcurve" smooth="yes"/>
      <point x="906" y="318"/>
      <point x="879" y="318"/>
      <point x="863" y="317" type="qcurve" smooth="yes"/>
      <point x="839" y="314"/>
      <point x="710" y="307" type="qcurve"/>
      <point x="696" y="218" type="line"/>
      <point x="725" y="232"/>
      <point x="784" y="232" type="qcurve" smooth="yes"/>
      <point x="844" y="232"/>
      <point x="928" y="157"/>
      <point x="928" y="86" type="qcurve" smooth="yes"/>
      <point x="928" y="45"/>
      <point x="908" y="9" type="qcurve" smooth="yes"/>
      <point x="864" y="-71"/>
    </contour>
    <contour>
      <point x="232" y="325" type="qcurve" smooth="yes"/>
      <point x="181" y="325"/>
      <point x="112" y="349"/>
      <point x="72" y="382"/>
      <point x="72" y="398" type="qcurve" smooth="yes"/>
      <point x="72" y="412"/>
      <point x="98" y="444"/>
      <point x="111" y="444" type="qcurve" smooth="yes"/>
      <point x="123" y="444"/>
      <point x="134" y="434" type="qcurve" smooth="yes"/>
      <point x="164" y="395"/>
      <point x="227" y="395" type="qcurve" smooth="yes"/>
      <point x="271" y="395"/>
      <point x="333" y="441"/>
      <point x="333" y="473" type="qcurve" smooth="yes"/>
      <point x="333" y="504"/>
      <point x="288" y="541"/>
      <point x="252" y="541" type="qcurve" smooth="yes"/>
      <point x="241" y="541"/>
      <point x="201" y="533" type="qcurve" smooth="yes"/>
      <point x="184" y="533"/>
      <point x="164" y="564"/>
      <point x="164" y="582" type="qcurve" smooth="yes"/>
      <point x="164" y="603"/>
      <point x="184" y="604" type="qcurve" smooth="yes"/>
      <point x="261" y="613"/>
      <point x="298" y="645" type="qcurve" smooth="yes"/>
      <point x="314" y="659"/>
      <point x="314" y="679" type="qcurve" smooth="yes"/>
      <point x="314" y="698"/>
      <point x="276" y="720"/>
      <point x="250" y="720" type="qcurve" smooth="yes"/>
      <point x="191" y="720"/>
      <point x="161" y="681" type="qcurve" smooth="yes"/>
      <point x="147" y="664"/>
      <point x="117" y="664"/>
      <point x="94" y="694"/>
      <point x="94" y="730"/>
      <point x="141" y="765"/>
      <point x="210" y="790"/>
      <point x="245" y="790" type="qcurve" smooth="yes"/>
      <point x="308" y="790"/>
      <point x="387" y="731"/>
      <point x="387" y="686" type="qcurve" smooth="yes"/>
      <point x="387" y="606"/>
      <point x="333" y="587" type="qcurve"/>
      <point x="353" y="585"/>
      <point x="406" y="523"/>
      <point x="406" y="433"/>
      <point x="362" y="365"/>
      <point x="282" y="325"/>
    </contour>
    <contour>
      <point x="83" y="-93" type="qcurve" smooth="yes"/>
      <point x="71" y="-93"/>
      <point x="48" y="-55"/>
      <point x="48" y="-41" type="qcurve" smooth="yes"/>
      <point x="48" y="-26"/>
      <point x="55" y="-20" type="qcurve" smooth="yes"/>
      <point x="90" y="7"/>
      <point x="137" y="54" type="qcurve" smooth="yes"/>
      <point x="828" y="749" type="line" smooth="yes"/>
      <point x="887" y="812"/>
      <point x="909" y="840" type="qcurve" smooth="yes"/>
      <point x="917" y="849"/>
      <point x="941" y="849"/>
      <point x="964" y="811"/>
      <point x="964" y="797" type="qcurve" smooth="yes"/>
      <point x="964" y="782"/>
      <point x="957" y="776" type="qcurve" smooth="yes"/>
      <point x="939" y="760"/>
      <point x="894" y="720"/>
      <point x="184" y="6" type="qcurve" smooth="yes"/>
      <point x="145" y="-33"/>
      <point x="102" y="-85" type="qcurve" smooth="yes"/>
      <point x="94" y="-93"/>
    </contour>
  </outline>
</glyph>
<glyph name="oneeighth" format="1">
  <advance width="1000" height="1000"/>
  <unicode hex="215B"/>
  <outline>
    <contour>
      <point x="754" y="-4" type="qcurve" smooth="yes"/>
      <point x="803" y="-4"/>
      <point x="857" y="34"/>
      <point x="857" y="64" type="qcurve" smooth="yes"/>
      <point x="857" y="94"/>
      <point x="797" y="131"/>
      <point x="750" y="151" type="qcurve"/>
      <point x="713" y="125"/>
      <point x="666" y="83"/>
      <point x="666" y="61" type="qcurve" smooth="yes"/>
      <point x="666" y="37"/>
      <point x="706" y="-4"/>
    </contour>
    <contour>
      <point x="749" y="225" type="qcurve"/>
      <point x="803" y="259"/>
      <point x="842" y="287" type="qcurve"/>
      <point x="841" y="287" type="line"/>
      <point x="819" y="327"/>
      <point x="760" y="327" type="qcurve" smooth="yes"/>
      <point x="730" y="327"/>
      <point x="685" y="302"/>
      <point x="685" y="284" type="qcurve" smooth="yes"/>
      <point x="685" y="265"/>
      <point x="724" y="236"/>
    </contour>
    <contour>
      <point x="760" y="-71" type="qcurve" smooth="yes"/>
      <point x="681" y="-71"/>
      <point x="595" y="0"/>
      <point x="595" y="56" type="qcurve" smooth="yes"/>
      <point x="595" y="124"/>
      <point x="686" y="185" type="qcurve"/>
      <point x="654" y="202"/>
      <point x="615" y="251"/>
      <point x="615" y="289" type="qcurve" smooth="yes"/>
      <point x="615" y="327"/>
      <point x="694" y="394"/>
      <point x="752" y="394" type="qcurve" smooth="yes"/>
      <point x="850" y="394"/>
      <point x="896" y="331" type="qcurve"/>
      <point x="898" y="329" type="line" smooth="yes"/>
      <point x="900" y="329"/>
      <point x="900" y="335" type="qcurve"/>
      <point x="897" y="332"/>
      <point x="897" y="330" type="qcurve" smooth="yes"/>
      <point x="897" y="329"/>
      <point x="899" y="329" type="qcurve" smooth="yes"/>
      <point x="926" y="329"/>
      <point x="926" y="308" type="qcurve" smooth="yes"/>
      <point x="926" y="296"/>
      <point x="867" y="233"/>
      <point x="813" y="195" type="qcurve"/>
      <point x="858" y="175"/>
      <point x="927" y="117"/>
      <point x="927" y="60" type="qcurve" smooth="yes"/>
      <point x="927" y="3"/>
      <point x="838" y="-71"/>
    </contour>
    <contour>
      <point x="259" y="336" type="qcurve" smooth="yes"/>
      <point x="246" y="336"/>
      <point x="213" y="356"/>
      <point x="213" y="372" type="qcurve" smooth="yes"/>
      <point x="215" y="443" type="line"/>
      <point x="215" y="683" type="line"/>
      <point x="183" y="664"/>
      <point x="164" y="664" type="qcurve" smooth="yes"/>
      <point x="144" y="664"/>
      <point x="116" y="684"/>
      <point x="116" y="695" type="qcurve" smooth="yes"/>
      <point x="116" y="706"/>
      <point x="130" y="712" type="qcurve" smooth="yes"/>
      <point x="156" y="721"/>
      <point x="212" y="762"/>
      <point x="235" y="790"/>
      <point x="249" y="790" type="qcurve" smooth="yes"/>
      <point x="261" y="790"/>
      <point x="291" y="766"/>
      <point x="291" y="750" type="qcurve" smooth="yes"/>
      <point x="287" y="693" type="line"/>
      <point x="287" y="402"/>
      <point x="289" y="358" type="qcurve" smooth="yes"/>
      <point x="289" y="336"/>
    </contour>
    <contour>
      <point x="83" y="-93" type="qcurve" smooth="yes"/>
      <point x="71" y="-93"/>
      <point x="48" y="-55"/>
      <point x="48" y="-41" type="qcurve" smooth="yes"/>
      <point x="48" y="-26"/>
      <point x="55" y="-20" type="qcurve" smooth="yes"/>
      <point x="90" y="7"/>
      <point x="137" y="54" type="qcurve" smooth="yes"/>
      <point x="828" y="749" type="line" smooth="yes"/>
      <point x="887" y="812"/>
      <point x="909" y="840" type="qcurve" smooth="yes"/>
      <point x="917" y="849"/>
      <point x="929" y="849" type="qcurve" smooth="yes"/>
      <point x="941" y="849"/>
      <point x="964" y="811"/>
      <point x="964" y="797" type="qcurve" smooth="yes"/>
      <point x="964" y="782"/>
      <point x="957" y="776" type="qcurve" smooth="yes"/>
      <point x="939" y="760"/>
      <point x="895" y="721"/>
      <point x="875" y="701" type="qcurve" smooth="yes"/>
      <point x="184" y="6" type="line" smooth="yes"/>
      <point x="145" y="-33"/>
      <point x="102" y="-85" type="qcurve" smooth="yes"/>
      <point x="94" y="-93"/>
    </contour>
  </outline>
</glyph>
<glyph name="uni2163" format="1">
  <advance width="1000" height="1000"/>
  <unicode hex="2163"/>
  <outline>
    <contour>
      <point x="272" y="-16" type="qcurve" smooth="yes"/>
      <point x="252" y="-16"/>
      <point x="208" y="1"/>
      <point x="208" y="18" type="qcurve" smooth="yes"/>
      <point x="210" y="107" type="line"/>
      <point x="210" y="589"/>
      <point x="207" y="695" type="qcurve" smooth="yes"/>
      <point x="207" y="711"/>
      <point x="232" y="711" type="qcurve" smooth="yes"/>
      <point x="252" y="711"/>
      <point x="296" y="694"/>
      <point x="296" y="677" type="qcurve" smooth="yes"/>
      <point x="294" y="588" type="line"/>
      <point x="294" y="106"/>
      <point x="297" y="0" type="qcurve" smooth="yes"/>
      <point x="297" y="-16"/>
    </contour>
    <contour>
      <point x="622" y="-24" type="qcurve" smooth="yes"/>
      <point x="605" y="-24"/>
      <point x="564" y="11"/>
      <point x="554" y="45" type="qcurve" smooth="yes"/>
      <point x="515" y="188"/>
      <point x="402" y="531"/>
      <point x="366" y="632"/>
      <point x="352" y="668"/>
      <point x="346" y="684"/>
      <point x="346" y="688" type="qcurve" smooth="yes"/>
      <point x="346" y="710"/>
      <point x="389" y="710" type="qcurve" smooth="yes"/>
      <point x="430" y="710"/>
      <point x="438" y="687" type="qcurve" smooth="yes"/>
      <point x="442" y="673"/>
      <point x="447" y="647"/>
      <point x="571" y="280"/>
      <point x="612" y="124" type="qcurve"/>
      <point x="650" y="255"/>
      <point x="738" y="522"/>
      <point x="775" y="639"/>
      <point x="788" y="700" type="qcurve" smooth="yes"/>
      <point x="792" y="717"/>
      <point x="810" y="717" type="qcurve" smooth="yes"/>
      <point x="825" y="717"/>
      <point x="839" y="709" type="qcurve" smooth="yes"/>
      <point x="875" y="693"/>
      <point x="875" y="670" type="qcurve" smooth="yes"/>
      <point x="875" y="666"/>
      <point x="857" y="626"/>
      <point x="847" y="598" type="qcurve" smooth="yes"/>
      <point x="824" y="525"/>
      <point x="713" y="206"/>
      <point x="675" y="79" type="qcurve"/>
      <point x="661" y="-1"/>
      <point x="640" y="-24"/>
    </contour>
  </outline>
</glyph>
<glyph name="uni2167" format="1">
  <advance width="1000" height="1000"/>
  <unicode hex="2167"/>
  <outline>
    <contour>
      <point x="572" y="-16" type="qcurve" smooth="yes"/>
      <point x="553" y="-16"/>
      <point x="511" y="1"/>
      <point x="511" y="18" type="qcurve" smooth="yes"/>
      <point x="513" y="107" type="line"/>
      <point x="513" y="589"/>
      <point x="510" y="695" type="qcurve" smooth="yes"/>
      <point x="510" y="711"/>
      <point x="535" y="711" type="qcurve" smooth="yes"/>
      <point x="554" y="711"/>
      <point x="595" y="694"/>
      <point x="595" y="677" type="qcurve" smooth="yes"/>
      <point x="593" y="588" type="line"/>
      <point x="593" y="106"/>
      <point x="596" y="0" type="qcurve" smooth="yes"/>
      <point x="596" y="-16"/>
    </contour>
    <contour>
      <point x="737" y="-16" type="qcurve" smooth="yes"/>
      <point x="718" y="-16"/>
      <point x="676" y="1"/>
      <point x="676" y="18" type="qcurve" smooth="yes"/>
      <point x="678" y="107" type="line"/>
      <point x="678" y="589"/>
      <point x="675" y="695" type="qcurve" smooth="yes"/>
      <point x="675" y="711"/>
      <point x="700" y="711" type="qcurve" smooth="yes"/>
      <point x="719" y="711"/>
      <point x="760" y="694"/>
      <point x="760" y="677" type="qcurve" smooth="yes"/>
      <point x="758" y="588" type="line"/>
      <point x="758" y="106"/>
      <point x="761" y="0" type="qcurve" smooth="yes"/>
      <point x="761" y="-16"/>
    </contour>
    <contour>
      <point x="904" y="-16" type="qcurve" smooth="yes"/>
      <point x="885" y="-16"/>
      <point x="843" y="1"/>
      <point x="843" y="18" type="qcurve" smooth="yes"/>
      <point x="845" y="107" type="line"/>
      <point x="845" y="589"/>
      <point x="842" y="695" type="qcurve" smooth="yes"/>
      <point x="842" y="711"/>
      <point x="867" y="711" type="qcurve" smooth="yes"/>
      <point x="886" y="711"/>
      <point x="927" y="694"/>
      <point x="927" y="677" type="qcurve" smooth="yes"/>
      <point x="925" y="588" type="line"/>
      <point x="925" y="106"/>
      <point x="928" y="0" type="qcurve" smooth="yes"/>
      <point x="928" y="-16"/>
    </contour>
    <contour>
      <point x="281" y="-23" type="qcurve" smooth="yes"/>
      <point x="257" y="-23"/>
      <point x="216" y="11"/>
      <point x="207" y="46" type="qcurve" smooth="yes"/>
      <point x="140" y="330"/>
      <point x="53" y="612" type="qcurve" smooth="yes"/>
      <point x="47" y="633"/>
      <point x="26" y="683"/>
      <point x="26" y="688" type="qcurve" smooth="yes"/>
      <point x="26" y="710"/>
      <point x="69" y="710" type="qcurve" smooth="yes"/>
      <point x="110" y="710"/>
      <point x="118" y="687" type="qcurve" smooth="yes"/>
      <point x="122" y="676"/>
      <point x="127" y="645"/>
      <point x="218" y="328"/>
      <point x="265" y="126" type="qcurve"/>
      <point x="300" y="254"/>
      <point x="363" y="522"/>
      <point x="398" y="636"/>
      <point x="412" y="700" type="qcurve" smooth="yes"/>
      <point x="416" y="717"/>
      <point x="434" y="717" type="qcurve" smooth="yes"/>
      <point x="449" y="717"/>
      <point x="463" y="709" type="qcurve" smooth="yes"/>
      <point x="499" y="693"/>
      <point x="499" y="670" type="qcurve" smooth="yes"/>
      <point x="499" y="666"/>
      <point x="477" y="617"/>
      <point x="438" y="493"/>
      <point x="335" y="118"/>
      <point x="312" y="6" type="qcurve" smooth="yes"/>
      <point x="307" y="-23"/>
    </contour>
  </outline>
</glyph>
<glyph name="uni2168" format="1">
  <advance width="1000" height="1000"/>
  <unicode hex="2168"/>
  <outline>
    <contour>
      <point x="275" y="-16" type="qcurve" smooth="yes"/>
      <point x="255" y="-16"/>
      <point x="211" y="1"/>
      <point x="211" y="18" type="qcurve" smooth="yes"/>
      <point x="213" y="107" type="line"/>
      <point x="213" y="589"/>
      <point x="210" y="695" type="qcurve" smooth="yes"/>
      <point x="210" y="711"/>
      <point x="235" y="711" type="qcurve" smooth="yes"/>
      <point x="255" y="711"/>
      <point x="299" y="694"/>
      <point x="299" y="677" type="qcurve" smooth="yes"/>
      <point x="297" y="588" type="line"/>
      <point x="297" y="106"/>
      <point x="300" y="0" type="qcurve" smooth="yes"/>
      <point x="300" y="-16"/>
    </contour>
    <contour>
      <point x="820" y="-16" type="qcurve" smooth="yes"/>
      <point x="799" y="-16"/>
      <point x="791" y="-3" type="qcurve" smooth="yes"/>
      <point x="765" y="58"/>
      <point x="751" y="82" type="qcurve" smooth="yes"/>
      <point x="626" y="292" type="line"/>
      <point x="497" y="82" type="line" smooth="yes"/>
      <point x="485" y="62"/>
      <point x="452" y="-2" type="qcurve" smooth="yes"/>
      <point x="447" y="-16"/>
      <point x="423" y="-16" type="qcurve" smooth="yes"/>
      <point x="402" y="-16"/>
      <point x="360" y="2"/>
      <point x="360" y="17" type="qcurve" smooth="yes"/>
      <point x="360" y="23"/>
      <point x="385" y="56" type="qcurve" smooth="yes"/>
      <point x="401" y="76"/>
      <point x="581" y="370" type="qcurve"/>
      <point x="452" y="588" type="line" smooth="yes"/>
      <point x="426" y="638"/>
      <point x="403" y="668" type="qcurve" smooth="yes"/>
      <point x="399" y="674"/>
      <point x="399" y="679" type="qcurve" smooth="yes"/>
      <point x="399" y="694"/>
      <point x="443" y="713"/>
      <point x="461" y="713" type="qcurve" smooth="yes"/>
      <point x="481" y="713"/>
      <point x="486" y="701" type="qcurve" smooth="yes"/>
      <point x="510" y="644"/>
      <point x="521" y="626" type="qcurve" smooth="yes"/>
      <point x="627" y="447" type="line"/>
      <point x="736" y="624" type="line" smooth="yes"/>
      <point x="748" y="643"/>
      <point x="772" y="696" type="qcurve" smooth="yes"/>
      <point x="778" y="710"/>
      <point x="796" y="710" type="qcurve" smooth="yes"/>
      <point x="812" y="710"/>
      <point x="856" y="684"/>
      <point x="856" y="669" type="qcurve" smooth="yes"/>
      <point x="856" y="667"/>
      <point x="673" y="369" type="qcurve"/>
      <point x="818" y="123" type="line" smooth="yes"/>
      <point x="849" y="69"/>
      <point x="880" y="28" type="qcurve"/>
      <point x="883" y="21" type="line"/>
      <point x="883" y="6"/>
      <point x="838" y="-16"/>
    </contour>
  </outline>
</glyph>
<glyph name="uni216A" format="1">
  <advance width="1000" height="1000"/>
  <unicode hex="216A"/>
  <outline>
    <contour>
      <point x="787" y="-16" type="qcurve" smooth="yes"/>
      <point x="767" y="-16"/>
      <point x="723" y="1"/>
      <point x="723" y="18" type="qcurve" smooth="yes"/>
      <point x="725" y="107" type="line"/>
      <point x="725" y="589"/>
      <point x="722" y="695" type="qcurve" smooth="yes"/>
      <point x="722" y="711"/>
      <point x="747" y="711" type="qcurve" smooth="yes"/>
      <point x="767" y="711"/>
      <point x="811" y="694"/>
      <point x="811" y="677" type="qcurve" smooth="yes"/>
      <point x="809" y="588" type="line"/>
      <point x="809" y="106"/>
      <point x="812" y="0" type="qcurve" smooth="yes"/>
      <point x="812" y="-16"/>
    </contour>
    <contour>
      <point x="584" y="-16" type="qcurve" smooth="yes"/>
      <point x="563" y="-16"/>
      <point x="555" y="-3" type="qcurve" smooth="yes"/>
      <point x="529" y="58"/>
      <point x="515" y="82" type="qcurve" smooth="yes"/>
      <point x="390" y="292" type="line"/>
      <point x="261" y="82" type="line" smooth="yes"/>
      <point x="249" y="62"/>
      <point x="216" y="-2" type="qcurve" smooth="yes"/>
      <point x="211" y="-16"/>
      <point x="187" y="-16" type="qcurve" smooth="yes"/>
      <point x="166" y="-16"/>
      <point x="124" y="2"/>
      <point x="124" y="17" type="qcurve" smooth="yes"/>
      <point x="124" y="23"/>
      <point x="149" y="56" type="qcurve" smooth="yes"/>
      <point x="165" y="76"/>
      <point x="345" y="370" type="qcurve"/>
      <point x="216" y="588" type="line" smooth="yes"/>
      <point x="190" y="638"/>
      <point x="167" y="668" type="qcurve" smooth="yes"/>
      <point x="163" y="674"/>
      <point x="163" y="679" type="qcurve" smooth="yes"/>
      <point x="163" y="694"/>
      <point x="207" y="713"/>
      <point x="225" y="713" type="qcurve" smooth="yes"/>
      <point x="245" y="713"/>
      <point x="250" y="701" type="qcurve" smooth="yes"/>
      <point x="274" y="644"/>
      <point x="285" y="626" type="qcurve" smooth="yes"/>
      <point x="391" y="447" type="line"/>
      <point x="500" y="624" type="line" smooth="yes"/>
      <point x="512" y="643"/>
      <point x="536" y="696" type="qcurve" smooth="yes"/>
      <point x="542" y="710"/>
      <point x="560" y="710" type="qcurve" smooth="yes"/>
      <point x="576" y="710"/>
      <point x="620" y="684"/>
      <point x="620" y="669" type="qcurve" smooth="yes"/>
      <point x="620" y="666"/>
      <point x="611" y="652"/>
      <point x="437" y="369" type="qcurve"/>
      <point x="582" y="123" type="line" smooth="yes"/>
      <point x="613" y="69"/>
      <point x="644" y="28" type="qcurve"/>
      <point x="647" y="21" type="line"/>
      <point x="647" y="6"/>
      <point x="602" y="-16"/>
    </contour>
  </outline>
</glyph>
<glyph name="uni216B" format="1">
  <advance width="1000" height="1000"/>
  <unicode hex="216B"/>
  <outline>
    <contour>
      <point x="682" y="-16" type="qcurve" smooth="yes"/>
      <point x="662" y="-16"/>
      <point x="619" y="1"/>
      <point x="619" y="18" type="qcurve" smooth="yes"/>
      <point x="621" y="107" type="line"/>
      <point x="621" y="589"/>
      <point x="618" y="695" type="qcurve" smooth="yes"/>
      <point x="618" y="711"/>
      <point x="643" y="711" type="qcurve" smooth="yes"/>
      <point x="663" y="711"/>
      <point x="705" y="694"/>
      <point x="705" y="677" type="qcurve" smooth="yes"/>
      <point x="703" y="588" type="line"/>
      <point x="703" y="106"/>
      <point x="706" y="0" type="qcurve" smooth="yes"/>
      <point x="706" y="-16"/>
    </contour>
    <contour>
      <point x="874" y="-16" type="qcurve" smooth="yes"/>
      <point x="854" y="-16"/>
      <point x="811" y="1"/>
      <point x="811" y="18" type="qcurve" smooth="yes"/>
      <point x="813" y="107" type="line"/>
      <point x="813" y="589"/>
      <point x="810" y="695" type="qcurve" smooth="yes"/>
      <point x="810" y="711"/>
      <point x="835" y="711" type="qcurve" smooth="yes"/>
      <point x="855" y="711"/>
      <point x="897" y="694"/>
      <point x="897" y="677" type="qcurve" smooth="yes"/>
      <point x="895" y="588" type="line"/>
      <point x="895" y="106"/>
      <point x="898" y="0" type="qcurve" smooth="yes"/>
      <point x="898" y="-16"/>
    </contour>
    <contour>
      <point x="510" y="-16" type="qcurve" smooth="yes"/>
      <point x="489" y="-16"/>
      <point x="481" y="-3" type="qcurve" smooth="yes"/>
      <point x="455" y="58"/>
      <point x="441" y="82" type="qcurve" smooth="yes"/>
      <point x="316" y="292" type="line"/>
      <point x="187" y="82" type="line" smooth="yes"/>
      <point x="175" y="62"/>
      <point x="142" y="-2" type="qcurve" smooth="yes"/>
      <point x="137" y="-16"/>
      <point x="113" y="-16" type="qcurve" smooth="yes"/>
      <point x="92" y="-16"/>
      <point x="50" y="2"/>
      <point x="50" y="17" type="qcurve" smooth="yes"/>
      <point x="50" y="23"/>
      <point x="75" y="56" type="qcurve" smooth="yes"/>
      <point x="91" y="76"/>
      <point x="271" y="370" type="qcurve"/>
      <point x="142" y="588" type="line" smooth="yes"/>
      <point x="116" y="638"/>
      <point x="93" y="668" type="qcurve" smooth="yes"/>
      <point x="89" y="674"/>
      <point x="89" y="679" type="qcurve" smooth="yes"/>
      <point x="89" y="694"/>
      <point x="133" y="713"/>
      <point x="151" y="713" type="qcurve" smooth="yes"/>
      <point x="171" y="713"/>
      <point x="176" y="701" type="qcurve" smooth="yes"/>
      <point x="200" y="644"/>
      <point x="211" y="626" type="qcurve" smooth="yes"/>
      <point x="317" y="447" type="line"/>
      <point x="426" y="624" type="line" smooth="yes"/>
      <point x="438" y="643"/>
      <point x="462" y="696" type="qcurve" smooth="yes"/>
      <point x="468" y="710"/>
      <point x="486" y="710" type="qcurve" smooth="yes"/>
      <point x="502" y="710"/>
      <point x="546" y="684"/>
      <point x="546" y="669" type="qcurve" smooth="yes"/>
      <point x="546" y="666"/>
      <point x="537" y="652"/>
      <point x="363" y="369" type="qcurve"/>
      <point x="508" y="123" type="line" smooth="yes"/>
      <point x="539" y="69"/>
      <point x="570" y="28" type="qcurve"/>
      <point x="573" y="21" type="line"/>
      <point x="573" y="6"/>
      <point x="528" y="-16"/>
    </contour>
  </outline>
</glyph>
<glyph name="uni2174" format="1">
  <advance width="1000" height="1000"/>
  <unicode hex="2174"/>
  <outline>
    <contour>
      <point x="479" y="-24"/>
      <point x="462" y="-3" type="qcurve" smooth="yes"/>
      <point x="453" y="6"/>
      <point x="446" y="25"/>
      <point x="304" y="404"/>
      <point x="278" y="459"/>
      <point x="278" y="463" type="qcurve" smooth="yes"/>
      <point x="278" y="487"/>
      <point x="334" y="487" type="qcurve" smooth="yes"/>
      <point x="363" y="487"/>
      <point x="371" y="458"/>
      <point x="379" y="425"/>
      <point x="493" y="107" type="qcurve"/>
      <point x="617" y="407" type="line" smooth="yes"/>
      <point x="629" y="436"/>
      <point x="640" y="478" type="qcurve" smooth="yes"/>
      <point x="645" y="492"/>
      <point x="666" y="492" type="qcurve" smooth="yes"/>
      <point x="684" y="492"/>
      <point x="726" y="473"/>
      <point x="726" y="457" type="qcurve" smooth="yes"/>
      <point x="726" y="454"/>
      <point x="698" y="400"/>
      <point x="624" y="223" type="qcurve" smooth="yes"/>
      <point x="547" y="42"/>
      <point x="534" y="3" type="qcurve" smooth="yes"/>
      <point x="525" y="-24"/>
    </contour>
  </outline>
</glyph>
<glyph name="uni2176" format="1">
  <advance width="1000" height="1000"/>
  <unicode hex="2176"/>
  <outline>
    <contour>
      <point x="661" y="-16" type="qcurve" smooth="yes"/>
      <point x="642" y="-16"/>
      <point x="598" y="1"/>
      <point x="598" y="17" type="qcurve" smooth="yes"/>
      <point x="600" y="105" type="line"/>
      <point x="600" y="368"/>
      <point x="597" y="475" type="qcurve" smooth="yes"/>
      <point x="597" y="490"/>
      <point x="621" y="490" type="qcurve" smooth="yes"/>
      <point x="640" y="490"/>
      <point x="683" y="473"/>
      <point x="683" y="457" type="qcurve" smooth="yes"/>
      <point x="681" y="368" type="line"/>
      <point x="681" y="105"/>
      <point x="684" y="-1" type="qcurve" smooth="yes"/>
      <point x="684" y="-16"/>
    </contour>
    <contour>
      <point x="834" y="-16" type="qcurve" smooth="yes"/>
      <point x="815" y="-16"/>
      <point x="771" y="1"/>
      <point x="771" y="17" type="qcurve" smooth="yes"/>
      <point x="773" y="105" type="line"/>
      <point x="773" y="368"/>
      <point x="770" y="475" type="qcurve" smooth="yes"/>
      <point x="770" y="490"/>
      <point x="794" y="490" type="qcurve" smooth="yes"/>
      <point x="813" y="490"/>
      <point x="856" y="473"/>
      <point x="856" y="457" type="qcurve" smooth="yes"/>
      <point x="854" y="368" type="line"/>
      <point x="854" y="105"/>
      <point x="857" y="-1" type="qcurve" smooth="yes"/>
      <point x="857" y="-16"/>
    </contour>
    <contour>
      <point x="317" y="-24"/>
      <point x="300" y="-3" type="qcurve" smooth="yes"/>
      <point x="291" y="6"/>
      <point x="284" y="25"/>
      <point x="142" y="404"/>
      <point x="116" y="459"/>
      <point x="116" y="463" type="qcurve" smooth="yes"/>
      <point x="116" y="487"/>
      <point x="172" y="487" type="qcurve" smooth="yes"/>
      <point x="201" y="487"/>
      <point x="209" y="458"/>
      <point x="217" y="425"/>
      <point x="331" y="107" type="qcurve"/>
      <point x="455" y="407" type="line" smooth="yes"/>
      <point x="467" y="436"/>
      <point x="478" y="478" type="qcurve" smooth="yes"/>
      <point x="483" y="492"/>
      <point x="504" y="492" type="qcurve" smooth="yes"/>
      <point x="522" y="492"/>
      <point x="564" y="473"/>
      <point x="564" y="457" type="qcurve" smooth="yes"/>
      <point x="564" y="454"/>
      <point x="536" y="400"/>
      <point x="462" y="223" type="qcurve" smooth="yes"/>
      <point x="385" y="42"/>
      <point x="372" y="3" type="qcurve" smooth="yes"/>
      <point x="363" y="-24"/>
    </contour>
    <contour>
      <point x="618" y="584"/>
      <point x="584" y="627"/>
      <point x="584" y="650" type="qcurve" smooth="yes"/>
      <point x="584" y="672"/>
      <point x="612" y="704"/>
      <point x="637" y="704" type="qcurve" smooth="yes"/>
      <point x="661" y="704"/>
      <point x="695" y="660"/>
      <point x="695" y="638" type="qcurve" smooth="yes"/>
      <point x="695" y="615"/>
      <point x="666" y="584"/>
    </contour>
    <contour>
      <point x="791" y="584"/>
      <point x="757" y="627"/>
      <point x="757" y="650" type="qcurve" smooth="yes"/>
      <point x="757" y="672"/>
      <point x="785" y="704"/>
      <point x="810" y="704" type="qcurve" smooth="yes"/>
      <point x="834" y="704"/>
      <point x="868" y="660"/>
      <point x="868" y="638" type="qcurve" smooth="yes"/>
      <point x="868" y="615"/>
      <point x="839" y="584"/>
    </contour>
  </outline>
</glyph>
<glyph name="uni2179" format="1">
  <advance width="1000" height="1000"/>
  <unicode hex="2179"/>
  <outline>
    <contour>
      <point x="340" y="-17" type="qcurve" smooth="yes"/>
      <point x="320" y="-17"/>
      <point x="281" y="-2"/>
      <point x="281" y="10" type="qcurve" smooth="yes"/>
      <point x="281" y="16"/>
      <point x="306" y="41"/>
      <point x="348" y="94" type="qcurve" smooth="yes"/>
      <point x="459" y="244" type="line"/>
      <point x="354" y="388" type="line" smooth="yes"/>
      <point x="333" y="416"/>
      <point x="298" y="452"/>
      <point x="298" y="456" type="qcurve" smooth="yes"/>
      <point x="298" y="468"/>
      <point x="344" y="485"/>
      <point x="361" y="485" type="qcurve" smooth="yes"/>
      <point x="380" y="485"/>
      <point x="385" y="474" type="qcurve" smooth="yes"/>
      <point x="394" y="456"/>
      <point x="504" y="305" type="qcurve"/>
      <point x="614" y="456"/>
      <point x="627" y="480" type="qcurve" smooth="yes"/>
      <point x="633" y="489"/>
      <point x="652" y="489" type="qcurve" smooth="yes"/>
      <point x="668" y="489"/>
      <point x="711" y="472"/>
      <point x="711" y="460" type="qcurve" smooth="yes"/>
      <point x="711" y="456"/>
      <point x="680" y="425"/>
      <point x="655" y="392" type="qcurve" smooth="yes"/>
      <point x="547" y="245" type="line"/>
      <point x="657" y="96" type="line" smooth="yes"/>
      <point x="669" y="80"/>
      <point x="723" y="19"/>
      <point x="723" y="13" type="qcurve" smooth="yes"/>
      <point x="723" y="0"/>
      <point x="683" y="-15"/>
      <point x="664" y="-15" type="qcurve" smooth="yes"/>
      <point x="642" y="-15"/>
      <point x="627" y="8"/>
      <point x="616" y="25" type="qcurve" smooth="yes"/>
      <point x="503" y="184" type="line"/>
      <point x="397" y="39"/>
      <point x="377" y="7"/>
      <point x="361" y="-17"/>
    </contour>
  </outline>
</glyph>
<glyph name="uni2189" format="1">
  <advance width="1000" height="1000"/>
  <unicode hex="2189"/>
  <outline>
    <contour>
      <point x="755" y="-71" type="qcurve" smooth="yes"/>
      <point x="704" y="-71"/>
      <point x="635" y="-47"/>
      <point x="595" y="-14"/>
      <point x="595" y="2" type="qcurve" smooth="yes"/>
      <point x="595" y="16"/>
      <point x="621" y="48"/>
      <point x="634" y="48" type="qcurve" smooth="yes"/>
      <point x="646" y="48"/>
      <point x="657" y="38" type="qcurve" smooth="yes"/>
      <point x="687" y="-1"/>
      <point x="750" y="-1" type="qcurve" smooth="yes"/>
      <point x="794" y="-1"/>
      <point x="856" y="45"/>
      <point x="856" y="77" type="qcurve" smooth="yes"/>
      <point x="856" y="108"/>
      <point x="811" y="145"/>
      <point x="775" y="145" type="qcurve" smooth="yes"/>
      <point x="764" y="145"/>
      <point x="724" y="137" type="qcurve" smooth="yes"/>
      <point x="707" y="137"/>
      <point x="687" y="168"/>
      <point x="687" y="186" type="qcurve" smooth="yes"/>
      <point x="687" y="207"/>
      <point x="707" y="208" type="qcurve" smooth="yes"/>
      <point x="785" y="217"/>
      <point x="822" y="248" type="qcurve" smooth="yes"/>
      <point x="837" y="263"/>
      <point x="837" y="283" type="qcurve" smooth="yes"/>
      <point x="837" y="302"/>
      <point x="799" y="324"/>
      <point x="772" y="324" type="qcurve" smooth="yes"/>
      <point x="714" y="324"/>
      <point x="684" y="285" type="qcurve" smooth="yes"/>
      <point x="670" y="268"/>
      <point x="640" y="268"/>
      <point x="631" y="278" type="qcurve" smooth="yes"/>
      <point x="617" y="298"/>
      <point x="617" y="334"/>
      <point x="664" y="369"/>
      <point x="733" y="394"/>
      <point x="768" y="394" type="qcurve" smooth="yes"/>
      <point x="831" y="394"/>
      <point x="910" y="335"/>
      <point x="910" y="290" type="qcurve" smooth="yes"/>
      <point x="910" y="210"/>
      <point x="856" y="191" type="qcurve"/>
      <point x="876" y="189"/>
      <point x="929" y="127"/>
      <point x="929" y="37"/>
      <point x="885" y="-31"/>
      <point x="805" y="-71"/>
    </contour>
    <contour>
      <point x="277" y="396"/>
      <point x="327" y="486"/>
      <point x="327" y="658"/>
      <point x="290" y="700" type="qcurve" smooth="yes"/>
      <point x="271" y="720"/>
      <point x="248" y="720" type="qcurve" smooth="yes"/>
      <point x="223" y="720"/>
      <point x="202" y="701" type="qcurve" smooth="yes"/>
      <point x="150" y="653"/>
      <point x="150" y="552" type="qcurve" smooth="yes"/>
      <point x="150" y="482"/>
      <point x="191" y="396"/>
    </contour>
    <contour>
      <point x="182" y="325"/>
      <point x="146" y="355" type="qcurve" smooth="yes"/>
      <point x="78" y="413"/>
      <point x="78" y="550" type="qcurve" smooth="yes"/>
      <point x="78" y="655"/>
      <point x="117" y="724" type="qcurve" smooth="yes"/>
      <point x="133" y="755"/>
      <point x="150" y="755" type="qcurve" smooth="yes"/>
      <point x="158" y="755"/>
      <point x="161" y="753" type="qcurve" smooth="yes"/>
      <point x="175" y="768"/>
      <point x="225" y="790"/>
      <point x="246" y="790" type="qcurve" smooth="yes"/>
      <point x="320" y="790"/>
      <point x="399" y="663"/>
      <point x="399" y="560" type="qcurve" smooth="yes"/>
      <point x="399" y="419"/>
      <point x="328" y="357" type="qcurve" smooth="yes"/>
      <point x="292" y="325"/>
    </contour>
    <contour>
      <point x="83" y="-93" type="qcurve" smooth="yes"/>
      <point x="71" y="-93"/>
      <point x="48" y="-55"/>
      <point x="48" y="-41" type="qcurve" smooth="yes"/>
      <point x="48" y="-26"/>
      <point x="55" y="-20" type="qcurve" smooth="yes"/>
      <point x="90" y="7"/>
      <point x="137" y="54" type="qcurve" smooth="yes"/>
      <point x="828" y="749" type="line" smooth="yes"/>
      <point x="887" y="812"/>
      <point x="909" y="840" type="qcurve" smooth="yes"/>
      <point x="917" y="849"/>
      <point x="941" y="849"/>
      <point x="964" y="811"/>
      <point x="964" y="797" type="qcurve" smooth="yes"/>
      <point x="964" y="782"/>
      <point x="957" y="776" type="qcurve" smooth="yes"/>
      <point x="939" y="760"/>
      <point x="894" y="720"/>
      <point x="184" y="6" type="qcurve" smooth="yes"/>
      <point x="145" y="-33"/>
      <point x="102" y="-85" type="qcurve" smooth="yes"/>
      <point x="94" y="-93"/>
    </contour>
  </outline>
</glyph>
<glyph name="arrowleft" format="1">
  <advance width="1000" height="1000"/>
  <unicode hex="2190"/>
  <outline>
    <contour>
      <point x="292" y="192"/>
      <point x="273" y="205"/>
      <point x="250" y="226"/>
      <point x="206" y="257"/>
      <point x="119" y="317"/>
      <point x="71" y="339" type="qcurve" smooth="yes"/>
      <point x="53" y="346"/>
      <point x="53" y="370" type="qcurve" smooth="yes"/>
      <point x="53" y="393"/>
      <point x="71" y="400" type="qcurve" smooth="yes"/>
      <point x="128" y="427"/>
      <point x="229" y="497" type="qcurve" smooth="yes"/>
      <point x="250" y="512"/>
      <point x="288" y="546"/>
      <point x="312" y="546"/>
      <point x="333" y="518"/>
      <point x="333" y="505" type="qcurve" smooth="yes"/>
      <point x="333" y="475"/>
      <point x="208" y="404" type="qcurve"/>
      <point x="919" y="404" type="line" smooth="yes"/>
      <point x="933" y="404"/>
      <point x="948" y="381"/>
      <point x="948" y="369" type="qcurve" smooth="yes"/>
      <point x="948" y="334"/>
      <point x="919" y="334" type="qcurve" smooth="yes"/>
      <point x="208" y="334" type="line"/>
      <point x="333" y="263"/>
      <point x="333" y="234" type="qcurve" smooth="yes"/>
      <point x="333" y="220"/>
      <point x="312" y="192"/>
    </contour>
  </outline>
</glyph>
<glyph name="arrowdown" format="1">
  <advance width="1000" height="1000"/>
  <unicode hex="2193"/>
  <outline>
    <contour>
      <point x="501" y="-77" type="qcurve" smooth="yes"/>
      <point x="477" y="-77"/>
      <point x="470" y="-59" type="qcurve" smooth="yes"/>
      <point x="448" y="-11"/>
      <point x="388" y="76"/>
      <point x="357" y="120"/>
      <point x="348" y="132" type="qcurve" smooth="yes"/>
      <point x="324" y="157"/>
      <point x="324" y="169" type="qcurve" smooth="yes"/>
      <point x="324" y="182"/>
      <point x="352" y="203"/>
      <point x="365" y="203" type="qcurve" smooth="yes"/>
      <point x="394" y="203"/>
      <point x="465" y="78" type="qcurve"/>
      <point x="465" y="789" type="line" smooth="yes"/>
      <point x="465" y="818"/>
      <point x="500" y="818" type="qcurve" smooth="yes"/>
      <point x="512" y="818"/>
      <point x="535" y="803"/>
      <point x="535" y="789" type="qcurve" smooth="yes"/>
      <point x="535" y="78" type="line"/>
      <point x="606" y="203"/>
      <point x="635" y="203" type="qcurve" smooth="yes"/>
      <point x="648" y="203"/>
      <point x="676" y="182"/>
      <point x="676" y="171" type="qcurve" smooth="yes"/>
      <point x="676" y="161"/>
      <point x="664" y="143"/>
      <point x="643" y="120"/>
      <point x="627" y="99" type="qcurve" smooth="yes"/>
      <point x="558" y="-2"/>
      <point x="531" y="-59" type="qcurve" smooth="yes"/>
      <point x="524" y="-77"/>
    </contour>
  </outline>
</glyph>
<glyph name="uni2197" format="1">
  <advance width="1000" height="1000"/>
  <unicode hex="2197"/>
  <outline>
    <contour>
      <point x="172" y="19"/>
      <point x="147" y="44"/>
      <point x="147" y="56" type="qcurve" smooth="yes"/>
      <point x="147" y="67"/>
      <point x="154" y="74" type="qcurve" smooth="yes"/>
      <point x="671" y="593" type="line"/>
      <point x="592" y="573"/>
      <point x="532" y="566" type="qcurve" smooth="yes"/>
      <point x="516" y="566"/>
      <point x="499" y="594"/>
      <point x="499" y="612" type="qcurve" smooth="yes"/>
      <point x="499" y="634"/>
      <point x="519" y="635" type="qcurve" smooth="yes"/>
      <point x="676" y="653"/>
      <point x="771" y="687" type="qcurve" smooth="yes"/>
      <point x="774" y="688"/>
      <point x="783" y="688" type="qcurve" smooth="yes"/>
      <point x="793" y="688"/>
      <point x="815" y="668"/>
      <point x="815" y="657" type="qcurve" smooth="yes"/>
      <point x="815" y="648"/>
      <point x="808" y="628" type="qcurve" smooth="yes"/>
      <point x="779" y="551"/>
      <point x="762" y="392" type="qcurve" smooth="yes"/>
      <point x="759" y="372"/>
      <point x="738" y="372" type="qcurve" smooth="yes"/>
      <point x="720" y="372"/>
      <point x="693" y="389"/>
      <point x="693" y="405" type="qcurve" smooth="yes"/>
      <point x="700" y="465"/>
      <point x="720" y="544" type="qcurve"/>
      <point x="205" y="28" type="line" smooth="yes"/>
      <point x="196" y="19"/>
    </contour>
  </outline>
</glyph>
<glyph name="uni2199" format="1">
  <advance width="1000" height="1000"/>
  <unicode hex="2199"/>
  <outline>
    <contour>
      <point x="226" y="50" type="qcurve" smooth="yes"/>
      <point x="215" y="50"/>
      <point x="195" y="72"/>
      <point x="195" y="82" type="qcurve" smooth="yes"/>
      <point x="195" y="91"/>
      <point x="207" y="122"/>
      <point x="236" y="239"/>
      <point x="248" y="346" type="qcurve" smooth="yes"/>
      <point x="251" y="366"/>
      <point x="272" y="366" type="qcurve" smooth="yes"/>
      <point x="290" y="366"/>
      <point x="317" y="349"/>
      <point x="317" y="333" type="qcurve" smooth="yes"/>
      <point x="309" y="261"/>
      <point x="291" y="194" type="qcurve"/>
      <point x="809" y="711" type="line" smooth="yes"/>
      <point x="816" y="718"/>
      <point x="828" y="718" type="qcurve" smooth="yes"/>
      <point x="839" y="718"/>
      <point x="864" y="693"/>
      <point x="864" y="669"/>
      <point x="855" y="660" type="qcurve" smooth="yes"/>
      <point x="339" y="146" type="line"/>
      <point x="406" y="164"/>
      <point x="478" y="172" type="qcurve" smooth="yes"/>
      <point x="494" y="172"/>
      <point x="511" y="144"/>
      <point x="511" y="126" type="qcurve" smooth="yes"/>
      <point x="511" y="104"/>
      <point x="491" y="103" type="qcurve" smooth="yes"/>
      <point x="322" y="85"/>
      <point x="239" y="51" type="qcurve" smooth="yes"/>
      <point x="235" y="50"/>
    </contour>
  </outline>
</glyph>
<glyph name="uni21B7" format="1">
  <advance width="1000" height="1000"/>
  <unicode hex="21B7"/>
  <outline>
    <contour>
      <point x="779" y="185"/>
      <point x="772" y="201" type="qcurve" smooth="yes"/>
      <point x="751" y="247"/>
      <point x="694" y="330"/>
      <point x="665" y="371"/>
      <point x="657" y="382" type="qcurve" smooth="yes"/>
      <point x="634" y="406"/>
      <point x="634" y="430"/>
      <point x="661" y="450"/>
      <point x="673" y="450" type="qcurve" smooth="yes"/>
      <point x="701" y="450"/>
      <point x="767" y="333" type="qcurve"/>
      <point x="767" y="370" type="line" smooth="yes"/>
      <point x="767" y="503"/>
      <point x="583" y="687"/>
      <point x="317" y="687"/>
      <point x="133" y="503"/>
      <point x="133" y="364" type="qcurve"/>
      <point x="66" y="364" type="line"/>
      <point x="66" y="477"/>
      <point x="170" y="650"/>
      <point x="344" y="754"/>
      <point x="450" y="754" type="qcurve" smooth="yes"/>
      <point x="557" y="754"/>
      <point x="730" y="650"/>
      <point x="834" y="477"/>
      <point x="834" y="370" type="qcurve" smooth="yes"/>
      <point x="834" y="333" type="line"/>
      <point x="900" y="450"/>
      <point x="928" y="450" type="qcurve" smooth="yes"/>
      <point x="940" y="450"/>
      <point x="967" y="430"/>
      <point x="967" y="410"/>
      <point x="956" y="393"/>
      <point x="936" y="371"/>
      <point x="921" y="351" type="qcurve" smooth="yes"/>
      <point x="856" y="256"/>
      <point x="830" y="201" type="qcurve" smooth="yes"/>
      <point x="823" y="185"/>
    </contour>
  </outline>
</glyph>
<glyph name="uni21C5" format="1">
  <advance width="1000" height="1000"/>
  <unicode hex="21C5"/>
  <outline>
    <contour>
      <point x="645" y="-71"/>
      <point x="634" y="-46" type="qcurve" smooth="yes"/>
      <point x="583" y="62"/>
      <point x="505" y="161" type="qcurve" smooth="yes"/>
      <point x="499" y="170"/>
      <point x="499" y="182" type="qcurve" smooth="yes"/>
      <point x="499" y="195"/>
      <point x="527" y="219"/>
      <point x="539" y="219" type="qcurve" smooth="yes"/>
      <point x="550" y="219"/>
      <point x="556" y="215" type="qcurve" smooth="yes"/>
      <point x="571" y="208"/>
      <point x="638" y="103" type="qcurve"/>
      <point x="638" y="798" type="line" smooth="yes"/>
      <point x="638" y="824"/>
      <point x="678" y="824" type="qcurve" smooth="yes"/>
      <point x="691" y="824"/>
      <point x="717" y="812"/>
      <point x="717" y="798" type="qcurve" smooth="yes"/>
      <point x="717" y="102" type="line"/>
      <point x="770" y="182"/>
      <point x="793" y="213"/>
      <point x="806" y="219"/>
      <point x="817" y="219" type="qcurve" smooth="yes"/>
      <point x="829" y="219"/>
      <point x="857" y="195"/>
      <point x="857" y="171"/>
      <point x="851" y="162" type="qcurve" smooth="yes"/>
      <point x="772" y="60"/>
      <point x="723" y="-45" type="qcurve" smooth="yes"/>
      <point x="713" y="-71"/>
    </contour>
    <contour>
      <point x="322" y="-65" type="qcurve" smooth="yes"/>
      <point x="282" y="-65"/>
      <point x="282" y="-39" type="qcurve" smooth="yes"/>
      <point x="282" y="656" type="line"/>
      <point x="215" y="552"/>
      <point x="200" y="543" type="qcurve" smooth="yes"/>
      <point x="193" y="540"/>
      <point x="183" y="540" type="qcurve" smooth="yes"/>
      <point x="171" y="540"/>
      <point x="143" y="565"/>
      <point x="143" y="578" type="qcurve" smooth="yes"/>
      <point x="143" y="589"/>
      <point x="149" y="598" type="qcurve" smooth="yes"/>
      <point x="231" y="705"/>
      <point x="278" y="805" type="qcurve" smooth="yes"/>
      <point x="289" y="830"/>
      <point x="357" y="830"/>
      <point x="367" y="804" type="qcurve" smooth="yes"/>
      <point x="416" y="699"/>
      <point x="495" y="597" type="qcurve" smooth="yes"/>
      <point x="501" y="588"/>
      <point x="501" y="577" type="qcurve" smooth="yes"/>
      <point x="501" y="564"/>
      <point x="473" y="540"/>
      <point x="461" y="540" type="qcurve" smooth="yes"/>
      <point x="450" y="540"/>
      <point x="437" y="546"/>
      <point x="414" y="577"/>
      <point x="361" y="657" type="qcurve"/>
      <point x="361" y="-39" type="line" smooth="yes"/>
      <point x="361" y="-53"/>
      <point x="335" y="-65"/>
    </contour>
  </outline>
</glyph>
<glyph name="partialdiff" format="1">
  <advance width="1000" height="1000"/>
  <unicode hex="2202"/>
  <outline>
    <contour>
      <point x="515" y="54" type="qcurve" smooth="yes"/>
      <point x="598" y="54"/>
      <point x="651" y="173" type="qcurve" smooth="yes"/>
      <point x="676" y="231"/>
      <point x="689" y="300" type="qcurve"/>
      <point x="579" y="354"/>
      <point x="468" y="354" type="qcurve" smooth="yes"/>
      <point x="409" y="354"/>
      <point x="348" y="309"/>
      <point x="348" y="242" type="qcurve" smooth="yes"/>
      <point x="348" y="173"/>
      <point x="454" y="54"/>
    </contour>
    <contour>
      <point x="524" y="-23" type="qcurve" smooth="yes"/>
      <point x="427" y="-23"/>
      <point x="267" y="148"/>
      <point x="267" y="240" type="qcurve" smooth="yes"/>
      <point x="267" y="431"/>
      <point x="470" y="431" type="qcurve" smooth="yes"/>
      <point x="584" y="431"/>
      <point x="699" y="364" type="qcurve"/>
      <point x="703" y="392"/>
      <point x="703" y="443" type="qcurve" smooth="yes"/>
      <point x="703" y="493"/>
      <point x="694" y="541" type="qcurve" smooth="yes"/>
      <point x="674" y="644"/>
      <point x="590" y="644" type="qcurve" smooth="yes"/>
      <point x="503" y="644"/>
      <point x="438" y="603" type="qcurve" smooth="yes"/>
      <point x="416" y="589"/>
      <point x="405" y="579"/>
      <point x="392" y="579" type="qcurve" smooth="yes"/>
      <point x="377" y="579"/>
      <point x="347" y="620"/>
      <point x="347" y="650"/>
      <point x="356" y="656" type="qcurve" smooth="yes"/>
      <point x="449" y="720"/>
      <point x="595" y="720" type="qcurve" smooth="yes"/>
      <point x="658" y="720"/>
      <point x="742" y="643"/>
      <point x="783" y="520"/>
      <point x="783" y="378"/>
      <point x="773" y="317" type="qcurve"/>
      <point x="800" y="295"/>
      <point x="817" y="276"/>
      <point x="817" y="266" type="qcurve" smooth="yes"/>
      <point x="817" y="247"/>
      <point x="797" y="247" type="qcurve" smooth="yes"/>
      <point x="790" y="247"/>
      <point x="763" y="262" type="qcurve"/>
      <point x="726" y="90"/>
      <point x="628" y="15" type="qcurve" smooth="yes"/>
      <point x="577" y="-23"/>
    </contour>
  </outline>
</glyph>
<glyph name="Delta" format="1">
  <advance width="1000" height="1000"/>
  <unicode hex="2206"/>
  <outline>
    <contour>
      <point x="784" y="0" type="qcurve" smooth="yes"/>
      <point x="224" y="0" type="line" smooth="yes"/>
      <point x="208" y="0"/>
      <point x="187" y="17"/>
      <point x="187" y="31" type="qcurve" smooth="yes"/>
      <point x="187" y="41"/>
      <point x="483" y="675" type="qcurve" smooth="yes"/>
      <point x="491" y="693"/>
      <point x="525" y="693"/>
      <point x="532" y="675" type="qcurve" smooth="yes"/>
      <point x="821" y="40"/>
      <point x="821" y="31" type="qcurve" smooth="yes"/>
      <point x="821" y="17"/>
      <point x="800" y="0"/>
    </contour>
    <contour>
      <point x="711" y="72" type="line"/>
      <point x="490" y="559" type="line"/>
      <point x="263" y="72" type="line"/>
    </contour>
  </outline>
</glyph>
<glyph name="element" format="1">
  <advance width="1000" height="1000"/>
  <unicode hex="2208"/>
  <outline>
    <contour>
      <point x="800" y="69" type="qcurve" smooth="yes"/>
      <point x="437" y="69" type="line" smooth="yes"/>
      <point x="356" y="69"/>
      <point x="229" y="147"/>
      <point x="157" y="281"/>
      <point x="157" y="367" type="qcurve" smooth="yes"/>
      <point x="157" y="452"/>
      <point x="229" y="585"/>
      <point x="356" y="663"/>
      <point x="437" y="663" type="qcurve" smooth="yes"/>
      <point x="800" y="663" type="line" smooth="yes"/>
      <point x="826" y="663"/>
      <point x="826" y="589"/>
      <point x="800" y="589" type="qcurve" smooth="yes"/>
      <point x="440" y="589" type="line" smooth="yes"/>
      <point x="390" y="589"/>
      <point x="305" y="544"/>
      <point x="247" y="459"/>
      <point x="239" y="405" type="qcurve"/>
      <point x="800" y="405" type="line" smooth="yes"/>
      <point x="826" y="405"/>
      <point x="826" y="331"/>
      <point x="800" y="331" type="qcurve" smooth="yes"/>
      <point x="239" y="331" type="line"/>
      <point x="246" y="276"/>
      <point x="304" y="189"/>
      <point x="390" y="143"/>
      <point x="440" y="143" type="qcurve" smooth="yes"/>
      <point x="800" y="143" type="line" smooth="yes"/>
      <point x="826" y="143"/>
      <point x="826" y="69"/>
    </contour>
  </outline>
</glyph>
<glyph name="suchthat" format="1">
  <advance width="1000" height="1000"/>
  <unicode hex="220B"/>
  <outline>
    <contour>
      <point x="563" y="69" type="qcurve" smooth="yes"/>
      <point x="200" y="69" type="line" smooth="yes"/>
      <point x="174" y="69"/>
      <point x="174" y="107" type="qcurve" smooth="yes"/>
      <point x="174" y="143"/>
      <point x="200" y="143" type="qcurve" smooth="yes"/>
      <point x="560" y="143" type="line" smooth="yes"/>
      <point x="666" y="143"/>
      <point x="725" y="232" type="qcurve" smooth="yes"/>
      <point x="754" y="276"/>
      <point x="761" y="331" type="qcurve"/>
      <point x="200" y="331" type="line" smooth="yes"/>
      <point x="174" y="331"/>
      <point x="174" y="369" type="qcurve" smooth="yes"/>
      <point x="174" y="405"/>
      <point x="200" y="405" type="qcurve" smooth="yes"/>
      <point x="761" y="405" type="line"/>
      <point x="753" y="459"/>
      <point x="724" y="502" type="qcurve" smooth="yes"/>
      <point x="664" y="589"/>
      <point x="560" y="589" type="qcurve" smooth="yes"/>
      <point x="200" y="589" type="line" smooth="yes"/>
      <point x="174" y="589"/>
      <point x="174" y="627" type="qcurve" smooth="yes"/>
      <point x="174" y="663"/>
      <point x="200" y="663" type="qcurve" smooth="yes"/>
      <point x="563" y="663" type="line" smooth="yes"/>
      <point x="645" y="663"/>
      <point x="771" y="585"/>
      <point x="843" y="452"/>
      <point x="843" y="367" type="qcurve" smooth="yes"/>
      <point x="843" y="281"/>
      <point x="771" y="147"/>
      <point x="644" y="69"/>
    </contour>
  </outline>
</glyph>
<glyph name="summation" format="1">
  <advance width="1000" height="1000"/>
  <unicode hex="2211"/>
  <outline>
    <contour>
      <point x="307" y="-20" type="qcurve" smooth="yes"/>
      <point x="286" y="-20"/>
      <point x="258" y="22"/>
      <point x="258" y="45" type="qcurve" smooth="yes"/>
      <point x="258" y="69"/>
      <point x="272" y="75" type="qcurve" smooth="yes"/>
      <point x="298" y="90"/>
      <point x="322" y="113" type="qcurve" smooth="yes"/>
      <point x="505" y="300"/>
      <point x="577" y="366" type="qcurve"/>
      <point x="331" y="585"/>
      <point x="285" y="610" type="qcurve" smooth="yes"/>
      <point x="270" y="618"/>
      <point x="258" y="631"/>
      <point x="258" y="645" type="qcurve" smooth="yes"/>
      <point x="258" y="664"/>
      <point x="280" y="701"/>
      <point x="297" y="701" type="qcurve" smooth="yes"/>
      <point x="353" y="699" type="line"/>
      <point x="647" y="710"/>
      <point x="711" y="716" type="qcurve" smooth="yes"/>
      <point x="726" y="716"/>
      <point x="749" y="677"/>
      <point x="749" y="658" type="qcurve" smooth="yes"/>
      <point x="749" y="635"/>
      <point x="731" y="635" type="qcurve" smooth="yes"/>
      <point x="715" y="635"/>
      <point x="681" y="637" type="qcurve" smooth="yes"/>
      <point x="638" y="637"/>
      <point x="628" y="636" type="qcurve" smooth="yes"/>
      <point x="385" y="626" type="line"/>
      <point x="503" y="531"/>
      <point x="608" y="437" type="qcurve" smooth="yes"/>
      <point x="629" y="419"/>
      <point x="664" y="402" type="qcurve" smooth="yes"/>
      <point x="678" y="396"/>
      <point x="678" y="370" type="qcurve" smooth="yes"/>
      <point x="678" y="334"/>
      <point x="656" y="324" type="qcurve" smooth="yes"/>
      <point x="651" y="322"/>
      <point x="628" y="312"/>
      <point x="617" y="302" type="qcurve" smooth="yes"/>
      <point x="495" y="189"/>
      <point x="372" y="61" type="qcurve"/>
      <point x="620" y="68"/>
      <point x="710" y="75" type="qcurve" smooth="yes"/>
      <point x="725" y="75"/>
      <point x="749" y="35"/>
      <point x="749" y="16" type="qcurve" smooth="yes"/>
      <point x="749" y="-7"/>
      <point x="731" y="-7" type="qcurve" smooth="yes"/>
      <point x="712" y="-7"/>
      <point x="699" y="-6" type="qcurve" smooth="yes"/>
      <point x="628" y="-5" type="line"/>
      <point x="350" y="-13"/>
      <point x="324" y="-20"/>
    </contour>
  </outline>
</glyph>
<glyph name="minus" format="1">
  <advance width="500" height="500"/>
  <unicode hex="2212"/>
  <outline>
    <contour>
      <point x="313" y="286" type="line" smooth="yes"/>
      <point x="342" y="286"/>
      <point x="384" y="288" type="qcurve" smooth="yes"/>
      <point x="385" y="288" type="line" smooth="yes"/>
      <point x="397" y="288"/>
      <point x="411" y="259"/>
      <point x="411" y="214"/>
      <point x="390" y="214" type="qcurve" smooth="yes"/>
      <point x="312" y="216" type="line"/>
      <point x="192" y="216" type="line" smooth="yes"/>
      <point x="136" y="216"/>
      <point x="118" y="213" type="qcurve" smooth="yes"/>
      <point x="117" y="213" type="line" smooth="yes"/>
      <point x="104" y="213"/>
      <point x="91" y="244"/>
      <point x="91" y="258" type="qcurve" smooth="yes"/>
      <point x="91" y="288"/>
      <point x="113" y="288" type="qcurve" smooth="yes"/>
      <point x="143" y="286"/>
      <point x="193" y="286" type="qcurve" smooth="yes"/>
    </contour>
  </outline>
</glyph>
<glyph name="uni2213" format="1">
  <advance width="1000" height="1000"/>
  <unicode hex="2213"/>
  <outline>
    <contour>
      <point x="505" y="16" type="qcurve" smooth="yes"/>
      <point x="490" y="16"/>
      <point x="460" y="29"/>
      <point x="460" y="44" type="qcurve" smooth="yes"/>
      <point x="463" y="76"/>
      <point x="463" y="239" type="qcurve"/>
      <point x="200" y="236"/>
      <point x="186" y="234" type="qcurve" smooth="yes"/>
      <point x="159" y="234"/>
      <point x="159" y="288" type="qcurve" smooth="yes"/>
      <point x="159" y="313"/>
      <point x="181" y="313" type="qcurve" smooth="yes"/>
      <point x="211" y="311"/>
      <point x="268" y="311" type="qcurve" smooth="yes"/>
      <point x="463" y="314" type="line"/>
      <point x="463" y="476"/>
      <point x="461" y="506" type="qcurve" smooth="yes"/>
      <point x="461" y="528"/>
      <point x="493" y="528" type="qcurve" smooth="yes"/>
      <point x="508" y="528"/>
      <point x="540" y="515"/>
      <point x="540" y="501" type="qcurve" smooth="yes"/>
      <point x="537" y="465"/>
      <point x="537" y="314" type="qcurve"/>
      <point x="754" y="317"/>
      <point x="811" y="320" type="qcurve" smooth="yes"/>
      <point x="826" y="320"/>
      <point x="840" y="290"/>
      <point x="840" y="277" type="qcurve" smooth="yes"/>
      <point x="840" y="242"/>
      <point x="817" y="242" type="qcurve" smooth="yes"/>
      <point x="734" y="243" type="line"/>
      <point x="537" y="240" type="line"/>
      <point x="537" y="121"/>
      <point x="538" y="38" type="qcurve" smooth="yes"/>
      <point x="538" y="16"/>
    </contour>
    <contour>
      <point x="186" y="593" type="qcurve" smooth="yes"/>
      <point x="159" y="593"/>
      <point x="159" y="647" type="qcurve" smooth="yes"/>
      <point x="159" y="672"/>
      <point x="181" y="672" type="qcurve" smooth="yes"/>
      <point x="211" y="670"/>
      <point x="268" y="670" type="qcurve" smooth="yes"/>
      <point x="753" y="676"/>
      <point x="811" y="679" type="qcurve" smooth="yes"/>
      <point x="826" y="679"/>
      <point x="840" y="649"/>
      <point x="840" y="636" type="qcurve" smooth="yes"/>
      <point x="840" y="601"/>
      <point x="817" y="601" type="qcurve" smooth="yes"/>
      <point x="734" y="602" type="line"/>
      <point x="199" y="595"/>
    </contour>
  </outline>
</glyph>
<glyph name="uni2215" format="1">
  <advance width="500" height="500"/>
  <unicode hex="2215"/>
  <outline>
    <contour>
      <point x="322" y="662" type="line" smooth="yes"/>
      <point x="337" y="704"/>
      <point x="346" y="739" type="qcurve" smooth="yes"/>
      <point x="350" y="757"/>
      <point x="376" y="757"/>
      <point x="388" y="749" type="qcurve" smooth="yes"/>
      <point x="416" y="728"/>
      <point x="416" y="709" type="qcurve" smooth="yes"/>
      <point x="416" y="705"/>
      <point x="400" y="674"/>
      <point x="387" y="638" type="qcurve" smooth="yes"/>
      <point x="171" y="45" type="line" smooth="yes"/>
      <point x="154" y="-2"/>
      <point x="145" y="-31" type="qcurve" smooth="yes"/>
      <point x="139" y="-48"/>
      <point x="107" y="-48"/>
      <point x="77" y="-22"/>
      <point x="77" y="4"/>
      <point x="81" y="12" type="qcurve" smooth="yes"/>
      <point x="99" y="44"/>
      <point x="108" y="72" type="qcurve" smooth="yes"/>
    </contour>
  </outline>
</glyph>
<glyph name="proportional" format="1">
  <advance width="1000" height="1000"/>
  <unicode hex="221D"/>
  <outline>
    <contour>
      <point x="280" y="230" type="qcurve" smooth="yes"/>
      <point x="366" y="230"/>
      <point x="418" y="294" type="qcurve" smooth="yes"/>
      <point x="454" y="336"/>
      <point x="461" y="363" type="qcurve"/>
      <point x="432" y="445"/>
      <point x="375" y="504"/>
      <point x="328" y="504" type="qcurve" smooth="yes"/>
      <point x="279" y="504"/>
      <point x="209" y="455"/>
      <point x="166" y="378"/>
      <point x="166" y="330" type="qcurve" smooth="yes"/>
      <point x="166" y="230"/>
    </contour>
    <contour>
      <point x="672" y="157" type="qcurve" smooth="yes"/>
      <point x="619" y="157"/>
      <point x="517" y="223"/>
      <point x="496" y="285" type="qcurve"/>
      <point x="420" y="157"/>
      <point x="280" y="157" type="qcurve" smooth="yes"/>
      <point x="194" y="157"/>
      <point x="90" y="253"/>
      <point x="90" y="342" type="qcurve" smooth="yes"/>
      <point x="90" y="430"/>
      <point x="230" y="579"/>
      <point x="316" y="579" type="qcurve" smooth="yes"/>
      <point x="400" y="579"/>
      <point x="483" y="496"/>
      <point x="501" y="445" type="qcurve"/>
      <point x="545" y="520"/>
      <point x="623" y="557" type="qcurve" smooth="yes"/>
      <point x="667" y="579"/>
      <point x="779" y="579"/>
      <point x="875" y="532"/>
      <point x="892" y="485" type="qcurve" smooth="yes"/>
      <point x="893" y="482"/>
      <point x="893" y="472" type="qcurve" smooth="yes"/>
      <point x="893" y="461"/>
      <point x="860" y="428"/>
      <point x="849" y="428" type="qcurve" smooth="yes"/>
      <point x="836" y="428"/>
      <point x="831" y="440" type="qcurve" smooth="yes"/>
      <point x="818" y="484"/>
      <point x="758" y="506"/>
      <point x="719" y="506" type="qcurve" smooth="yes"/>
      <point x="603" y="506"/>
      <point x="542" y="375" type="qcurve"/>
      <point x="538" y="365" type="line"/>
      <point x="543" y="355"/>
      <point x="547" y="339" type="qcurve" smooth="yes"/>
      <point x="567" y="274"/>
      <point x="648" y="218"/>
      <point x="692" y="218" type="qcurve" smooth="yes"/>
      <point x="757" y="218"/>
      <point x="804" y="263" type="qcurve" smooth="yes"/>
      <point x="814" y="273"/>
      <point x="825" y="273" type="qcurve" smooth="yes"/>
      <point x="844" y="273"/>
      <point x="844" y="254" type="qcurve" smooth="yes"/>
      <point x="844" y="238"/>
      <point x="798" y="192"/>
      <point x="723" y="157"/>
    </contour>
  </outline>
</glyph>
<glyph name="infinity" format="1">
  <advance width="1000" height="1000"/>
  <unicode hex="221E"/>
  <outline>
    <contour>
      <point x="280" y="241" type="qcurve" smooth="yes"/>
      <point x="366" y="241"/>
      <point x="423" y="314" type="qcurve" smooth="yes"/>
      <point x="448" y="345"/>
      <point x="459" y="372" type="qcurve"/>
      <point x="445" y="414"/>
      <point x="412" y="478"/>
      <point x="363" y="513"/>
      <point x="281" y="513"/>
      <point x="210" y="463"/>
      <point x="166" y="386"/>
      <point x="166" y="347" type="qcurve" smooth="yes"/>
      <point x="166" y="241"/>
    </contour>
    <contour>
      <point x="680" y="241" type="qcurve" smooth="yes"/>
      <point x="720" y="241"/>
      <point x="790" y="288"/>
      <point x="834" y="365"/>
      <point x="834" y="413" type="qcurve" smooth="yes"/>
      <point x="834" y="460"/>
      <point x="775" y="513"/>
      <point x="718" y="513" type="qcurve" smooth="yes"/>
      <point x="660" y="513"/>
      <point x="562" y="432"/>
      <point x="538" y="373" type="qcurve"/>
      <point x="558" y="320"/>
      <point x="577" y="289" type="qcurve" smooth="yes"/>
      <point x="608" y="241"/>
    </contour>
    <contour>
      <point x="680" y="164" type="qcurve" smooth="yes"/>
      <point x="540" y="164"/>
      <point x="495" y="281" type="qcurve"/>
      <point x="421" y="164"/>
      <point x="275" y="164" type="qcurve" smooth="yes"/>
      <point x="191" y="164"/>
      <point x="88" y="259"/>
      <point x="88" y="352" type="qcurve" smooth="yes"/>
      <point x="88" y="443"/>
      <point x="227" y="590"/>
      <point x="314" y="590" type="qcurve" smooth="yes"/>
      <point x="399" y="590"/>
      <point x="483" y="517"/>
      <point x="502" y="467" type="qcurve"/>
      <point x="583" y="590"/>
      <point x="725" y="590" type="qcurve" smooth="yes"/>
      <point x="807" y="590"/>
      <point x="912" y="494"/>
      <point x="912" y="312"/>
      <point x="778" y="164"/>
    </contour>
  </outline>
</glyph>
<glyph name="orthogonal" format="1">
  <advance width="1000" height="1000"/>
  <unicode hex="221F"/>
  <outline>
    <contour>
      <point x="289" y="41" type="line" smooth="yes"/>
      <point x="236" y="41"/>
      <point x="236" y="98" type="qcurve" smooth="yes"/>
      <point x="236" y="656"/>
      <point x="234" y="686" type="qcurve" smooth="yes"/>
      <point x="234" y="708"/>
      <point x="260" y="708" type="qcurve" smooth="yes"/>
      <point x="280" y="708"/>
      <point x="313" y="694"/>
      <point x="313" y="681" type="qcurve" smooth="yes"/>
      <point x="310" y="642"/>
      <point x="310" y="113" type="qcurve"/>
      <point x="731" y="118"/>
      <point x="784" y="121" type="qcurve" smooth="yes"/>
      <point x="799" y="121"/>
      <point x="813" y="92"/>
      <point x="813" y="79" type="qcurve" smooth="yes"/>
      <point x="813" y="45"/>
      <point x="790" y="45" type="qcurve" smooth="yes"/>
      <point x="766" y="46"/>
      <point x="737" y="46" type="qcurve" smooth="yes"/>
    </contour>
  </outline>
</glyph>
